<mxfile host="app.diagrams.net" agent="Mozilla/5.0 (Windows NT 10.0; Win64; x64) AppleWebKit/537.36 (KHTML, like Gecko) Chrome/116.0.0.0 Safari/537.36" version="24.7.16">
  <diagram name="第 1 页" id="6AN-3cwEPdBDDhWw0bSy">
    <mxGraphModel dx="1235" dy="638" grid="1" gridSize="10" guides="1" tooltips="1" connect="1" arrows="1" fold="1" page="1" pageScale="1" pageWidth="827" pageHeight="1169" math="0" shadow="0">
      <root>
        <mxCell id="0" />
        <mxCell id="1" parent="0" />
        <mxCell id="i3pbH2j_8MyRmLFWwFwp-7" style="edgeStyle=orthogonalEdgeStyle;rounded=0;orthogonalLoop=1;jettySize=auto;html=1;entryX=0.5;entryY=0;entryDx=0;entryDy=0;" edge="1" parent="1" source="i3pbH2j_8MyRmLFWwFwp-1" target="i3pbH2j_8MyRmLFWwFwp-2">
          <mxGeometry relative="1" as="geometry">
            <Array as="points">
              <mxPoint x="130" y="260" />
              <mxPoint x="425" y="260" />
            </Array>
          </mxGeometry>
        </mxCell>
        <mxCell id="i3pbH2j_8MyRmLFWwFwp-1" value="意图：1分钟生效" style="whiteSpace=wrap;html=1;" vertex="1" parent="1">
          <mxGeometry x="30" y="45" width="200" height="70" as="geometry" />
        </mxCell>
        <mxCell id="i3pbH2j_8MyRmLFWwFwp-2" value="媒体引擎" style="whiteSpace=wrap;html=1;" vertex="1" parent="1">
          <mxGeometry x="270" y="310" width="310" height="220" as="geometry" />
        </mxCell>
        <mxCell id="i3pbH2j_8MyRmLFWwFwp-4" value="自然召回&lt;br&gt;预约资源会被直接过滤" style="whiteSpace=wrap;html=1;fillColor=#f5f5f5;fontColor=#333333;strokeColor=#666666;" vertex="1" parent="1">
          <mxGeometry x="630" y="30" width="210" height="90" as="geometry" />
        </mxCell>
        <mxCell id="i3pbH2j_8MyRmLFWwFwp-8" style="edgeStyle=orthogonalEdgeStyle;rounded=0;orthogonalLoop=1;jettySize=auto;html=1;entryX=0.5;entryY=0;entryDx=0;entryDy=0;" edge="1" parent="1" source="i3pbH2j_8MyRmLFWwFwp-6" target="i3pbH2j_8MyRmLFWwFwp-2">
          <mxGeometry relative="1" as="geometry" />
        </mxCell>
        <mxCell id="i3pbH2j_8MyRmLFWwFwp-6" value="干预：1分钟生效" style="whiteSpace=wrap;html=1;" vertex="1" parent="1">
          <mxGeometry x="335" y="35" width="180" height="80" as="geometry" />
        </mxCell>
        <mxCell id="i3pbH2j_8MyRmLFWwFwp-11" value="" style="shape=image;verticalLabelPosition=bottom;labelBackgroundColor=default;verticalAlign=top;aspect=fixed;imageAspect=0;image=data:image/png,iVBORw0KGgoAAAANSUhEUgAABfYAAALlCAYAAACGmLeWAAAgAElEQVR4Aey9248d133nyz9DrwHyEngCnADnwX6z/RQEyIsRQ5gBDnDmeNCjpC2gR0PAMC2rfUBrQlgeJeEYp0FAY5hJxAFMO0eJ2T4Y+tjNS5NMU2KLEpUWIZG0RFHNkK2LaarZImnqN1i3qrVWrbrsvWvvrtr700Bj165al9/6rG/91qpf1V615ze/3Rb+YYAG0AAaQANoAA2gATSABtAAGkADaAANoAE0gAbQABpAA2igHxrYQ0f1o6PoJ/oJDaABNIAG0AAaQANoAA2gATSABtAAGkADaAANoAE0gAaUBvZ8fOcT4R8GaAANoAE0gAbQABpAA2gADaABNIAG0AAaQANoAA2gATSABvqhgT0f39kW/mGABtAAGkADaAANoAE0gAbQABpAA2gADaABNIAG0AAaQANooB8a2PPxb7eFfxigATSABtAAGkADaAANoAE0gAbQABpAA2gADaABNIAG0AAa6IcGWGOflwfz8mQ0gAbQABpAA2gADaABNIAG0AAaQANoAA2gATSABtAAGuiRBliKh6WIWIoJDaABNIAG0AAaQANoAA2gATSABtAAGkADaAANoAE0gAZ6pIE9H/3mE+EfBmgADaABNIAG0AAaQANoAA2gATSABtAAGkADaAANoAE0gAb6oYE9H93ZFv5hgAbQABpAA2gADaABNIAG0AAaQANoAA2gATSABtAAGkADaKAfGuCJfX6xwC820AAaQANoAA2gATSABtAAGkADaAANoAE0gAbQABpAA2igRxrY8+FvPhH+YYAG0AAaQANoAA2gATSABtAAGkADaAANoAE0gAbQABpAA2igHxrYs/XxXeEfBmgADaABNIAG0AAaQANoAA2gATSABtAAGkADaAANoAE0gAb6oYE9Wx99IvzDAA2gATSABtAAGkADaAANoAE0gAbQABpAA2gADaABNIAG0EA/NLDn9kd3hX8YoAE0gAbQABpAA2gADaABNIAG0AAaQANoAA2gATSABtAAGuiHBvbc+vC3kv6/K7c+5B8GaAANoAE0gAbQABpAA2gADaABNIAG0AAaQANoAA2gATSABrqhARPP37P10bbwDwM0gAbQABpAA2gADaABNIAG0AAaQANoAA2gATSABtAAGkAD/dDAHuEPAhCAAAQgAAEIQAACEIAABCAAAQhAAAIQgAAEIACB3hAgsN+brsJQCEAAAhCAAAQgAAEIQAACEIAABCAAAQhAAAIQgIAIgX1UAAEIQAACEIAABCAAAQhAAAIQgAAEIAABCEAAAhDoEQEC+z3qLEyFAAQgAAEIQAACEIAABCAAAQhAAAIQgAAEIAABCBDYRwMQgAAEIAABCEAAAhCAAAQgAAEIQAACEIAABCAAgR4RILDfo87CVAhAAAIQgAAEIAABCEAAAhCAAAQgAAEIQAACEIAAgX00AAEIQAACEIAABCAAAQhAAAIQgAAEIAABCEAAAhDoEQEC+z3qLEyFAAQgAAEIQAACEIAABCAAAQhAAAIQgAAEIAABCBDYRwMQgAAEIAABCEAAAhCAAAQgAAEIQAACEIAABCAAgR4RILDfo87CVAhAAAIQgAAEIAABCEAAAhCAAAQgAAEIQAACEIAAgX00AAEIQAACEIAABCAAAQhAAAIQgAAEIAABCEAAAhDoEQEC+z3qLEyFAAQgAAEIQAACEIAABCAAAQhAAAIQgAAEIAABCBDYRwMQgAAEIAABCEAAAhCAAAQgAAEIQAACEIAABCAAgR4RILDfo87CVAhAAAIQgAAEIAABCEAAAhCAAAQgAAEIQAACEIAAgX00AAEIQAACEIAABCAAAQhAAAIQgAAEIAABCEAAAhDoEQEC+z3qLEyFAAQgAAEIQAACEIAABCAAAQhAAAIQgAAEIAABCBDYRwMQgAAEIAABCEAAAhCAAAQgAAEIQAACEIAABCAAgR4RILDfo87CVAhAAAIQgAAEIAABCEAAAhCAAAQgAAEIQAACEIAAgX00AAEIQAACEIAABCAAAQhAAAIQgAAEIAABCEAAAhDoEQEC+z3qLEyFAAQgAAEIQAACEIAABCAAAQhAAAIQgAAEIAABCBDYRwMQgAAEIAABCEAAAhCAAAQgAAEIQAACEIAABCAAgR4RILDfo87CVAhAAAIQgAAEIAABCEAAAhCAAAQgAAEIQAACEIAAgX00AAEIQAACEIAABCAAAQhAAAIQgAAEIAABCEAAAhDoEQEC+z3qLEyFAAQgAAEIQAACEIAABCAAAQhAAAIQgAAEIAABCBDYRwMQgAAEIAABCEAAAhCAAAQgAAEIQAACEIAABCAAgR4RILDfo87CVAhAAAIQgAAEIAABCEAAAhCAAAQgAAEIQAACEIAAgX00AAEIQAACEIAABCAAAQhAAAIQgAAEIAABCEAAAhDoEQEC+z3qLEyFAAQgAAEIQAACEIAABCAAAQhAAAIQgAAEIAABCBDYRwMQgAAEIAABCEAAAhCAAAQgAAEIQAACEIAABCAAgR4RILDfo87CVAhAAAIQgAAEIAABCEAAAhCAAAQgAAEIQAACEIAAgf2Oa+DevXuytbUlm5ub8v777/MPAzSABnqtAeXLlE9Tvo0/CLRFgLGS+cE0zJHwj215BMqJCeAj8ZHT4CNpAzp2GmC8jL0839si0Ofxsm/nxdsf3pJ/uvyqvHDhlBx65cRU/as2qbapNk7ij8D+JCgPWcedO3fk9u3bsrOzI5999tmQpZANAhCAQHcIKF+mfJrybcrH8QeBUQkwVo5KkPxdIYB/7EpPTJcd+Mjp6k9aAwEIiI6NcD2BEtom0Pfxsk/zyHPvXZV/2Lggv/54Sx4+etR2V+56eapNqm2qjaqt4/4jsD9uwkOWr+4UqsAXAf0hAZINAhDoNAHl25SPU76OPwgMS4Cxclhy5OsyAfxjl3unX7bhI/vVX1gLAQgMRoDxcjBepC4nME3jZdfPC/UUuwp4T2NAP1aYaqNq67if3CewH5PvyHe1VIW6C80fBCAAgWkloHyc8nX8QWBYAoyVw5IjX9cJ4B+73kP9sA8f2Y9+wkoIQGB4AoyXw7MjZ05g2sbLLp8Xaoka9TT7rPyptqo2j/OPwP446Y5QtlofS91p4w8CEIDAtBJQPk75Ov4gMCwBxsphyZGv6wTwj13voX7Yh4/sRz9hJQQgMDwBxsvh2ZEzJzBt42WXzwu1/vwsPK3v1KXaqto8zj8C++OkO0LZ6sUw/EEAAhCYdgL4umnv4fG2D/2Mly+l7y4B9L27/KehdjQ0Db1IGyAAgToC+Lo6QhyvIzCNGupqm9SLcmftb9xtJrDfUUV19STsKC7MggAEekoAX9fTjuuI2einIx2BGWMhgL7HgnWmCkVDM9XdNBYCM0sAXzezXd9aw6dRQ11t07iD3K2JosWCxt1mAvstdlabRXX1JGyzjZQFAQhAAF+HBkYhgH5GoUferhNA313voe7bh4a630dYCAEIjE4AXzc6w1kvYRo11NU2jTvI3UUtj7vNBPa72Osi0tWTsKO4MAsCEOgpAXxdTzuuI2ajn450BGaMhQD6HgvWmSoUDc1Ud9NYCMwsAXzdzHZ9aw2fRg11tU3jDnK3JooWCxp3mwnst9hZbRbV1ZOwzTZSFgQgAAF8HRoYhQD6GYUeebtOAH13vYe6bx8a6n4fYSEEIDA6AXzd6AxnvYRp1FBX2zTuIHcXtTzuNhPY72Kv88R+R3sFsyAAgbYJdHXC0XY7KW88BNDPeLhSajcIoO9u9EPBipvLsjg3J0vrhSOd24GGOtclGAQBCIyBwLT4uvVDczL3zLJsjoERRVYTmBYN+a3sapvGHeT2GXRle9xtno3A/vqSzB3KZ9+bxxYbO8zdcq5dPQm7cmJgBwQgMB0E8HUd7Uc1bg56YaHyzC1JPtrWtG3Q9Ini0E8CCrumhgD6HkNX6qD8oizfHKHsm5uyrIIvg/g7EdHXH6V5NmX5mTlZPNZuOAcNjdDPZIUABHpDYDp83aZsrpsbx4ONBeuyNFcxfgw637Y3rwexQcXMmt/sNvYW0jcYnweJ4w0q3unQUNjqrrZpbEHu938mX/nOD+RsiCH6tikv/vX/JXu+0/z/Kz8ffW42tjbb1s1AYN86ukPr+Z3Ppk/apNLZfXNzakKf+h/xYsF2TFdPwuis4CsEIACBkQjg60bCN7bMmzeX9UXCIMF9fSNcjbXq5nmT8XHQC41Ea9FPAgq7pobAzOpb+4bUHLt8XyFAUKaCBoGDsqzh/ppASphYhfV14L78QSMC+wVk7IAABCDQkMA0jZfVN4ETQPSY6cegosD5QPNtO1YN9HDPpmweUw/3+DYk7Mx2Rfa5/Tc3Zd1eQ5TdVCi/xqi4seHKr/mcJg25pna1TaMGuW/+/FsDBeZNEP9b8uL7jkzxU5XZRgC/WLLZM2qby8p1+/sT2L/4N3Jv/sfy0Fne8LPsiXu9v/SpGVN48o5g1QVB1bGG9rpkI5+E9qKo7kLHOEfnhJs78ge31uTwoeP5zRJneIufAw9qVXUPxaOqQI5BAAJtEBjZ17VhxLSV0XC8rJocpwPzYVAtnHQXg1LJMdRnPdCFhp8x356kfsIxyY6X3q8Bc6vYgkA7BCap73YsLivlpnz6n74sO6+UHY/2N5yz6Vz2gZu6+W5WQ8O5urlOCH1eE78YpPH9Q8HO2IcUfWhm8wgbbWrowZmD9pdcJijj36QYwcQJZr0qR78xyFOlYzZtEJ0PaUreZ0MWMES2vM5Y40MU1lKW3KYhCvx0VQ42DliWlT/ojcCyctR+y7U28NrX87Sq7eXH2vR15bW0cMSOBcFYkXwYpmr8cbEbY08h3qV9i5em8XzbaquhPfG42yS+Zi3WDw/F+TO6FeN07bVFVsjgG73R0ABN62qbxhHk1oH5v/2BfOU735Kv/HV1EP/s3zZ/Wl/dFGgj4D+ONvtS6Hxg/9Hac3LvG0ty//SS3Jv/G7n/s+dk5/Hn5P59vxkl27FTC5LVDXbqeO4Qswv6CkcjVceCuuu/jHwSNpwsmna5djadKIgUBpD6Jg2cImM+cM5EhqF4JMphFwQg0CqBkX1dq9b0u7BBx8vhJ8dmrAgC+4nxT48TfmDLLUXhLkYbX2iU98sk9ROOSXa8jNpXbilHIDA4gUnqe3DrmuR4Vz7d+3/Kzk//WT793pdl56f/v3z6f6vv71Znbjhn04Vo3+MHa+38vmFgIh1ciZYUa+KrCnaETSz6W2NnHthI+NWwiKG+taehB7L2gznZ++OrIlJ3DTWUqePPdP2o7Js7KKufjr+qRjUMovNGBcaJ/D6Lj43ru19nV8ZJ36bB2/3g3EGZ+8ZRUcof/s+cM8G8aejCLFc3lyotp6fnaWl7qg+05+uq62n3aDO/Xx13iccSu+ybr48mY5jy7I3W96/SVW6LmTNX3ZwIj+VjYTXh4lhanX6Qo/3UUHULu9qmdoPcF+S7LvieLcVjl9v52wvVgPRRk7aN4H1VZe22uVhT5wP78rsP5cHpv5ed//Bluff5P5adv/x7uf/Oh/Ko2JZwT5PJkp2EpwbZMCDhOd1E8CKruOpYlqjZxsgnYZP2F0xpOlFo6vgLFQy0IwyiDJS1mHgoHsVi2AMBCLRLYGRf1645/S5twPEymBwrH+lfBFgS6Um+NybadEFZel8+ufehBum0X44CaH7iBtuT1E84JtnxksB+g14iybAEJqnvYW2sy/doc10+/X++Lvc+/2W59/h/lp2frcvDuodzBpmz1QTUC/YNNVdP+7Og7Ep/VvSZYtuYvrHgBTwSfjmot+ZLaxp6tC5LTyzI4Q1VYVVgp8agXTysffj3VuTOLtow0aqDPptQzUGdHRknA5sG56DmQQt/9+bgGYMc5pxJxRyCZI2+WK4j+oZGVfUoUWu+bsJtDubFyboT44efrjD2WH00uLmdB9Obaqot399gTFVttON77TiZtbU/1xR+F45zu6vnRTtBbhPQ3+OvqZ8F9i3VCz/QS/b4QftBn9bP1uJvdJOgvDfbaXN5+d0P7IvIo/d+LDt//HXZ+e6fyb19L8nD35U3SB+xTqDR4Okchn9xrh2ke4pdzV+9FwK69JkD8Sbfep+Xr8bMqsMjn4T2gmHp1FVZPrhX5pVt8wuy/0drsvUgr9kEKpzNzqm/JG++dlQOfGPerJP85D45eOyqbOtsxcGilvOjLVl78YDse9KyenKfHHhxTbb8uzMfrMnhZxesnXvl4K/UWm1qnebQQd+5fFyWXLq5eVl4dkmOv20sy1uV2BqKR/6iszXfvifmZd/BZbkaVbt1/ojHbFEOn9+StcKd7weyde6IHPimZavK+t4RWfsgYXO0y/FYXT8se+dNfy6duWbXbF2TrfOHZdEynv/mQVm+XLx00TYOWLertwkDvURTaf+8KYcX5oIXWasmvvl3C1pnL7zmN9ikNU+G+fvZHj+B+3LjzQ25ca9ZTTs3NuTy+3VRmvKyRvZ15UXP5JGBx0uPkg7iRz43Hdj3MulNO9H3LzKtz/Un42qs0P7EpfPH1rjIht9b088Ha3Lke4uyoHyrGi+fmJe9zx4OfLPzheblwHYs9OcODW0mWd8JTM5Htqbv3UT+u7ty/7/9mdz77qLs/PG/k52Ld+utcXO2Jm/itvPyPEBRU7xO7+a9NWm9w8oXVs13ta8s8we2PXl+4z/y76qi1D7PgCE3W9PQxmFZeGJJ1vXc3QV31uT6iaV87vnUfj33DUx9UH8N4Hyrnmd+x86P5/faa48Hcv0XB7NriPnvhH5Z1VU993TW3JGV74V9qObN+/fm83Ht8295F0m68C1Z+9H+bGyYf2q/LP3CXROpBG4sWJX1H5nrrfmn/pv897+cSz/lbfW6/xd37PWl/2sTddFbz0sU00qbbJuzPjNtTz517tujsg0wFobXI/aiKKvTZ+OfyA2vg7avyvFDizL/hBqT52Wvuu5627xUND/Xt+XqsYOy+JTTzIIsHlyWN+PLn8Amy8Z+OO35FoYpzPVIXqfI9tt116LGLnfdO/+dI3Jp25wzwTnf4NwIbXHfrOaeeUkuVV77ufPUtc7ZcFVzy+xLnbeN+Dt7qj4ZL6vo6GP6HAzjHUGeyjHLasGfu6fm1ql9WSVWJ/7c3G1nafIge6Bh/3hiW51f/rmTJzF1hscSY2Bl2/PS1JY+l1N2h8kqv7U2XlbWMrlzQpkxmTZVNjh5cLQgt3v57Q/ku6MuqaNvBFQv25NswBA7R2tzfYU9COzflwcvfVN2fnZTPvvdu/LpvkW5/15FEKkwea6HkD154pbesWX4AYnM8VQ5mKpjTczw0ox8Ero2PDEn888cluPn1+T4i/tlQQUs9i9na+ObCY27wLGDg5pEzS/K0rFVWTt/XA4/YyZMB8+pye4D2by0JkcOqAnrki730vvRJNhrhzzalOX9ZlK2eGhZVs+vyrKaqM3NycIPL4nO+dGKHLB1Hv7Fmqz94ogc2LtX9u/fGwT2t9eXjP1PL8nyKZdOlb0gS+tRlN23QW0PxcMF9hdk4al5ie2f+8GasV9EnG3zzxjbjr94QPY+ofLNBU/Bbh7br4NGC88e0exWjy3JogokPbFflite5qGaYPpK9c0+eeEXa7J6bFnWP7J99tSCLDyxV57/yaqsnVqWpacNlxdey/vG1e1szOp+6gW5VPGzZFNvPYMHrx2WvVpvtn+UHVo7ef/oC9+Fw5I/9+ImJO7n3bbj1CR8zj0ZFncm38dL4JF88OY5WTl1Qd6pCe7vvHtBTp44J5c/8O/SDWbdyL5usOqmPPWA42WChjnf8wuMRoF951+9CXUY5Mon8Lp8l07ny+tKmFO7qxX9bK/KQTUG7T0gR9QYpMapH9rx8qnD8qaVd8jG+q6yQF6t5SToL4HJ+chW9L3boD8+JTt7/0bu3xP53dlnZee/r0vd8zluzpbNvavaoOfeUXC0Nr2b91YljI5V+atKG/J5ThYQSV4vmHRZmqj6Yb+2paGrP94rcwdX7bzXBoLUnM/5zVNH5fm9au65T45et9Zm1wALsv/F48a32msAfS0S+FZ/nnlcjjyrHvpYkAP/db/M731ejp5S894l2ad89TePiquiydxTW6PXSd8rR+16Kg/sNcW+vzqq5+Pq2mO/mrM/cVDW3Jz400tyWLUpuybyrmEOrYcPPCkWT78gx9X4cWxdPlDvI5jL63P9Z8aRA7Kigs927Mx0nvEqXnNk10yNbDK1+X2m15ivs2egsTC+HinWmd/0cIFldS3T4DrIcXhirxxQunHXE+paZy4/1w3LBdn/Q3V9mdaHssrn4PrBfYbjutvrfV49Knu95Zvc9V42X9DXrPY67qbJ5x5Y2vtXR/Pr3v37ZXHOu7Hk2jhXfW54lnib1qeoc6Hy2s+ep9k8xXxfeGohP2+d/anztoa/Z1DFJuNlBRx7qNr3V87D3fzbC+yH829bRen4Vax78+ayXv/ef7jSnCfl46Y5rvx/HPcoPqRpLMqvCzI+N9dlXb+AV5Vjrw0SY6Wuy11HZJmL7cgODbDR1nhZXeXkzgllx2TaVN3i1NG2gtzq6Xv/afxUXeVp3BP/Nevt//XPxLr3VPGN97XV5rIKexDYLzM9sb9yYp1IH+1yTimbYKk5V/yETsLBZMVUHcsSNdsY+SR0jv7gqp14mnq39UQznhQ5R20nCmpw9xcS/HTNBD2W1jLjKweZLJWIXpdwbk4OngkD71d/vE/mn1qS1bsil360UAxsb6/Jknq62zn2R5fM097PvCSbfgzxwVU58s1wku9Vn28OxSMPpi/+42ZeltVFwTZ1w8SzLZv8ucHno+OyX93QWFoL+kTu2KCSd6MgqMx+cfp8/pTP0vVZHjzXyR9dlaM+F9eHkR7k6lHZN78gS1H/+PW7eisZyHVT38FVueMxENmW1YN5/5gLC6c3EbmzIgfm7A0Q7+fRehK+cFguBWX5VrE9XgKP5IONM7KyerH0yf2dGxfl9IkzsjFCUF+1YWRfN14QM1C6mVz7wSR9ztsLwXpf73yQP5mPJuze2KjLdj6x9EKjOfY29LN14qAszHt+yVZ//Sf7ZM7d8M9urrobEbbd2QVzc5tJOQ0EJuMj29B3L2nbOZs/Hy9tR8ncX/suFWQY9L/0nC76SmdT4NfcTvfp5p9eUC/tV41P8X2xK2KUz3Y0ZGw78Cv3KLRhoYLgq/6UVK9hPyf77Jz5zi9UEHdBls77iUTunFJB7zkxDwyVzLV1IH5O5haWZM3LrueHc/tl+Zai0mzuqfmpfvAeLNF98PRL2YNOOs3bR2Tv/IK88Ip5KEaPAaqNrtm2I8y1lLuB4cbA50MWdt4d/vLUpnU3SCKdN7lmamaTMjTqswb2DDYWzkl4PZKoM/s1gw3sN7wOynTjP7SVBcLdNaxl6V2bKgu2Tz0vc0/6D0tFHGwfug9zjePGdbc3/9THs+sTq7dvHpWr/vWJuiEyPy+L/+9VEdfG7MaPKWvzH1WAMw/sZ22sOTdyS/wt2/b4et1d+7k5VmHJLHveRueUW+7E+Z7Mtkr+vj1124yXdYTKdRjNp4OCnA68eEnJeBisPhGUUfbFasWNn6XjYpi/OBYaG5228tRV7TLHdB7v+sHlNazCsX3pmPo1T3Ee7/I0/WxnvGxS22TOCWXJ5NrUpN15mraC3E2X1SkG//Og/nerluFXS/kQ2M87bvJbkTNyTqnsMxsAI0uVM4mPJRxMlqvqWJao2cbIJ6GeLC7I4UtRfY/WzF3YH5oDxjk6R2gHiHii6yZmHov0RUlUl4hc+qF6msD9dLd4XOSqHP3GnPcUUJ7GTN7tZEs/wa1uEORPoLuUZgJSfCrGHdefQ/FwFxv75KXoafqAW6ltm/KSenLecrvzqwPJp3eUffrmhvdESGC7/RLUmSWwfeb1jTtk0tuLn9de0BPKRhfJroCg3hoG778k+9SE9YcrsnZePfGa/x9fUr+8sBrTgfw5yS4Odb8syfFfHPB0YtvUcBIRmcvX1gg8lNv/ckZWzm7I7YdhoQ+3NuSMCupvRQfCZI2+jezrGtVComoC9pxz52mWuMG5qM7hZ5ZlXS2dZv2Q9j2+T7Lnubq0D455+7MqB9wYq360ffnYYnyqCwA0YDNgW0jeNwLj95Fj1XeXcetzL7xwrwvQN5vfqPPWzXmHAJDyWXru74KNcZkuQLGul000wQ21JNlSYnkC41OKAZC4zMG+t6IhPXfzudnrrCiomv0CWs/fKpZ/cQ/r2AC38a3xPLOkjvNqeVRrS9O5p1v20ZtXmhu3C/L8T9bl+nbx2kIFxs0c/gVZ8ea0en77P5dkbxaktWOBP+bpLjIvbA2Wv7FacTc04if266+ZmtrkHpzx+6yBPWXSSo6Fftk2Y0En4TjZ7DqoQje67925ZtvzxD554dRV2XK/sojbULCpPkaQn4PR8k23lvUDWvnxuDKRsl9GiL1RZfJWtDE6N4o1qD2W67PHC++L2PxH9UCCu/Fl25rpvuScCm4AVNgW8E9bVr6X8bKcTd6nsbaq4i3ZnNQfl26uy9KhfGWGrE4/TbazYsP6Kjevr0gZHArm+O6Irjv2F0aLteN2FluLztuCv1WVbcrmiI9VtzJeunbXfo7/nFAmTLZNtY3OErQZ2C8G7bNq9Ebxif08qJ+tn/+diqf2CeyHQHfzm3aK2aAWWlLuMNWgGTsht75YYr8qNnM+YR3DfBv5JEw6UWWJnQzYpw/MoODaY48VnGVxfzk3v7VbZhmeQnl+GuOowydazHEzAbRBFN2ePMDilxBPjINj7stQPFxg3/FxhUX79UQnviAxaX1OhvVBWU1MPsN+yOvxt9JpbN+k9K3bbCbAWz9XT00V2+GXX7adrjdiYOuquvA2a+hbe+3FnL55o7SoL85s/9rgf+omTpmN7B8XgR25cfG0Du67B/MffaCC+qfl4o2dViod2de1YgWFaC0ZNokAACAASURBVAKFMazCv1hkKkC1fNMP2LvJuvu0L1u3Pkr7EzcmaL/hAuXD9UGb+nmwfUeub6hl3o7KCwfzNZXdhYfxhc7eejbDtYhc/SIwXh/Zpr57xdWbv9TabQMQ7jytTm/PW+eDqhMnjsb5jZ+LgzFZRmWbrsvkK02nMzRJk5XceKMNDen5eMDMtHuuMPf091tW7un0wOKQY3qe6ZflZdbasPPZxnPP4jrpsn1JjtilRtXcdf6pRb3sy5vZGvu2/rKHwtR+/ZBU2BbPUrvUTn7totvpL/UT6Lz5NVPVXNvYJFLsM7f0T4U91vhmY2HxmqJYp2Xjj/8lDzHlGrA3Lwo3jdx1tgvsq4jVil3+ydwEnN+7X5aOrcl17xcWRZuuy8oPX5AX7P/B/WrJp31ywNv30mu2gPimQIOHpEw7Utd6RoPGBzQ/NwI9ZV9CrtlutaE15ZYyjc+h+LvL6e8fgL/L3viT8bISVeAP3HW2m3MWc6oYgx73dL7ydDpn4zSj3VDX+g/GCmO3jocE44XRXO24Xbgu8a83PCY6XQ0DL3nZZhvjZVnZ6f3jPSdUnZNvU7ql8d42A/tNgvN58N+uz2+D9SrozxP7ce90+LtyJunJdPnAaAbm0LnpMuwFRPmkqjjRGQbNyCehduApW8LJRD6RUlbaYwWHXNzvB6xVTv09mvwurRfzFVkYx54K7JunHqyT1u3JJ6NBOfqYGdzSdriJzqA83KBazOdzM3a2Fdi3k6uApWHg15m33zIOBkt71HJRAfV03ryU7CmrxvVGZXp94Jea2tbBfP0rDnMRY36ybSa8+3++ZZ92seuPpgpg34QJ7Mg7F07KyrnLcnvrspw7cVIuvNtOUF81ZGRfN2Eas1Wd8Ufp8TMkoX2MGjuUL3D+yPoFNV66yXuWTmXXx0ebiLeinzjAs3evLH5vSY4eUr+yimx3y8O58dK1NcTBt5kiMD4f2Yq++9gXA8wp3DISzse45ubzVDNPyv1YWUBB7W/ij+w87dCyfgo/83eu4uSnb4PNH8y3wuuN+BojbluyipKdo2vogV5SMZynOwb52ummen+/nZ9OILBfyydaJ91H9eD9N+X4Tw7mL9HN3tvlt8XPEW/bdhaundSLcM0yovt+ot4IYNP5y24GOq8oJ6uyqU2pPmtgz0BjYXxtlKrTtsmOk+ZaJBX09q8p7C+5mwT2NZcHcufqmiz/8ED+Et3svWUpmzKYesPYlD7v9fXdN45Ktjpt0F9hOe5beRtNu4wfslzqzo1UzEHrLOTq6taf2kZ3vRzrJf7ucvr7B+Xvymj6yXhZRcroZ1GW9Vrz8TlWklP3uR8rqB5PgvFl31/Jt9xYdGjdxHMazWuNZmLfq+1P+UKl5WB/Or9uodceM75H52fqvMh+QVXCqOHu0cfLhhUFycZ3TqhqdqdNQQOTX9oM7OdB+2RVUnxiP0/XaCkfntjPge3uVoXjcJOsggOzA6Z3QZ+1QTuTEkdbdSwroNnGyCehdorujr1Xp12KZ+HvzOtLswFE/3TJtjtwvCpvcX9+wWTKLguol/6s9LUXZP7JRXnpaltL8ZjAepkd4RMMTXn4E00vjyKilp1wT8BXLMWz/MwgS/EsydojO7lyg6z+9AfrWHu2b7L1H3M7jY02QF76lMkleUGvC/n/2Rfl+JOBqnojBvqiKXoBbm5KuKV57ZWjG6tyMHtBrpl8zy2tydqhOZlLtCcshG+TJWAnHSvtBvVVG0b2dZMFMUW15eNcMMkPfI/vD1Lb+WS7bDJv/FBJOn/yPiTZNvRjlkJblCMbd7IXoitzzE1bAvtDds2MZRuPj2xD373sCO0b8nOvsg32Ij8MMJi5lB9EywP7bv6S+yVd/s1NWVbzj8IcOFG7tc+/8ZdI5e0y/ta3wTtoN5ukKeaq2zOyhtS89In4esLOVQvXT/7+iiU93HIjNngbzKmzBvllZTvtDWE7F24499TlN5hXPvho1bzfS6e11yd+YNczI9+0Y2mJbvT4ol72m9JppPPG10x1NiX7zFhcZc9gY2F0PZKs07KxOtFPzyde4KssM3Wr66AK3US88j7Itx6885J+Sa2+zk3alKdVW/EcxT+qrind9bLeX7oUj3pQaV4WllblNyUvTR54KR51bljNBHM0rTPLNaFpsxSPezgqPofi7661/v7R+LsSqz8ZL8v52L5Vc/ESn1LIq8+LaDyLEzVJ4x7ULPj1uDD13WgmHHft+dTI7nR+VbI+J10ZJXarNNXjacrm+n0jj5f1VZSkGM85oSrbvTaVNNXubiuwX11L/VGe2K9n1J0UJQ7BGBhOOBoZXRW8rzrWqPA80cgnoW538UWtm8fMi6zc2vtmQuMmZ5aHc6aZOcX9cWA/SxptpF8EtS1rS+qFuWbt/asvqp9BLobr2G+vy9JTKpBkByp3EVD28tynjuRPVEQ26K9D8XATPscnLzjg5myLXp6rX0zrD8zuhUplL8/9ryuFtRLzGstscROAiN+DS3JY8XPrL5a8PHf7/JIspG5geRUHbS3db18oFb+QSWxfP3lQvyhZZ9cT7TnZ/6zSYv7kjl4uaGGf7Fso+4WNVzmbkyfwaFs++HBb/PeFtWHEyL6uDSMoo0jAXlA2nThrP1EYO8zE3S8jSFc5PhdNSu0ZXT/Wh8bvlnl0x7z42/OPxhe6iyebr9EFUMpy9k0dgTH4yNH13VPKds4WBw2SrbG+Kkgb+BZzrvp+yD2wYvL4AQazXfkUvrVNlZc9TFLrB1I2xK1pkibOU/99ZA2phzEK78oq4xTuz17CWfKC0OdPmCVP0vPMsKyspZq/m5c3mXuaQGWh/w8syLybI7vCH12VI+q9XzZg6tbhj1/+q+fOT8zLwTPqrb52LCiMf7ZQ/TDLoiwdWtQv773kT6IinTe5ZmpkU7LP6uyx7Wg8Fro+8Mot6MSW6c6PhtdBmW78l7fKdjgmP1iXF/bOy8KPopfJba/K83M2IF/FwZodjut2p/5ILN/kXtYcvzz3fXMzQWvszoo8/0TZ9Xd+fZO1sebc8C3Kty3XsmvnTNfxORR/dyWG+zPbqvi7rMN+Ml4myLl+XZJ1O65lDxEmUme7gvEu2xtuNEkzycB+aty2Futx1fqM7JohS2+0unhsWT+QmPl1fTzySSGBRt9GHi8b1VKSaAznhKppV9tU0lS1e9TAfqMn7RPr5sdP9zcqhyf2K3pyYofcyb9ZUmPdcedg7ZOKyslUOY6qYyUWlO0e+STUDnxBFp6al70Hjsjx86uyfGhR5tVk59C6qKmo+gsn07a9hclpcf+bf2fWJFz6xZpcej/10ilbwaNNs87+3ILsf/G4rJ1flaN/pV6mOif7f277xQXx5xdl6diqrJ066q2Z6IIoItvrJgg99/SSLJ9S6yAfkQN7Vd8syFIw+bB1+x9D8Yj55AWG3ES2zx3UbOefMbat/uR52fuEenFweMfd3FiZk4VnVZ+syeqxJVmcV+n2y3L0gt68NrMV12n3mp+CqxsIMb+ozELdzkZ1QyKuzPuerrfIJuuf+UU5/Is1WTu1LC8csH19zK/BPp2vbN6/LFuuLn3xo/pznxxVv1rmbyYIjOzrZoLShBtpJ9D+U2LZ5LnEFO0norHDBL1yH17I2vBCo5DP29GGfsx4Nid7/+qorKqXJKqx5RvzMjc/z1I8Hms2J0+gDX1P3uoWatS+Ydgn9u2c1QUTbeC11IfFc3f9PeG3rE3ZAyeumZ6/LK2jzgZdlrG7vAxX4WCfo2pIL59YWDIkDATmFkX7E9cA7lpEzf82bZA7Pc+MynKV6H7IAzi1c0/90lK3NIkrRGRTv3tqTvYeeMFcU6g567Pq2mZBXnjNXte465O5eVn8kbmGUUu+6Pl9Zn/xGimvRW2ZALEaTwtB6FjnCV6l10wVNqX7zFlVbs9gY2HeB6rkdJ3xuaiuHdRDPTXXQY+uytGn1bXRXv3eg7Xzx+Wweh+CuqbKbrY/kEs/VP01L4sHj+prKvV+nOd1vv363T9pmxyHms+S5ZsyvWXXoofNddxTL8gl+w4110Zz/b0mx39krr+V7dn5nejr1LmRttJyfWpBFty1n7smDq794nMo/u5Kj/Y34u/ydudzVF+3ey2x/enrwxqT3Tx2DzqmjNR+JDFm+WmbpBlzYN/4eRtTUzGAbIwODNUBe3PT3XDR50xmv9GqPh6M1UVf45fadLu/GipvYVfbNGpgv7zF3T0y7jbv6W7TR7XMnuBRoMEv1TmY4CkflSCbpIeTFp1XH0vsz/KVHPMrbrA98kmoHeCiLL99SY48u6CDznPze+XATy7JHe9pkXAyXcYssf/9FTmoAh/KMeuXR1U06tGWrL14QPY9aZz5/FP75fD5LJxrMt55U5YP7pN5HQyfl30Hl2X1f6jlbsKB6s7l47Lk2jM3LwvPHpbV6+42RYUNQ/EoBq9dDSE3s3fr/GHZ/5Rl8uSiHD5/SV7yluIxqR7I1rkjcuCbNt0Tqq1H5dIHruTyz1Sd+ZNCL8narw5axobLWvYCsLzMrfNe3fMLsv9Ha7Ll6SFPmW+l602z2X7b7585US+yOnxuK1jeQpVsfo4bLd1jl4maq/uJcW4aW1NAYGRfNwUMutME6+vjiwvtP43/zi5KI6O1n/DHW+dz9TJvUWL3VacJfbw71PSzFf2oMepH+cty1UsUD/5kXbZurciBuTkx6yM7n+fstaySFyZNrScdBKoJtKLv6iq6edT6nML8PGWtnbOXpzXnaqXviuaafjVZYMX3b34Ct51dO4QPdJjD1TY0T+Mqa/45qobUkpIHfuW9jVRXHQUCM3MS+x+E1wBzT+6Tgz+5FMw90/PMRFmqnsTYUjn3VOkXDotZgDQzVC22JtdPLHlr68/J/DcPyvLlqK3bV+X4oXx8mHtyr5k7Z8802bGgQh86wJwtPenZkNJ5k2umSpuMPcU+y+sttWegsdC/3i2r07IJxsmG10HbV/Prwrl52XtwWa6eWvIC++qdAXfk0k+8tfXtdaG5/imzKedQtaU1mVjqRuUJ9Kav45blanApqtqYXxOa697j4RPGqqAG50baRsd1TTaza785mf/Okqxcz4SZLZeSB1BLzim7rEqeTjWyAf+0cbu2d1RfN3HDvTGjfPwyVmXjUHZjy7NW+xE3N/X2+5tN0owY2K+00belatuPs2mblZ9xelfvdDEa9nnpep9ZlnW9THINh6q6O/x0e43ZlYe7el6MO8hdCWWXDo67zdMZ2HeOMphkWaegAtHef9lEv9DfdvLl563cDuoulFa7Y1InYXoyXWseCRoR2JSX1JMjqRdANcrfJJHV9Yh6a1ITaSAwDgKT8nXjsH1qyvTHt+ACPGqhG1sTFxZBYN+W50+8o5LMV52OSXiSDTshMKUXmY061vdJ3py9at5d6W9qykvldUGKxtcJWcO8643Mn5p91WU1SZNV0niDMbYxKhJ2ncB5Fdg371TruqlTaV/H+ffG12Vz6SHmv9lY5t1YazKXbpLGBfYbjrlqPHZjpxsv9XdnYzb+NT8b8msJO46qMnR5rr0lgX2Vzr8p0LzKIGVvNBRYXf2lq20ad5C7msruHB13m6cusB84lt3ps1ZqndRJaF6yo15W1IrZs1nInRU5ML8gB/6nv9yMuiL31lwcGxk78BHYHxthCh4vgUn5uvG2oo+l2ye31AR+4Ml38amvfDJenHT7dMzNZO8G+8B1+6V1d+3I0Eq+QWA4AjPrH21gwAUNKunZIEmjtJUFjfNgk6B9kzSD2zizGhocFTk6QkAtCTS/97AE7yNw7+wqrOPfEaOnyIy+8p9ZX9ckaN8kjQvsN5qXR3P9m8uyFCy7a+MTA9wkWDz2mlleWNWv7C2JbRSuI+Zc0H/0k3AaNdTVNo07yD26GtovYdxtnrrAfvtdsDsljv0k/OiqrJ1floPqBavfPCosaT5KP5sXc+VrQXpr5z+1JHXL/49Sc74UT/U6+aPVQW4IjI/A2H3d+Eyn5A4QQD8d6ARMGBsB9D02tDNTMBqama6enobad26595apNfaPJN/ZNT1N7lRLesofX9cpFfXSmGnUUFfbNO4gdxcFOO42E9jvYq9P4OfX26eeN0sSPbkoRy4FCwN2lEjHzVLrJP5ov+y17xGYU+vXHzoub0ZLdbbfCp7Yb58pJU6SQFcnHJNkQF3DE0A/w7MjZ/cJoO/u91HXLURDXe8h7EsRuHN5WQ4+Y98RN6fef3BAjiTe2ZXKy77RCfSRP75u9H6f9RKmUUNdbdMLF07Jw0ezs2SIaqtq8zj/COyPk+4IZXf1JByhSWSFAAQgUCCArysgYccABNDPALBI2jsC6Lt3XdY5g9FQ57oEgyAAgTEQwNeNAeqMFTmNGupqm/7p8qvy64+3ZkZhqq2qzeP8I7A/TrojlN3Vk3CEJpEVAhCAQIEAvq6AhB0DEEA/A8Aiae8IoO/edVnnDEZDnesSDIIABMZAAF83BqgzVuQ0aqirbXr7w1vyDxsXZuKpffW0vmqravM4/wjsj5PuCGV39SQcoUlkhQAEIFAggK8rIGHHAATQzwCwSNo7Aui7d13WOYPRUOe6BIMgAIExEMDXjQHqjBU5jRrqcpvOvXdVB7zV0+zTuCyPapNqmwrqq7aO+4/A/rgJD1l+l0/CIZtENghAAAIFAvi6AhJ2DEAA/QwAi6S9I4C+e9dlnTMYDXWuSzAIAhAYAwF83RigzliR06ihrrdJPcWulqhR68+rl8tO079qk2rbuJ/Ud6cpgX1HomOfXT8JO4YLcyAAgZ4SwNf1tOM6Yjb66UhHYMZYCKDvsWCdqULR0Ex1N42FwMwSwNfNbNe31vBp1NA0tqm1Dp+yggjsd7RDNzc35bPPPuuodZgFAQhAYHQCyscpX8cfBIYlwFg5LDnydZ0A/rHrPdQP+/CR/egnrIQABIYnwHg5PDty5gSmbbzkvMj7dha2COx3tJe3trZkZ2eno9ZhFgQgAIHRCSgfp3wdfxAYlgBj5bDkyNd1AvjHrvdQP+zDR/ajn7ASAhAYngDj5fDsyJkTmLbxkvMi79tZ2CKw39Fevnfvnty+fZun9jvaP5gFAQiMRkA9RaB8nPJ1/EFgWAKMlcOSI1+XCeAfu9w7/bINH9mv/sJaCEBgMAKMl4PxInU5gWkaLzkvyvt5Wo8Q2O9wz965c0cHvtTdNnVy8gcBCECg7wSUL1M+TQX1lY/jDwKjEmCsHJUg+btCAP/YlZ6YLjvwkdPVn7QGAhAQHRvhegIltE2g7+Ml88i2FdGf8gjsd7yv1J1D9bMgteaXevkF/zBAA2igzxpQvkz5NOXb+INAWwQYK/GLffaLznb8Y1segXJiAvhIfKTzM3yihWnQAONl7OX53haBPo+XnBdtqaB/5RDY71+fYTEEIAABCEAAAhCAAAQgAAEIQAACEIAABCAAAQjMMAEC+zPc+TQdAhCAAAQgAAEIQAACEIAABCAAAQhAAAIQgAAE+keAwH7/+gyLIQABCEAAAhCAAAQgAAEIQAACEIAABCAAAQhAYIYJENif4c6n6RCAAAQgAAEIQAACEIAABCAAAQhAAAIQgAAEINA/AgT2+9dnWAwBCEAAAhCAAAQgAAEIQAACEIAABCAAAQhAAAIzTIDA/gx3Pk2HAAQgAAEIQAACEIAABCAAAQhAAAIQgAAEIACB/hEgsN+/PsNiCEAAAhCAAAQgAAEIQAACEIAABCAAAQhAAAIQmGECBPZnuPNpOgQgAAEIQAACEIAABCAAAQhAAAIQgAAEIAABCPSPAIH9/vUZFkMAAhCAAAQgAAEIQAACEIAABCAAAQhAAAIQgMAMEyCwP8OdT9MhAAEIQAACEIAABCAAAQhAAAIQgAAEIAABCECgfwQI7Pevz7AYAhCAAAQgAAEIQAACEIAABCAAAQhAAAIQgAAEZpgAgf0Z7nyaDgEIQAACEIAABCAAAQhAAAIQgAAEIAABCEAAAv0jQGC/f32GxRCAAAQgAAEIQAACEIAABCAAAQhAAAIQgAAEIDDDBAjsz3Dn03QIQAACEIAABCAAAQhAAAIQgAAEIAABCEAAAhDoHwEC+/3rMyyGAAQgAAEIQAACEIAABCAAAQhAAAIQgAAEIACBGSZAYH+GO5+mQwACEIAABCAAAQhAAAIQgAAEIAABCEAAAhCAQP8IENjvX59hMQQgAAEIQAACEIAABCAAAQhAAAIQgAAEIAABCMwwAQL7M9z5NB0CEIAABCAAAQhAAAIQgAAEIAABCEAAAhCAAAT6R4DAfv/6DIshAAEIQAACEIAABCAAAQhAAAIQgAAEIAABCEBghgkQ2J/hzqfpEIAABCAAAQhAAAIQgAAEIAABCEAAAhCAAAQg0D8CBPY73mf37t2Tra0t2dzclPfff59/GKABNNBrDShfpnya8m38QaAtAoyVzA+mYY6Ef2zLI1BOTAAfiY+cBh9JG9Cx0wDjZezl+Q4BCMwyAQL7He79O3fuyO3bt2VnZ0c+++yzDluKaRCAAASaEVC+TPk05duUj+MPAqMSYKwclSD5u0IA/9iVnpguO/CR09WftAYCEBAdG+F6AiVAAAIQMAQI7HdUCerJGhX4IqDf0Q7CLAhAYCQCyrcpH8eT+yNhnPnMjJUzL4GpBIB/nMpu3ZVG4SN3BTuVQgACEyLAeDkh0FQDAQh0mgCB/Y52j1qqQt2F5g8CEIDAtBJQPk75Ov4gMCwBxsphyZGv6wTwj13voX7Yh4/sRz9hJQQgMDwBxsvh2ZETAhCYDgIE9jvaj2rdOJ7W72jnYBYEINAKAeXjlK/jDwLDEmCsHJYc+bpOAP/Y9R7qh334yH70E1ZCAALDE2C8HJ4dOSEAgekgQGC/o/2oXgzDHwQgAIFpJ4Cvm/YeHm/70M94+VL67hJA37vLfxpqR0PT0Iu0AQIQqCOAr6sjxHEIQGCaCRDY72jvMjh1tGMwCwIQaJUAvq5VnDNXGPqZuS6fqQaj75nq7rE0Fg2NBSuFQgACHSOAr+tYh2AOBCAwUQIE9ieKu3llDE7NWZESAhDoLwF8XX/7rguWo58u9AI2jIsA+h4X2dkpt00NqRfx3rp1S65fvy6//vWvC//Xrl0T/meDgep/pQOlB6UL/iCw2wTa9HW73RbqhwAEIDAoAQL7gxKbUHoGpwmBphoIQGBXCeDrdhV/7ytHP73vQhpQQQB9V8DhUCMCo2pIrV2tArjnz5+Xs2fPyqVLl+TKlSsjBfBTNwXYV7xR0mUm6gaO0oHSg9KF0ofSidILfxDYDQKj+rrdsJk6IQABCLRFgMB+WyRbLofBqWWgFAcBCHSSAL6uk93SG6PQT2+6CkOHIIC+h4BGloDAKBq6efOmnDlzRjY2NuQ3v/lNUC5fIOATUPpQOlF6UbrhDwKTJjCKr5u0rdQHAQhAoG0C0x/YX1+SubklWY/J3VyWxblFWe7o3IPBKe4wvkMAAtNIAF/n9eoA49L6oTlZKgxsIqLLKDnmVVW7WTZ21macbAL0MyjvdVlKzYkGLYb0EyGAvieCedcq2Ty2KIvHNsda/7Aaeuutt+SVV14hoD/W3pm+wlWAX+lG6Yc/CEySwLC+bpI2UhcEIDA6gY9Pf1/+3b95TPbseUz+4N9+X85ujV7mNJSwa4F9FZSYO1SMSrQ+yS0LTgwQQNmNjmZw2g3q1AkBCDQh8PDj67Lx6pqcOXVSVlZW9P/JU2dk7dUNuf7xwyZFZGnwdRkKG5RvcsN5U9YPLcpc4uZ02djq1dJoc/PmsizNpcfpRgUEiVQwec4GsDZl+ZkWbjzY8lvXj5ozJOYmeXOU/TV9VFuGiFSlaTo/KZvf5MYWt3SeOZl7ZlnGG04sVs2ewQm0ru/BTeh5jgbnq1SnaeZTjV8bLEhv8szNtecPU501jIYuX76sl1hhWZUUUfbVEVC6UUv0KB3xB4FJERjG103KtoHq0fO0mnlmgwJVTC35cGuDvEMnaWS7uSZIPpzUsGLdNj2PHWbsbVgJybpJ4NXvyxf27JE9/v/nv198iLub1o/Vqu4F9teXZFEFE9xFp336UE18K/91euMoKtPVlWOfZNMT+dq0JTZVBgWa9efUDE7NmksqCECgDwQefiRXXjltgvknTsq5ly/KxVft/8vn5OQJE+Q//coV+ahhfH/WfN1IY4s/NqrYsLpB7gf3XdC2duxK/Iotob/2LgrCwP7muvrFXDs3DdrXj51HlIzjBeYpbvE8ppDGzVXS/ZBfsBQyhjt0f6fLCBNG36xORrmoikrk65gItK/vMRna2WLrg+fGz7kbj3FDzLlaf64MG1yw9rlrnrj6Fr4PqiG1dvrrr7/eQs0UMT0EHsrO1g25du2KXHlbvRz4htzeqZ/kKR0pPfEHgUkQGNTXTcKmoepoFByvL7npHN6NgcPGz/zxUc+R68azNtoXzH+bjtP1zD755BNZX1/PHlpzD681+VT5VH7+xktg/b+oJ/X3yFf+Vo0tN+Wn/14F+R+T77483nr7UHp1YP/i38i9+R9L3dBd5hCqnlzRJ37JhbPop2eaP8Gi6y9zIsGJ73VJzRNx1fZ55USbw+aLipGpGZzihvEdAhDoJ4F7m/LGWRW4Py1rG5uy/SjRjEfbsrmxJqfVU/xn35DNe4k00S58nQFixrFFvUTc4jNlQaYInh0rzVjbcGKbjYkuuFxyg7r25oDK1zSobOoK5wRq3+hPJI1FP5pRsQ/0+N60zbaM7CEFr+uqyykGCE1600+Lx9b1Lx7SF2CuP0btW1eOZzSbu0JgLPrelZbsZqUVwX378FDomzxbM39p9wUPGy3JujvPE/7SlVl2jZQ+h4v+2JXjWTXQ5iAaunPnjqyursqnn346UB0knlYCj2R7c0PWTttfZp4+LafV/yn7EMf5Ddn8JDUZNDyUjpSelK74g8C4CQzi68Zty0jl63Fl9PmxGXvqRAi0KwAAIABJREFU53OVcbTKhpi5ZhbYrxgPzXhnbNFz2rK4naqvtpziOJmPp/XtrWqSCs7fuHGjKknpMZVP5edvvATWn/8jL7B/TV78KoF9RzwZ2H+09pzc+8aS3D+9JPfm/0bu/+w52Xn8Obl/32ULP4sOoXhhGuawTxoGgf36PHEZ7nuxfnfEOYfEST5sYH/YfJ5JTTanZnBq0ljSQAACHSewI1fOqwu5M7KxFd7qfXR/W7bvhxd2D7c25IwK7p+/Ijs1LcPXeWOfN75UjmsFpjZwFYyphURmh54wJ8ZEddQGrbJJekkR+W5bbyKolU+yqybgLlg9/KIwrelnyAuJKlaqDxcPLcu6/y4fW09pPtsHGb/s4ie6gFKd4Pelvy2JtHmnVW8F5VQn5ej4CbSm7/Gb2vEa1DmxJEvBRbf1X9k5VmyCf1NNnZPuvC36Z8+PBzdcRYppi/Wk9/hlplM02TuIhtQT1k3Sx1wyf+XGggqmuc3rEnRHfiC5petMjHEFWxrVnawiubOs3mTixM6CfY6R+xzR3lHtS5hsdz2SD948JysrJ2Vt44bcDad+8vC3N2Rj7aSsnDgnlz8I54B+mUpP/ALEJ8L2uAg08V3jqrvVcvU8bHcC+3q8avoASzDXNPPO6qUsFSWbzvk//9P59ybz0CZphugU9WT+KH+j5h+l7tnI+7H88ptfCJfhUUvysBSP7v5kYF9+96E8OP33svMfviz3Pv/HsvOXfy/33/lQyobt4qTVTUarnizzL/aV83J5Br/AL6vfTcCHEXo2UdKOw7e1bNu7C+kc0zAV2zxucDIONq+z+OSO4ZZNqhMTxHhSWcWlyLKsEfX1hrY3G6DCPMUnJpU1YZpm5ZpWqMEkkb40kFLWdm+/zpsKkkUD1wCa0O1LpV9f8ioefbNeF3V9HLWxZiKQnVO1ptfVW3c8XUGom7S2Qiapfk2XbQKixfRhefY8TvVtothSHcSTooblqSrKylT7q/7uv3tBTq6syNqVOEx/V9765xVZ+ee35G5UwM6VNX1BeOHdkjvCNr3zdVH2mfhqNOn5JO1P4u95MKkUihqnEr4/mb5qMmzHu6oxIllm7U57zg6g1doibYLW9FPGJe6TzDDj/wJWll82HvsXLDXbrpyqc1T18bpeMzWfExTrUvpJ2JbZXbNRxqEmG4fHQ6A1fY/HvA6XGs0Tas6/4DzKfKk6jzx/nLXWnV/mM8gb13NovTeB/bt378rZs2ezVjbeKPWRVSU4hlVpwmOFOaSut7ikm5l3FedjYWnNvxXqbZ61mHIoVsVi/D2t2ucVvKPnfafl4o143uclkh25cfG0rJy6IO9U/EJT6Urpiz8IjJPA1IyXeh6WGnuq6BV9qrnGyH1hE1+h02RjYFV94TGTT/3quGx+auwoXPeoUH/83k03Dy2dUy/Ksl7S02Ok0rZwjTFqYH7U/CFVvgUE7q7L9//ULMOz5/e/IF/m5bkBHvUlHdgXkUfv/Vh2/vjrsvPdP5N7+16Sh78r5M126JM0cAJmQl0MQmdZiidx9ISLW46ndMLs1Zeqf/PYklmT36VzE8BSh+M5h5STcabXTMoKzsnlG/BTDU6xQ3Z3OX2uoQMuBk/C4zVPZDpGjlmFzWG5xXoLjruGm6qqcXu9AHIxT5nR7gIs7OfUE6ph28rKy1kWlqOwHPN+MnXn38vLNO0pXqi4n6WV5xzsSKGN1mYXXFKlhWniPi62qbIv3ODcYNCtrtfa4WlU1+t9T5Eo2hbbXyw3tCNVqt3nzhtPl+aIKbNJv8ell+pgDNoydVUF9m3wfvUNuR0bKh/JxpkVWTmzIR+VHUsE/f2kUzMR9xtVt23Ph4I2dP9GPsqdi97Tolqbbizzzyl3nrlj2adXpk6TT/QDU/UxL21wcJQvsf8Ypawwb2v6KeNS0iduPPZ9ZmhZ+K2ZPzF+qVBmmQ2+zf62V3XmSzItVF90eVnZLCVwX268uSE3KgJZftadGxty+f3qG5x+en+7NX37hc76th1HC+dZxEWfO4m5hT6Xfb+r8/njvb/tF2rO79LrGu8cLYwNfjEDbjfVkFoL/cqVKwOW7ubCg44bJb6uovaQe9WYUnWsooKSQ2G9JYma7i7z5U3zJ9K1al9W/m15Y3VFzvzLB6UP9WVJH32g54Gn3yjOEF0apSvW2nc0Zu2T8bLY483HgvLxIpzHm7le1b5NWT+kXqZb5aut7/TGovL6zVwyHEdzv678UjaOZfNT127fhsR4maUvksv35HW5+XhWX55o4K1RA/Oj5h/Y4FnJ8OufyvznzQtzH/vT78v6x7PS8MHaWRLYvy8PXvqm7Pzspnz2u3fl032Lcv+98ouS4uQ3cZJGdhUnInGe+HteQFxf/D1P6Z30VZMp7UB8J+PfPTR2NHVsxXbl1gyypSbiy4l1loO2ptoU7PPa71WettHyfmax/snPoA5bcLAv3Xfa9sLFkDOsIo+7sNJ1xE+vptvoStWfun/VC5nN+tXL3rIIAU+XKWiL2xl+6nxzc7KoeEUBXc3X2WyzJesJinQ6WxS1vnZ81zndZ0EBA3xJMwvqSDHw9yUH3XS5ZsBNt6tgtF+HO+jv87fd8dp3cjTQVsIHmJs+oV/IqrQbVTpwE41w0hOXEH9voINWtZVmE1j16RVZW1mRMxvF0L1UBvZFPto4Iysra3KlYrnepkGHwKa+ftH6Nee3007d2FI8nmsyOGcVk9R5GZ0zpt5w8p/hdL6yblJf6sezkgobKb9YSDTEjtb007TtEZum53ej9jt9+HUcWk88CGFB+f3tbw/AUdtVeaE3QGEzk9QuUVHzlKrCoZ96rVmqogpba/quqmTWjtnzrO7cNeeGfyMs8ZRgxs4fS/3tLEH9hjv/h/CvVYU31dDFixflww8/rCoqfSwaY7JErj3On2XtMnPFbGxz++P0Kp875m5wu+9ldWaVhxvJvvSuBdx8LbPJm9frvIeWw3ebODuyatzczemlZIwtsbvOvni+4AewjH35us6uLD9NZmbTjfcvysmVl+VaNne7LhdWTsqFd9XT+zvyzoWTsrJ+PSvt/tWXZeXkRSlbmVrpSumLv1kkwHg5aK+7871ujMrLtf4n8kvF+b71vdF1ZF6OOT607wj8m7FJt8HNT9XnM8uy7Af9g+V8rCUuvb2+z/2y9a/Wfuf79Gdpm/LWNdkaNTA/av4mNk53mo/l7MF5+RP9NP4e+b3Pf02+f/Bb8uXHTFD/C08uC69jL1dASWC/PEPqiHNA8YlnHIN3YnuZ3cmY7zLpcmcSf/dSqp+ieyewrt87yfMy8jyVQbrMgeTpi/bZY4HTytO7rdJ8LkHDz7KJuN/WZBCnNsjp37TIjXF2B+Xnh8OtBC/3CwszCJUEeK1DH2SxpcCeZL2hacVvnv5q+i7LG6VzbLLjehCywbWCTeW6zfMn+sBjU6yvWZl++cNsB/UW2qVK9FgmK0j1e257UH4yf0lg0q83aZfhmTzvy+pxvxCxfiPQWUWe8JBqb5kOmj3FVmAysg5y3pmtlWWm+izLaTY+MuvlX3g32q+/2if2T56Rl1+9KBfV/2sbcuO3Nu27F8y6/Kl7AjZJma9L1TZN+5prLtGnFkRSP15AQieL/FlVvfpYnD+Abmzxgy3FgIgLbOSfalyoqjeoYsAvremnxLeUzx0anDteW3RfefMW71BxM7DFMrfBsWYvzy0WWdzjyi0JQBUzsCcg8Eg+UDcuVy+WPrm/c+OinD5xRjYq1p8Oikx8aU3fibJndpf2ifFDImU0Iv+rz03n25q9PLes5GC/LXfQeUxQRsmXpho6c+bMcC/NjcYYbYZtTx6YMv4yHzti/xl/d/PBvJ+C8S7wkSUNt7uLY4/1fZk/jm2zc3TvulJd38ZtyfvK5M+/p36BbI1JsKq1L25rVIbPRW9XjuHVrNzRj948IytnL3u/xHwkH7y1JidXTsqZMydl5dSavOX7tY8vy5mVM3K55ClK9RJdpS/+ZpUA4+UgPW/OY++J97rM2kfkD/245Kk5vdnn+zOX2l23lhzzkpVuat+UmFNGPkzb4G5CRP5MlZ37xGj8DY7lY0T2K4REWaW2lhwYNTA/av4Ss2Zk90356b//veL6+WoN/T2/J1/74Ubte/tmBFRpM9sL7GcTJFWXfyK6n/6EJ7o/ETHW+XnyMuKbBdl3rz7fAWRL8MQTm4qT3Ti5tH3OuWb1uidP4k9/AuicVSn2+gPpibidjNry83b75cUc/WNquzgB9W8QpMsMy0in8ev1t/O8Kc750dRWSXv1AOEurIoDWaokva9CA36egeyMBivHd2nd2u50MoAmiudG4kaAb3Ar26Eu6vs4UWliYuGXk2pXXIqfPj/m6SnZh6FO8nxVW2EeZ5vpe6et0CdUleafQ1m6QKe2zJF0YPqoXW15bDPDo43bb8jplRVJB/YfyfV19VLd8H/tbbuWqg7sn5aKX2g3elFfZNFUfE1rPdW08j5yus1yFfyRm6jnfrKqXl2eN7Zm5WYboZ/IdnsbZeWbc2uAc8ors2ozPVZW5Sg5lmKnkiZ9jjrgzseS8qLd9Wy9DCW2qDL84FHgd0ryeKV6m9b/xfMkLwWbTQg8lNv/ogJgG3I7frGkeoG4CupHLxtvUqqfpjV9+4XO+rY+p5sGL0r8ry7D92d+On+7AWx97kbndoNsTZM01dCJEyfks88+a1psni7hIwtjk0od+Kgm/jNME5Spyqocq3LzUlvBOBXYVUyd8t31tpRoIMGqWKMf2Kq4SWAzOlv0Z0s+Xf/a8sI7kWnb8taameutvbUdHXtHLqyckeQPO0W0rpS++JtlAoyXzXrf+A4dd2ro45wPiMtPz7uNX036TzsW1ca8XGxDfdrrWuN/3PVz+ae+QeqNn4Evtg3I21P0o0F6a282L67x5TGf1PdRA/Oj5k/ZNCv7dn71LXlMvwj3W+JW17j582/JF9S+x74lv6x63cusQKpp5wQC+8oC66S8oFZ+0joL45M3/u7ShRMeXXr0BH/ygrtiMhU4CVtN0T57IFGOn780X25+o63URFyX7U3a/HrzQsu5Zf0QDBThxDldZl662kqnCevVadzTzDq7HUg8+8NSi9+S7fUGkcyWoJ5iOdmeRN9lx9yGHSTyJ3PcgZLPwiDi2pkH0pwe3eBXUlK2O6kha1eWqNUN03f+IN+kjwMTNNvowjTinWxXUEgTbRVtNReL+eQiKjL5NdaW+R7aH6dJFuR2FnTgLsZ8HVjbPT/osqc+i7zGoy13rqZs0Pv0k1jqxbnly7GV5X30zsv6if2yp7hUvpSvKytvmvYb7uWT33hinU1cPQgFjVg/EefNnmYp9d+q0Cb6NBpM2eLMSvsOF9TxzweXY7TP1vRTyq66j7KxYsj8fl8t/Wo58eIxx8z0T1afwpbwO01olvZRk8ykiQjYl0ee3RD3AOujD1RQv+6lk1ExJV9b03dJ+dO52/oyP/gw6PYzy/JL9UK/OJ8bv9W5F8ylTZ1VvjHN2vjU4LxOJxx6b1MNtRfYL2Oh2ur8WVm7i33n2ATj3TC+L/bRtv/q/GFQr+0Ff1/VWF7QQzQvDjq1xL7sGsJqMS5T2+J0GmgyKH2gL3ffOqffnfRBlssuv3NqTV5/zTy5b5blsQmUz1s5J2+VvB9X3TAisJ/BnOENxsvaztd+oGrZt6gEe/3t/KR/1Pgm/wa0Oep8ViqPn7962/pqNyaqxMr2hA8q+ljn/1NjhTumCiyOB3pMtsv5qG2zJLIZV3Q9vj3VDUgeHTUwP2r+pFEzsnP9v5gX487/k//Tr49l+c/VE/uPyXdfnhEQIzRzQoF999Rb7lz8SZGxPz654+95K2MHEX/PU3pbpZMp6zQiR1C0z5aVKMevvzSfZ0qTzXgibiZubkJsSvDrzcss42bbGQXWY3vTZealq610mmK9Op2bbKp69WCVayAsNfw2aHsbBc0TfRfUaifV8aQ5SBN/KbTJH5C8xDpd2H/e0WAz7pPs4PpSthlvvHMhfGJaDSzpJ6zjnGldNO1jXZqdVIR9UNRDabs8k5rV62y2F91Va1B7ZbvNlLbStpm+bKSHgg5cbdHnSDoYn7YU9/K/G3Lx5IqcfPVG/UvUgkIeyY1XT1auu6qSx74uKGKKv6S1nmpw8VxyqQq6Tekw8nvl9TbRe32a0vKtnxjtQsK1PP9sTT8pdqqaiF9ec8n5mCfIt3TZ6j0vy9JoKTrfFl2/GjeVDtQYYuotBBz1WGvGV+PjEkHJbDxucCyaE+WNYatIwAa9zl2W21uX5dwJtxZ1MeWge1rT96AVT236fP7QzBeF/ledW3pOoM7RQ+tmPlxyXul01u+lz9cG56Euu9ncsazLmmqovaV4QmaZXYEvjf2n59cy3xOmCca7oKyshnxD9Y8fuI84+uOUv50XkG8F9drd/j693dS3J+zW9VfYl1viHhgxunFzU12/vrYzvNx+P9/A2/qXmufksltWUW7LxtrLdvkdtSzPy7L2L/nLcu9ePicrq29IvieskaV4Qh6z/Y3xsqr/c39ix6rMH6Zz5emLx41vScVdrL9t6reKRedBd88+XZ/+HvrulI9N+T1VTZi2aizx2uXm2NmN46TBjXaOGpgfNX8jI6c0UXVg/w8I7Dfo98kF9iNjtCPynIG7K5dPSEpO5sJJHzuBvCLlHLKJuz+Z0tv+hNpzDjZ70T57wC8nkbY0X25Woy1/Iq7LTDkr/+I/K9Vwy9qt99vBIQrqx0+BhBce5kLC1J2z0uU2rjczyliR/bLCDijZxVDIv6y9obPPy27MPNF3WSl2UMj1lx2p3iiwCAezLHNV3Vkis9G4PV6+4QL7ZbooexI0oS13LgXnsguG5boJtWX6uz1tGbtM3w2nrTRzv1wPdmqzoINUIsel2UV60abd0ZZqye03TsuKehoru8graZ+/+5556e7pqnV4COw3CPSW67CgkZQOI99T5kf1/sIY4Xeo02/1EhZl5bvxZmAfG5kQf/XHyvhYK98jfoOXafpPBZnCF4ZVlBT0o+3/Q0uyGPdPkK6ivOhQeR9FCfk6AAEbrMheMDlA1oqkY9d3Rd1TeUifM3OydEz9Oiace6bbG/lfe84tuQB/lilKl+2v2ygZ1+uyDXC8qYbafHluYWxS9gb+Kmp3cMw2zs4v3fVMXGb8PUdifa6el6b7Red1Qa1U3XlhyZeX+3U3GjtdeYXxpIF9Lq/36fvwoi3N5phecYnNu/LWP6/IyQvv1K9pfO8duXBqRc6VPa4vol/KzMtzE5hndhfjZbLrtS/y5tj6e8X5XHO8yjeZY3OS/qVo2fW73a99p/Hh/pxel5nFA9RxY7vvr7J2W//u5zfXCeXtVb4uTJ+V1trGqIH5UfO31pAeFhQsxfOeeVF7thSPXWf/K9/7pdyMlr7sYVPHZnLnA/thQNBzNG5Clgj0G1rG4WRPERcmUwmmOo0XdMyck5c2K8eWHz1l4U+wvFwDb7qJuC6v7OIjs8UrvrDPTnA9Xl7qwmbS+capCnW4gE/ujIsc0pPXuOj69sYXYs3K1fWk7FYH4oE0Nqrqu84b2qTaUBh4EunKii2yy29eleUZfH+NLlKs4n36e6KtJcak2lVIGtehEgT7zHnnLvR0/uB4ocRsR6W2VP8UzpFEXVlp0Uaif5PtTaSLSsq+pvKrfW1rK1VPZoTbsEF6tZa0W27CHUp+PvpANs6qX5GsyZV7yRTZTufrsh0zsuEm1aVjXHbj04x7hX5XrkstFeGPUyl9RedHIY/mHY2XZX2gy/IuOhLpqsYQXXd0nqXtSRRcsmtk/dg2Ne2HdLp87IvNNP3sjjf0KVk/bsrysfVsjNJ9rY95c6FIJ4FvjI2x36v6qCQLu5sQeLQtH3y4PeAvm6oLHlnf1cXP2NHQzzU7D7w55vqyLN+0cycdsHDbJedj5OvSsBv6hHTmRnubaujatWty5cqVRmUGiaIxRh+zfir3RyH7wsNcOr3zk6oEm957aW1hrHC+2x8D3biYXTfZPvLSGJ/s/4LK1BWMsZkPToyzro6szLhtbt6aGCsLrOrtM/b61xkmj7M35GLLa6S9oBcLX/SSYisrcuZfbktpHOXhbTPXq5kbKl0pffEHgYwA42WGQm9Yf+bOa3cwNW92x7RvyPyQ25t/Fn1HfsxdWy+qOeZQf0W/GfqivFBtR+STdNoohuZy+HaHZRbrNHmM38vHG1fS4J+jBuZHzT+4xdOUo+zlub8nX/nzr8mXH1NL8uyRPb//Ffn+r26am84Pb8ovD87Ln/y+Wa7nD/70P8uLl/ylfKaJT31b2gvsRxeX6uI3dk6+OeGJqo6EE5Xidz93uF3qMHwnUphMhWXobzUTOZ2mppxiuxL1NNilJuK+YyvLouvL2mkndJ6TD4+XlZLvT7HMj+ZbYbnFek2wPJ+kN2lLkzQxX5Mnrye3MLGV6js7kA49GHiayWos1JOY9GeJixtxG3UKa2cx9XB7wv5LlxGmifu4bHBNl6X2JtuVSF5dry2nQvOJIhucS7H/sfVkF4epUr19KR3ofb42B2OW5DUObVk7vdYkN3fevSAnV1bk5NrlwosigwwPb8vltZOy0vDJ1aZBh6COKfjS1NdWjYW5RqIAcGE8znWY58kh6n1NtF7QdF6G28rbZf2eP3HX+f1gR/G8c+U0/Ry7fgrnXFPL8mUTgvHF+vJgX1yk5rQky8cW7TzKssz8ns1g0w16WZb3UVwx37tGYOz67lqDx2ZP+hzSvi8+rwIbnI9aliXrI8280/djKoNL12ixLa8GY1elP/BSD7PZVEN3796Vs2fPDl5FmY+0vi67Gepdm6hKHEf3UEX23Y5fS+uGqbt5nRq7HPesDpW30J/+WGSPF8ayKI03HqbqLe6L88f6sFiTrKK8yv7IPl2fP657LAu2OO5emsE71eTYufmGnFlZkZUzF+XKv34kOzbC/3DnI/nXty/KmRMrsnL2DdmseYBD6Urpiz8IjJNAU183ThuGK9v6gOQ5a/1gwa/V12R8qn9TsD5P4xTWz/hjV8FP+T5Lb5trEWOX2TZ5fBvDsTTt32x6359ae6pij03aNmpgftT8TWyc7jQfy/oP5+VP/o1ab/8x+YM/nZcfnLaB+o835MX/9GXzgt09e+SxL31NvvanZl1+HfDXT/WrAP8X5LvnZvNNu+0F9gOHE56URQGGkzVzvC5PsRS3RzsIv/5oQqTT+Se/yxh9+uUUHEmUtuzrsPni8tTgtFRwiO6poKIDzCa1Pgfr5LJjfnl+Oq9yn4G3O7Fp+9CVmSjPOO6UzYnivKdzivb67XUBV1duHrBKlRrsS2jADCiurPDTDVaVfVoWWInZR4N1VZmlxyrW2A/aWfclts31ofoM+rG8j8O+DbmVDaql7SrYW16vSRodj9gWimusrahc78KuWGa0p0wHen/OJ2ZTxaT0WNx/QftNG+J6nLVlZar+rP97JHeuvCyn1UXeiTNyYeO63L67Y5/keig7d2/L9Y0L5kJv5bS8fOVOoydX+zsRryc27hS6P59ZlEW3VFuZDj1DYg24c9n5Oy9ptGnPj8BHeEkirc8lzx93jjmfbi5m6uv26ok2x66fxLgRmZD46tpZMj65czg4d71iHEt7XPeR97KwUXipWoxuGq7375nF5uQJjF3fk2/S5GuMzqfYAH0+OB8aH8xe3ufOZeuz9FI+8ZypkLl+h/UFo57TVRUNoqHXX399Zt97U8Vwlo89+mRTLl84ox/sUEGr7P/kGblweVO2H1XTUfpTuuIPAuMmMIivG7ctjcuvGZ9MOe7mn5s7NyvdjG2D5WlWsrsx68bFqlx2Pqzns6m5sdtn7DTXJLnNVfNVNzfObqdrlnneKqvKjo0amB81f5ld7M8J7Lz3S/n+V3/PPL2vgvmf/5Ys3zTHs6V7/rfvy6APPeU19HerlcB+k+Yb55IHuIoX/ebELgtIVdURntjG+RXKqZ08+44nDh77djfYLrtYr2pEdKyXg1PUBr5CAALTR+Dhx9fk9TW15r53gedtn157Xa59XPrD7QKQ2fJ1bnLeYBzxb7gF227S6ibDTSbWFns0DpoJdPrXde5YeKPV1Z13Yza2Nx33XFB7blEWn1EcBrA/rzbbGrt+tL3NbRyEh0sbz1f0fncDpVB/nYZStjqt5LobZyAx6xw2RiYwdn2PbGGHC/B8jbvoK7U2Sxv5OLvfnS/63PR8XdpP5ueZe9o8qNcFcpxfd+d6kKi9L4No6M6dO7K6uirqZaf8QSAkoB7guKufvL/rHt0PExS+KR0pPSld8QeBcRMYxNeN25b68vN5mRtf6vK4OWNyXPF/BeXGFm8ps7qyq46XjXPx3DUrIxtP3VioxlU7dy0Z78zY+ktZfib6tVOhLFem+WzKLrOtZmPUwPyo+WvM43BG4GNZ/nOzNM/8P/lL77j9X5EX38sSz8zGxAL79USNgyt1En4B8aTYDwyoY1VOw3N2YcBCOYh8Qh9P3v3qq7aHzReX2a/BKbae7xCAwLQTeHR/W26/f02uvX1Frly7Jtfevy3b92se3UpAwdcloDTZpSe7+ZiVzpIIArugVBSwSucf015/ou7sGbKqsetH25oKlocGZxc+A7cnv7hLzX/UnCK1P6ydb9NKYOz6nkpwzu/Vn7eF5mfXFwnf2sjnFkrc9R2Dakithc4T1rvebVNhgNIRa+tPRVf2ohGD+rpda5SbA5fEq6rtGmF8qy6YoyL6obVRQBDYH4XeYHnPfpvAfkysQ4H92LTZ/t6bwWm2u4nWQwACIxLA140IcMazo58ZF8CUNx99T3kHT6B5w2jo8uXLcunSJfnss88mYCFVTBsBpRulH6Uj/iAwKQLD+LpJ2UY9/SCwvr4uN27cGMpYlU/l528yBD7+h6+Z5XjUUjzvqTX1d4SleCbDnloGJMDgNCAwkkMAAr0kgK/rZbdHCPL+AAAgAElEQVR1xmj005muwJAxEEDfY4A6Y0UOq6G33npLXnnlFfnNb34zY8Ro7igElF6UbpR++IPAJAkM6+smaSN1dZvAJ598ooPzZcvNVu1XQX2Vn79JEbgmL/4fvDzXp80T+z6NDm0zOHWoMzAFAhAYGwF83djQzkTB6GcmunlmG4m+Z7brW2v4KBq6efOmnDlzRjY2Ngjwt9Yj01mQCugrnSi9KN3wB4FJExjF103aVuqDAARaIPDwpvzye1+TL/y+WpbnMfmDf/td+eklf839FuroUREE9jvaWQxOHe0YzIIABFolgK9rFefMFYZ+Zq7LZ6rB6HumunssjR1VQ2pZlevXr8v58+fl7NmzeomVK1euyK9//Wv+p4CBWgN/mH/V/0oHaskdpQulD6UTlm8ay2lMoQ0IjOrrGlRBEghAAAKdJUBgv6Ndw+DU0Y7BLAhAoFUC+LpWcc5cYehn5rp8phqMvmequ8fS2DY1dO/ePbl165YO4A4TDCbPcEH0LnCLb+Qom1QgX+lB6YI/COw2gTZ93W63hfohAAEIDEqAwP6gxCaUnsFpQqCpBgIQ2FUC+Lpdxd/7ytFP77uQBlQQQN8VcDjUiAAaaoSJRBCAQM8J4Ot63oGYDwEIjESAwP5I+MaXmcFpfGwpGQIQ6A4BfF13+qKPlqCfPvYaNjclgL6bkiJdGQE0VEaG/RCAwDQRwNdNU2/SFghAYFACBPYHJTah9JubmxOqiWogAAEI7A4BtRYrvm532E9LrUo/rOk7Lb1JO3wC+EefBtvDEsBHDkuOfBCAQF8IMF72paewEwIQGBcBAvvjIjtiuVtbW7KzszNiKWSHAAQg0F0CyscpX8cfBIYlwFg5LDnydZ0A/rHrPdQP+/CR/egnrIQABIYnwHg5PDtyQgAC00GAwH5H+1G9iOj27ds8idjR/sEsCEBgNALq6Rrl43jp2mgcZz03Y+WsK2A6249/nM5+3Y1W4SN3gzp1QgACkyLAeDkp0tQDAQh0mQCB/Q73zp07d3TgS92FVoMWfxCAAAT6TkD5MuXTVFBf+Tj+IDAqAcbKUQmSvysE8I9d6YnpsgMfOV39SWsgAAHRsRGuJ1ACBCAAAUOAwH7HlaCetFE/o1VrZKqXwvAPAzSABvqsAeXLlE/jSf2ODz49M4+xEr/YZ7/obMc/9szx9MhcfCQ+0vkZPtHCNGiA8bJHAxCmQgACYydAYH/siKkAAhCAAAQgAAEIQAACEIAABCAAAQhAAAIQgAAEINAeAQL77bGkJAhAAAIQgAAEIAABCEAAAhCAAAQgAAEIQAACEIDA2AkQ2B87YiqAAAQgAAEIQAACEIAABCAAAQhAAAIQgAAEIAABCLRHgMB+eywpCQIQgAAEIAABCEAAAhCAQOcI3Np4VVY3PkzadeXVV0qPibwnr6xuyJVkTpHScm+9LasV+UQ+lNfXXpFXrpUUHO1W9Zx49b1ob8Ovtba4cqptqubkylCfUTnXNuTE2ttyy0/CNgQgAAEIQAACEGiBAIH9FiBSBAQgAAEIQAACEIAABCAAge4SMMHmOMCsgtUqYH7rVjror9qjg+qriSC8Dpi/Kq9cK+YNA/Hq5sArckL9r23IK2t22+3T++sC39b+YYL7Qwf2Pbt9W912abB+coF93X/RDZRb195r9SZC2+V19xzBMghAAAIQgED/CBDY71+fYTEEIAABCEAAAhCAAAQgAIF6AuppcReIbvBZ9gS9DtQHgWwT9E6nDwPi7pcC4RPvXvDbf6JdB+ETgf9K21+V12/ZwH9lupJyX31PTIA8PB63LbTfQ1/COMtfctxx8UoaeDMO7Bf7aeAigwxtlxcUzhcIQAACEIAABEYmQGB/ZIQUAAEIQAACEIAABCAAAQhAoIME/KB5Zp4KvMfL63iBdptOB3UHCJS7QLXOFz9Zr+xQ+0qC3OZp/rflVuOn611jVFtUYN99T3w2LrPIwC+tNLDvJ9LbUTnJPihkGmoHgf2hsJEJAhCAAAQgMDUECOxPTVfSEAhAAAIQgAAEIAABCEAAAh6BqkB6ImifPWXuFRFu1gfSr7z6qqx6y+28cq3mRkIy8K3yhE/QF355EPyCILQy+DZUYL9B/cq+pA27E9gPb8R4NzsiDbgbMIqRuTHgpbXvB1Dtelu91yDrAz9NQJcvEIAABCAAAQjsIgEC+7sIn6ohAAEIQAACEIAABCAAAQiMjUBp0Lz+if20TfWBfZ3PD6b7geVX39Yvzc0DxjZ4nwyQpy2In1L3U4XB7eobA8WbGC4grz5jPn4tdduuHJsu2Qd1ZTQ7HrPQ7fdYGh5+W8wNizy4b2x1Nyji9HF5zawiFQQgAAEIQAACkyJAYH9SpKkHAhCAAAQgAAEIQAACEIDAJAkkg8oquOsHe5VBUTC61MYhAvu2LB0kzpbo8epL2pgwQN8sSLzEt5DUK7twTOxyQHH785cEn6hZ2kcF0/PAuHq78Nuymj3Znt9MyG4c+Dc2vHTZ8ZSNDfdVB/ZLOGh7vPY7rq+a9zH4dhHYb9gRJIMABCAAAQjsEgEC+7sEnmohAAEIQAACEIAABCAAAQiMlUBJULnwxLwNOGdB3QHzufJUwNsEm/MAt/80+OrG2+kldrynzNM8SoLU6cQ22O4Fr7N08RPr5oAJ1r+nf01gGJj6XLtKP7MbFVkFxZskimVt+/z8zberA/umrWnbQzbmSf1XzHsQvOoJ7Hsw2IQABCAAAQh0kACB/Q52CiZBAAIQgAAEIAABCEAAAhAYmUAyqDz8E/suaJ/dACgz0FuKRwWHXcA/z5cO1Lvy08Fo72aB9+S7TpsIsOugdLDfBrqDfX4D0jb5KdS2uQnwYbzb+x6Vk+wDL/kIm5WBffck/rX6CjLu0Q0IAvv17EgBAQhAAAIQ2E0CBPZ3kz51QwACEIAABCAAAQhAAAIQmCiBVGC/gQH6KX71pLfKX/MyVS+wny9VsyFXdBmpAH34BHnRmihYXkyQ3JMFpm2Q+0RpUF9lj+sw34Nld/oU2Nf9FC0blKJk+8S85DhMn/FL5WMfBCAAAQhAAAK7ToDA/q53AQZAAAIQgAAEIAABCEAAAhBol0D2FHb8dHvd90TwWwd4g2C+efo9fwI/st0F9m+9La9fs+vXB+XGQfQof+HroOldAfYp/dXh1+bXHD3b1Xc/2F/GOWNTdjMjeDq+hqdrTt1ndvPFJCz2m/nFQb40kKk3a4/O7920icqrq57jEIAABCAAAQhMlgCB/cnypjYIQAACEIAABCAAAQhAAAK7SEAFc+uekDfmmcBwce11Z7wLamdBbHfAPSGv6sm21ZP6rt5BA/WDpDdp3XI+zjZna26DM9Z9NqsjDuy73PlnVI4KjgdB/DxltuVuhGQ7mm2YNjmmKk/xRkbWh+6GTmaL5ZR9N3WGZRbLa2YZqSAAAQhAAAIQmAQBAvuToEwdEIAABCAAAQhAAAIQgAAEOkGgPrCfBYO9J9XLTc8D6e7Jb51fB4xNYNgF10U/AZ5aiueVZPA7D8b7NwVSluQ2nAh+WZBKmwer3fr8WXuzGw9RvuDmhPdEe5TMfB0isK+4NGKdrJCdEIAABCAAAQjMKAEC+zPa8TQbAhCAAAQgAAEIQAACEIAABHafQP2vAHbfRiyAAAQgAAEIQKB7BAjsd69PsAgCEIAABCAAAQhAAAIQgAAEIAABCEAAAhCAAAQgUEqAwH4pGg5AAAIQgAAEIAABCEAAAhCAAAQgAAEIQAACEIAABLpHgMB+9/oEiyAAAQhAAAIQgAAEIAABCEAAAhCAAAQgAAEIQAACpQQI7Jei4QAEIAABCEAAAhCAAAQgAAEIQAACEIAABCAAAQhAoHsERg7sf3r/obz3/m35163fytZH2/zDAA2gATSABtAAGkADaAANoAE0gAbQABpAA2gADaABNIAG0ECNBlRMXcXWVYx90L+RAvsf39mW1954S+b+41/IH/3R/y6f+9wf8g8DNIAG0AAaQANoAA2gATSABtAAGkADaAANoAE0gAbQABpAAzUaUDF1FVtXMXYVax/kb+jAvrqLoCokoM/NDG7ooAE0gAbQABpAA2gADaABNIAG0AAaQANoAA2gATSABtDAcBpQMXYVax/kyf2hA/vqJwLqbgKdNVxnwQ1uaAANoAE0gAbQABpAA2gADaABNIAG0AAaQANoAA2gATSgNKBi7Srm3vRv6MC+Wv+Hp/URHY4HDaABNIAG0AAaQANoAA2gATSABtAAGkADaAANoAE0gAZG04CKtauYe9O/oQP76kW5dNZonQU/+KEBNIAG0AAaQANoAA2gATSABtAAGkADaAANoAE0gAbQgNKAirk3/SOwX/MCA04qTio0gAbQABpAA2gADaABNIAG0AAaQANoAA2gATSABtAAGhi3BgjsE6zn1xRoAA2gATSABtAAGkADaAANoAE0gAbQABpAA2gADaABNNAjDRDY71FnjfsuD+VzJxENoAE0gAbQABpAA2gADaABNIAG0AAaQANoAA2gATTQfQ0Q2Cewz504NIAG0AAaQANoAA2gATSABtAAGkADaAANoAE0gAbQABrokQYI7Peos7hT1v07ZfQRfYQG0AAaQANoAA2gATSABtAAGkADaAANoAE0gAbQwLg1QGCfwD534tAAGkADaAANoAE0gAbQABpAA2gADaABNIAG0AAaQANooEcaILDfo84a910eyudOIhpAA2gADaABNIAG0AAaQANoAA2gATSABtAAGkADaKD7GiCwT2CfO3FoAA2gATSABtAAGkADaAANoAE0gAbQABpAA2gADaABNNAjDRDY71Fncaes+3fK6CP6CA2gATSABtAAGkADaAANoAE0gAbQABpAA2gADaCBcWuAwD6Bfe7EoQE0gAbQABpAA2gADaABNIAG0AAaQANoAA2gATSABtBAjzRAYL9HnTXuuzyUz51ENIAG0AAaQANoAA2gATSABtAAGkADaAANoAE0gAbQQPc1QGCfwD534tAAGkADaAANoAE0gAbQABpAA2gADaABNIAG0AAaQANooEcaILDfo87iTln375TRR/QRGkADaAANoAE0gAbQABpAA2gADaABNIAG0AAaQAPj1gCBfQL73IlDA2gADaABNIAG0AAaQANoAA2gATSABtAAGkADaAANoIEeaYDAfo86a9x3eSifO4loAA2gATSABtAAGkADaAANoAE0gAbQABpAA2gADaCB7muAwD6Bfe7EoQE0gAbQABpAA2gADaABNIAG0AAaQANoAA2gATSABtBAjzRAYL9HncWdsu7fKaOP6CM0gAbQABpAA2gADaABNIAG0AAaQANoAA2gATSABsatAQL7BPa5E4cG0AAaQANoAA2gATSABtAAGkADaAANoAE0gAbQABpAAz3SAIH9HnXWuO/yUD53EtEAGkADaAANoAE0gAbQABpAA2gADaABNIAG0AAaQAPd1wCBfQL73IlDA2gADaABNIAG0AAaQANoAA2gATSABtAAGkADaAANoIEeaYDAfo8666tPH5Ln/uJLnGA96jPubnb/7iZ9RB+hATSABtAAGkADaAANoAE0gAbQABpAA2gADfRNA1Mb2FdB8KcfLxPkl2T+ufLjKu+hpx+vCKBX50+J4It/8VxNmWW25vubBfaVbc/J/JfyfNqeL31dnjuU2F8VJNd5vi1frUqTOvb4txvegBicY4rtru8bhm2KW7bvcXn6UJ0Go/79XDOWjXX4+Lfl0EB6MfW3duNpWO1lDGM+fN/184S+qRhT0Cf6RANoAA2gATSABtAAGkADaAANoAE0gAYG08CUBva/JF98XAWy08FRHbh/7uvyxWSgyQRVy28KKMDNgqi+GL/4pa83C9bqgOohOaRsH+jfBe2/JF/8CxWUDW9c6DZXlufyewKKg6v6e5ldfv4mDAfgqJgk+ksHqSvblLA1UY7fT4NvGy0M1FeVN43+UPK+8pl6/ZLU7R/K50o4+W1qHNj/nLWjKa/EzQ1dl81fVu9Qfaj6vIxhCYOh6mna9rL+YD+BbDSABtAAGkADaAANoAE0gAbQABpAA2gADaCBMWlgSgP7NghqA9F+kN4E+CqeQteB9Tyg6gcEn37cPkldCCbn5fnpWwv22gD702opnueeSwa5/eCt3vYCnMqm6iepVbvyNueB5TAwnpcRpv/c5+LvNsh8KOdSsE8LusENEnczIRFk1azLAryJE0anT5STtq1BIH3Q4HfCprhuox/TF3X2lvWTrzvVZz4nf1vX7fgWNB32vV+m2s61YDgVyv3cH5p6M97uBkidJvxzt2Fax9W1Jasz78OUfTF7/7tOnyjHT8N2zhcWsEADaAANoAE0gAbQABpAA2gADaABNIAG0MBkNTB1gX0dkBshSBkGS12wOw5cewFpG3R3y9UMGkBUgq/Ko+2xAUa1rQOqNoDp37AoPXFU2roApS7PtdUTYNS2rI7C/piPKiNnFDKtChiHgdygLxNtKONWuT9RTtYuFyBu+GnsC20etiydT99U8n9pYYPhtTcvFH8/n9eHkb4KbAp9GeZt1p5U/8eBfVOu1kJte/5QPjegXaYvrLYSfVxot+3jyv2JcprxGIYheWCLBtAAGkADaAANoAE0gAbQABpAA2gADaABNNBcA1MX2C/rfB3AqwvU6WBiMcDtAurVAWrvKesmgUsveFwMLrqnm8NgrbPDtdHZkz89nedTT1U//bj6XmyPy599lrS7LLiq6/XbOGAQNqvXC/7n+4x4NRMbrNb1Jfou5xa2O3663K0V30gDXr/ENgXf/TbbgHyx3ugmRqINrky/vW6f+bRt83lHNoa6KKbPOSVuIvntUOXqthRvVoR1hA7G2F7MU1ZW2D5zU6KWXXCzLqzLZ9dJrUT9FbY/ZMkxeKABNIAG0AAaQANoAA2gATSABtAAGkADaAANNNEAgX0/6BYHaFUgVu0rBGRN8FQ/MR8HRl15cVlBYNIFfMMApXvKXQWin376uQHX2PeXR4mf4C4Jnrp2lbUhtV+3S90sCIPp2c0Fnaf45PRXn07dYPA4Om6Jz/pgbXiy+4Fs/yTQ+12bE/X4aQfZjstNtjWpI2O3bp+3FJK5oeLf1LGsE7brvF7Q3wS5Q135PPxt3Ubbx/Pq5c5JjTqthp/5r0WctsI6ddlWK889F+bV9STaEjBPaa9Bn3VdK0EbG7SH9OG5DQ94oAE0gAbQABpAA2gADaABNIAG0AAaQANowGiAwH4iuKaCgy5QbYKuJjDZZI39JsJyZbo6UnkKAdiEnWZtez8A7E7sVGA/DKzr8l1w1Q+iVt2QePrblUu+BO0IAtlfEhXsrrxBkmyfaU/Xg7W+XtTNGfPy4pB3+sW2Niju+sExsDdH8uC54aD7LHEDIAzI23p1P5pgu68lf1v3l9/3qn4vn9+fYRudztxyO8/Jc/p9Ci7IHwXyvRsPfpmV27Fdjk3NZ9e1UtnmmraRN9cdLGCBBtAAGkADaAANoAE0gAbQABpAA2gADcy6BqYrsF8VlK55GtkPsqeCmOFT2N6T5gMFIPPAZxy0jYVogrhRgLSkDcWyUoH9RFkuoFzRhphFuV11gWyPWRbATO0rOqW6YG25TV6bn/u6fFU9le7anNlQrC/ui+rvMWtTXiGAHtzocGvIp27K1BzTLyrObzxltlntGy0Ym5ymfVv8bZ037vuKc8iVl9Xp8rrPAtM0myy/bUt4Y8LrsxK9m/SJXwhUvMzYtVt/VpZ7SGtkPFoZVWvkz7UDC1igATSABtAAGkADaAANoAE0gAbQABpAA7OtgekK7BcCi7ZzdeDRBOy+WJZG7U8ENU2gVAWgn5P5v/h2yXIlNqjt6qkLHCaPh4FxF4isPkHLAqfxfvU9Ub4LcseBWe97MrDv8mUsi+Unn1DXfP2AbDuB/WpG+QmumRZsz483LUenS2ileYDaZ5Co3+qoeMMmkda9HNfr3/hGiK8lf1u3w+vrgdpvzxdtY2kZpn8LNwQy3aTb43418PTTJTc+KvLHbXdtKrS7ogyVp1Wt1NTlbOSzRA/wE7SBNtAAGkADaAANoAE0gAbQABpAA2gADaCBWAMzEdh3QT0V9GsSLM2D2S5grT79YGyzgHQIe7A8zuawjFjAyq5Um+L9rh15/iBwGQfcvUCtDpS6GxGlT70Xy08G9u0T1XkfNGPSKFhrg+Gp4LoLLAdtbitYGLPTT6GHN1FUHzbrT9s/ti05p7zfQj2Yfj7kaVPX4wX547oLdij71c2OCn4B09SyOp5eQvsGD5AH9ifKLdOCq7fseNDuiraOVSttaY5yCHSjATSABtAAGkADaAANoAE0gAbQABpAA2hg5jUw/YF9HcRzgVYVCPUD9P+Lvfv/leSs80PvKPdKUX640U1+MVKk+wfMHLOsJsDGSTDc/SJ22SSO7dh7zQVnCGxsWNaLQXjtMQMOYvEOXpyNYZjYzLIY8yWTGe5asOKLHVseEn/BwSvZGMXfiEMgzCJA4x3kwQQ9V091P91PV1d1V/fpc7qr6jXSmT6nu7489Xle9XSdd9Wprg5MYzg4EfDFYPvQ28JbD9TfJmR+CNssxE4B5SDgrF9fHrZOr3sQ+I6fTwFwaXnp6vUU7qYBIfs5r8UoJE5B/8RjqvGwptky0jZNP5bbWd8fVbfQmWhbRQgc15dPU9Q0bXPa1m0+Vi1z0HeT9SieqwrFq9Y/DJ7H/VdVl0HtktOitrHmRZ/Ur7vcjsqfK2oU65ifQJjoy5raj9s02Z6JeUfbP9g/YvsntrtwFO/hP7BbbO+rXx3q/vKmaGdN+0e1qmnvTlup3u6qvvWcWjHAAAMMMMAAAwwwwAADDDDAAAMMzDbQ7WB/GJCOAr0YIhbh5+xwPwV8lxyI0w0Cx4llDJ+bCCBHAWVdwZcI9ucGwXXB+Pj5wWcDxJ9nhKulEH4QTA9ObqRapB2peG0qOK1YfmmZaf70gb+jExNTy5quX3VYW6rnNsLaYvlzaz3drrhN5fqk7awMzJuuY+h2EV/FNqQ+LoxX9/dku6psj+/xf+TA28JbDw0C9Zltqan9oBYV6yimH7cveTty6IZw4FAp2E9/7dDASeqP6ZNAq7OS+tdj9f6gLurCAAMMMMAAAwwwwAADDDDAAAMM7I6B7gb7Rbg5vvJ+AtSM4DNONwhJh/MOQ9ZBEJ1OCJSCwrmhfuzMcdg+0ZZG8y6KYbCuqaufa9ZVDraLsPrADZNXSdfMW70taf3j8LZ6umbbVbSvHOyWwuE9E/00+ZcJ6aRM/UmJ6TC5aXuTldGJiom/YphsR5omtad2HcNtmRmmj/oj1TrZHNa0xvhEsF9MU5ov+0DbQ4duCIeGwf6RWSclivaWl5P1bbktab2pz0Z9W9qv8vnStLPakfbd0fKGbSjmzSymZVX0VeqbaivZNo3q77lax2rU+z8JZMP4wAADDDDAAAMMMMAAAwwwwMDOGehgsJ+CzizIqwqYUrhXDgEnAvjJq41HVxZXBIJH0tXSE+sazJ8C3ekriac7dpmgOC0/hZJz/yohbftoO7JQthyCFuFqdUCd1jt+jMsZ1j8GsMN5R+2aqM30ti+yo08E1HG5Rbuz7ahY19Q8DedbpF110xb9OieUHs077J+5wf6wvnXTxe2NtS+7TdPHNhV9M9HHNTWcmKZ0wqxB7QeuB/tkfS2Gwf6B4S2Fquo1asec/Tvr/6l+b9DeqXmy5Y36yXOCawYYYIABBhhggAEGGGCAAQYYYICBNRnoVLCfAswUXDYJ4NI8lVckxxCxKlxcU2c12Z7tT3NpOLCdbX51nP9t2T3Q04mWJicHmoa1MQBuNu0gUB6vu2xjxwLcUQCd1l0TmFdZahrsV827jucaBOXR5WhfqzwJlk7OHFnxPrc6K9vft7Z3Msv61Y8BBhhggAEGGGCAAQYYYIABBhhgIBnoVLCfNsoj4AwwwAADDDDAAAMMMMAAAwwwwAADDDDAAANdNSDYX8cVztbpT3QYYIABBhhggAEGGGCAAQYYYIABBhhggAEGljQg2F+ycF0902O7nMVkgAEGGGCAAQYYYIABBhhggAEGGGCAAQY224BgX7DvrBgDDDDAAAMMMMAAAwwwwAADDDDAAAMMMMBAiwwI9lvUWc6SbfZZMv2jfxhggAEGGGCAAQYYYIABBhhggAEGGGBgNwwI9gX7zsQxwAADDDDAAAMMMMAAAwwwwAADDDDAAAMMtMiAYL9FnbUbZ3qswxlFBhhggAEGGGCAAQYYYIABBhhggAEGGGBgsw0I9gX7zsQxwAADDDDAAAMMMMAAAwwwwAADDDDAAAMMtMiAYL9FneUs2WafJdM/+ocBBhhggAEGGGCAAQYYYIABBhhggAEGdsOAYF+w70wcAwwwwAADDDDAAAMMMMAAAwwwwAADDDDAQIsMCPZb1Fm7cabHOpxRZIABBhhggAEGGGCAAQYYYIABBhhggAEGNtuAYF+w70wcAwwwwAADDDDAAAMMMMAAAwwwwAADDDDAQIsMCPZb1FnOkm32WTL9o38YYIABBhhggAEGGGCAAQYYYIABBhhgYDcMCPYF+87EMcAAAwwwwAADDDDAAAMMMMAAAwwwwAADDLTIgGC/RZ21G2d6rMMZRQYYYIABBhhggAEGGGCAAQYYYIABBhhgYLMNCPYF+87EMcAAAwwwwAADDDDAAAMMMMAAAwwwwAADDLTIgGC/RZ3lLNlmnyXTP/qHAQYYYIABBhhggAEGGGCAAQYYYIABBnbDgGBfsO9MHAMMMMAAAwwwwAADDDDAAAMMMMAAAwwwwECLDAj2W9RZu3GmxzqcUWSAAQYYYIABBhhggAEGGGCAAQYYYIABBjbbgGBfsO9MHAMMMMAAAwwwwAADDDDAAAMMMMAAAwwwwECLDAj2W9RZzpJt9lky/aN/GGCAAQYYYIABBtZu4NfPD3suOj/sOX8FfTFvGVbAVloAACAASURBVPteFvbsW8F6/E4mRGGAAQYYYIABBhY2INjfDpqbHgrPh+fDgzeVD2aPh2fCM+H4dpadz1u7nvJ6t8LxZ0MIzx5vAOFD4cHnm047vZ61/8KS18f3DfpbHzLLAAMMMMAAAwz0wcDeO28LL73/trB1cDv9/bKw9/Zbwkvvuylsvbl+OYNpbg5bN5w//3h0377BCYd40mHRr3+yb/7y/U6gRgwwwAADDHTWwG/8xuvCv/7X7w933313+I//8d5w4sSJ8PGPHw2/+7u/19ltbnLcKtjfzk5fF7jf9KHwYAzYQwjPnBgcCBeB++Cpmf+n6cudV8z//EPh0Jz2Ng/2t8KeE88UbXn+oQ/1eico19rP9b+8qY3aMMAAAwwwwAADDQ1cdFnYuuP65b8+etlSx+irCfa3wp53vTucd/9t4aX3HAx7f7Nim/dfGbZmvV7+vWX/7wymj/Ms+vXnv7NULVit6Ldyv/iZLQYYYICBDTbw+te/IXzzm98s8ssXXnghnD17Nvz0pz8NP/nJT8Jf/dVfhZ///Ofhxz/+cfjEJ/40/ON//E9715eC/RHeeJV91b8ZV97XBftpmTE4bxDGDw44B+uPwf6hh+Kl9A3+FcsezxeXUw72Gy+rcnUztj1to8feDRp+QfILEgMMMMAAAwww0MDAdoLsGHwvGWavLNiPx/m33lyE8OfdcXHpmPc1YesLMaC/NWy9q0Et4rKG9Vj0LwmK7VmyFgs7veYtYesLh8cnHr56U9j68IX1txs6/zVh79EPhPPuG56suO9wOO/Y1WHvFS8r1athjfxupW4MMMAAAwyMDLzjHe8sgvwY4s/797Of/Sx85zvf6V24L9gf7TCTAXlxEFhc0T4j3K4K9ufNM1pf+eCuYv17UshfdbufNP/kfJXBfuOTC2mZHhf+JaC2X9VSLRlggAEGGGCAgV4aSMH+nYteeX/Z4Mr2cph9w9XNrv7/8iBkPu/zTf5a4Oqw96LM52teWbpNzoVh6/b9Yc9vTd4+Z+9Hh4H/0YtL07+yPgRP9bjn1nDeVxf4iqF5uRY7cex98wcGf6Fw/+GwdSzW7sawlQL7u66c3q7fvCxs3ZMC/VvC1mevD1vHBnUpTngcfOUomOil/53oI8tkigEGGOiNgT/6ow/Py/KnXo/h/ne/+90i3I8h/0c+8tHO10uwPxoUJgPy4uArhfTF45SX6Sfive3TPKPlZgfKM5+rWP+ewXP5rXKmb8kzOd/8YH9y+vFB5uCe+/m6xq813QbTqRkDDDDAAAMMMMAAA4WBFGSvKtgfXj2/8G1sZt725uawd3/WX9teR2l5+e8/6Yr9D06eJJh3v/2tY7sQ7P/WW4a3Cbo57M0/U2Dfq8LW8cEV/Fu3viYLB14V9n4+nUB5y2Tof+Hlw8D/5rCV1zavhe+zWmb+1EVdGGCAAQb2bIX9+980nbku8Myzzz5b3KZHsD9ZtHMmf2z+Uzx7sPm/4FQE3vNC+iZX7M85KTC+p/70+qdC/GJ94/v2D2o6OV91sP9MeKbh3X0metWV/i1w60B488cWfaSPGGCAgd0ycMmBI+HQVa+ufP+Orx24dA198eq3hUNHbgiX+EW1sl92y8Za1rPqYL+hoW3diifdeuf2y8Pe9y32tXVXDLrnB/vN/pIg+2uD+BcIO33F/pFbBrccuv21007ffvXgSv68Dem5+28MW1WfP/D+Gwe38/lE+RZGaxiDGrpZyz6ibdPe1ERNGGCAgfCNb3yjuHf+REa54A/x/vuC/cmiCfbLO1fjYL/qdj6Tgfye4dX5Kegf3Bt/8hY85dB+cPA1uZzyNMVyJgL6yenHB3Cu2B/XwgG3WjDAAAMM9MvAvND7gqsOhSMHLl38F61LbwhHDr0tXFA+hmr6cxGKHwpvfXWz/qgP9l8dLrjqhnBkHQH7CoP9oh+OHAlHRl+7c8Jg6f5v2s/5dDPr9erw1kNrOkGTt7Hp9y0O9he9D358zxicUGhjsP/KsPeOW8J599R8XkDqx/uvD3tT3//x8JY7n728elz8lTcOP1j43eN50rweq2umLurCAAMMMLBnK9xww8Hig3EnI+nFf4ofsCvYn6xbS4L9fxY+8Pl7w733Nvn6TDjwa+kXxUHgPbnJ8adhKB+vvJ8IyLfCnh0L9gche21bJq7cnwzqmwb708sePONWPMmDR6EeAwwwwEAXDFwaDjQJgYswdXi1ewzjR/PkIfL093VXx4/szFvWvNB/ZcH+oC9nn8DIazW9rdM1yU84DALn6WkaLCedMBn2waxlzK33nq0Qt3HWMvLXmv4FQ9NgP0431ca6PiyerzgxkT/foCaD7alYTgwHcn/zrO1EmJAC4VXdiqdhG1dxxf7Kgv23Z1f9v39/2PrwlWHvB7PnGvxVwNahK8PWzfvDVj7tvL++SbcUyq+yb1i/0fiVpv/wTYOr74+9cRy4DJc/eXue/D1j+DkJ998ctt6QP+/7qfqmOnsc+1ILtWCAgR4buPfe++oiy5nPf/vb/y3cd9994ciRfxfih+5eccX+4qvr7zudvMf+P3rH0fCVBsH+V45eE/7RaGeZDMiLjs9uxXPopofCMyFm+x8aDzCNg/16e+kK/fIV+zm88tX7RXifTjiUrvRvGuyP15sOLl2xn9fc98mFRxYYYICBdhsYhNVTYevo+Cfr3zxQLb3eNNidqlXjK/YXDdVjeJ2C9epQ/cBV8RY480PupuF22rYUnDepafEXBAduCIeOHAqHlrzSfNHaF+1LJwtK/Zi2Yc+eQb3zbS/W06Be+YmB9H2qxQWXxm09Mv3XHUXAnvorBe7x51eHC8p/jTF0eOBAVVi/3BX7RU0E++PfYWpdbIU9KbA+mI0Ns6bPXqu6Yn/v0QU+JHeBD9Tdum5O+1YR7L/mVWHvrekDdUv33k/L/8SF1XXdd/nwnv23TN6zP6vXeH+csy3mqa6xuqgLAwww0EkDP/zhD+tD1OEr3/rWt8Idd3wq/O7v/l74B//gH3WyDk2PEzoZ7O/Z84vhn9/0Z7Ov2v/8h8I//4X8IGp2sF8UtAj6s9vjNA72F78VT+rAcqg/+HDe/D77k+2eH+zn2+z7VGePLDDAAAMMdNPAAsH+6Jej6qA8hbjjx6rgteSocbBfmi+1pQh5s0A4PV/5OGh3Cpmn+zPWoumyKtqTrh5vEhAPpy2C82FQHe+xPztgXubkxnQfLBvsT9drXIPFTi6kOjd1VDoRkOp8JP4FyaXFrXfG5qpP1NT3+WAbZtd9vJ2zarDUa+mK/WP7w7wPiJ18ff8gFK682vxVYe/xOWH5fYMPdX3pPXOmu/lV078IrzjYX6pulfv3DvbT1Pp+Nez982EN4wcP33dT2Hvlvslavevdg6v4v3x12Luvom3XDl+//7awzF8/tLNuFXWYqq1p9C0DDDDAwGwD5VT/0UcfDbff/vFw5ZVXhb/3914x+X7sfSZ0NNiPSC4I7zj6lepw/0tHwzsuKEOaDMiLHS27Yj/teDE4H121v8PB/lSoP7wFz2j9BeDJdpeD/dHPxbaUd4+an8u3HLKjGDgYYIABBhhoqYFlgv3yMdJWaBTs5rc9aXDl97wwtjj2KkLehmH8MBCuX24KnKe3Lx3n1T0WwfCRBvd2TzXIw/8s2B9vUwyop0P5yfXPO1FRvR3rD/ar2zXYttl9ENs++EuLWJtLw4G8jsUYNKhJ/pcGkzWrXvfag/0YDi/ztWyw3/TK9xnB/tyTAlXrKE4ozLjH/sGDy9WhqN3BXbxX/cVh6/MHw9Yd14etLxwetvnWsPWB/ETIa8NW/FDf+28L58UPyM3D/QsvD1v3jPtcsF+9XzbZd02jdgwwwEC/DFxyyaXh61//enjb234nnHfeLyz0+9cv/uK+8OY3/3ZxK56vf/2RIvA8efJrCy2jjd46HOxvhT2/cGk4NHW//T8Lhy77xYqOnQzIi86sCPYnOnnHgv10j/38Sv9B+6bu8z/nVjwTJyL2bIWpkwVZUFOcBIifKnCiXwPHRJ9m9fA8BwwwwAAD7TcwP9hPoXW8KvrApQtcZR3D+zx4XeDq/LjO+gA+c7dIsD8M1euXOztUruvr4qRGvp1Vxwop0D9wQ/aZBtVXl09ffT4MsRucDJmed7COPOgu+nOJW/HUbX98vsmJnWKatA2165/VB9HeofDWS+MtlAYnPSaWmZZd85jXoLwtaw/273pn2JvfH37u9+8M58UwuzLYz/aPKov7zg97339xxe86c+ZLy0q3mJl3tf/Swf4tYeua86f+gmHvkVvCS++f9dpuBvulWr3v4KA/YvuuzF5785XhvPTXEffdPDgRcGz4obpf+J2w97Mx3L81bL09myfV2ePyRtVO7RhggIHeG3jlK/9+Ef7/yZ98Ijz22GOVVy2fOXMmfO5zn+t8rbod7Med/YJrwtEvpQ/S/Uo4+o4Lajp1J4P9SmPFk+MQPa1/GOo/ezxrZwr1nw/PF3NltwMqDWijK/SL59MySweT6er9tI708+i+/aXpS+so/7LkZ/VigAEGGGBgUw3MD/YHfbfcldAT/b5ssD+80r4utJ79/Phq/ksODO5jX0xfGSzPCpXr+69RsD86Vmq2jrnLXOSExmjdg23YVrCfTlDUhOdVfVEO1IttS/Vv2LeDZcTa3RAuKeaZ99cM9f01YXJYm7UH+7v24bkvC3s/cWtxFfnWrb+a/S5RUa/8CvPc0M0fCOd99dZQeQ/7Cy8Me69+Ze1yB/fT/0DYW/dhscUV+7eGrQ9Pf3ju1mdju2e9tsZgf89W2PuJ4ZX75XvqX3hh2PrsTeOA/56bwtaHLwx79r1meDufGX/BkNfd97WuqvZpz1Xs0wwxxAADHTVwwQWvCddc867wmc98Njz11NP1AWvplRjs33zzH3XeRfeD/T1b4Rcu+1D4s3vvDX9206XhF2qhD8PzEoQwK+ze1hX75TfjmhB+ePudkEL4PVshXVk/eUuewfImgv2Zf3GQb2/9iQIHTeV+8jMTDDDAAANtMrBksN8g4J26Mn7ZYL/22Gwr7GkccA9u2/LW9JcAsS0HLh3c035WSD28Er8IfmdNN+u1iav5B/WuCsCnnpuYLzfVfBnlUD3um4tsS9X8U/t37IPatubtHnw/EexP9W3ctvHJmIl1pfWUgv3521OzvGzd3Qr294Wt47eF875wddgbby165f7BleI3nD/4xXXfhcPbwJQ+7DXV41deG7biPfrvqLiqvy7sj/NecGHY+urwCvSDNeH+vn1hz/nTJkb9XAT7h8PWZ68ftDne6iZ9Fbe8mfXaeoP9PR+4cXBLnsYnaVI/HKy+B3/qD4+dD1xG/vW1vmaAAQYaGXj44YfDD37wg3D27NmphHbRJ+Itfbo+Dvci2I+duO+Xzp8R6scD0IpgfWYwvhUGH2RbCsXnzVO7I0+vPwX446v6swPlyvXkV/vn35fnG+8Kz5zIA3634en6Dm/7sn2hdl80DScMMNAlA9sJ9uuumh5c3V8Z7M8KwEuvleevDF9rgv2paS+9obi1T3y+vNyx5xmh8oz3hLlX10/M22wdtcsstnf69jrjbUg26//CoqhNumJ+om1p3vg4cDEV7BcndGK/58uv6e8UxJfWsXSwn5ZTEexvt0+nvKR17fRj+vDcxmFw6qPL6j88d1/pteF967dufc34F9c3/85g/nsOhr2/mZaZHl8V9n6+JqC/9t3hvPtuCVvvG54kKG7Lk11xnpZ7/81ha39a3vDxgteGvXfdFl76hd+ZvN98XuOirdny8tfK65p6bSeD/YvD1lfjXwzcFPZeVNqu1I6bb1os2L/y6sHtez7/lnG/pGV5VBMGGGCAAQZqDXzrW98ah5ZLfveTn/wk3HfffbXrmD62rnn/b0E/9SbYX0mnpavnM1hTV81XBu5NgOTB/jBsb/QhtpPBfAjDEw1FWwf36B/cV3/Y6DnLTCcTBlPn9/hvsg2mWYmzFgwctpN1BhhgoC0GthPsz75H/FTYus0r9ivD10bBfgyeB1dttzrYL0L1xT7nYCqYT1fsLxnsj0P5PNiv+8uJ6sB/vIyBvam/VCid4Bm8nl11XxHsz15GNm/NMVSlrZppVzq27USw/653Dz6w9fbXDn5ZrQr247YN75V/3pHhdPnV+L/1lsrgf3C7meye8FVh+8Hh/ebzAD8tO63z2Burw/1hW19ae3/+20L9azsZ7J8/PNlxWzjvw/kH5KZx/pXFX0kUH5SbXn/DW8JWvL9+zecgpFsiVS8vLdfjSve33dinraMXIRmXxiYG1msgBfsxnF/23wsvvBAuuuiSXoxZgv1Vvzk3DvaHV9TnSrPb7RhI1juQqL/6M8AAAwx0w8B2gv0Fr9jf5jFVZfjaNNi/6tLiwH0zgv3ZJ0RGIXV+e5uJ7SyF6pV1rZ+mqONSwX4e1E8vfxzYZ9NNtHswZoynqxpDosc5QXxFsD91EmlUkwbLSyc78nqP5q9q4wqf24Fgfyp8rwv29/1q2PvBeK/34fbEtsQPeH3/8Mr+Px5+yOtnLx/80vsrbxyE/V++evxLcFWwv+eVYe8dN4fzbv3N4XT7wtaxw2Hr2P6wJ7525+Ae/+dV/ZXCde8M5331A2Hv2xf88Nxb433/3xn27mS/pZMO99wYti7PDbws7PnosFb3XB/2/kp67bVh68s1f/mQPmz3nne7Dc9O9pllj/dVtVALBhjokIEY7McPxP3ud78bfv7zn+epaePvP/jBm3pjQrDfIfzdCCDSwbJH/ckAAwwwwMD2DSwe7McPoX3rVTeEUQBdeYX19C1v8lB9MlzOguDiuGs6NI7bWcxTDl8rguPaaYfL2G4IXK55EVSX21V7/NgsaJ69zEF95tU/vr7SK/Ynal3dR4PaTG5jOcgf/RyXN1W3yXnLtS5+rgj2Z9dizomCOlu1fbjCcWfVwf6+iwf3z//q1eOQuy7YL29fmu6Ph1ekx+D/z4fB9Nu3wp4PD241M3GFeWWwX67Pawf33k9t2lcReL/54rD3fdMfmJs/N+vDc/Pp9r7v4rBnFK6X25L9PPzrgbor6qftvTLsvX0Y4N8fT1TE+/8fHIb3t4WX3ndT2HpztvxY3xuuH9xu5/7bwnmfPzj4vIDiswJqpi/3iZ97E7pMeytZYoEFBhhgYGQghvJXXLE/XHLJpeGb33wi/PSnP20c6McJ//APD42W1YfxV7Bv5+kV+D7s1LbRgTIDDDDAwNjAYsF+DFCLYHx0r/WqWpaD+opbtUyExFthKsiuuG1PN4L9qnot+tysUD0tq36ayZMqafry48BFfmJgso/qlz/4QOO6v+aY/PDe6ZMsywX708tJ29NgeZsQ7N/1zrnB9mR4/c5BYFy+zcsN1w9uw5NurxN/j0mBfX6P/Yrfb/beHq+kPxy23pVqtxX2vP2NYeua88OeURh/Y3ZFerqdT3Zrnorl7vmttwzaml+hP7wX/3nH3zj4PePmeMX9rbO/4m1t7q+5Fc/EvB8Ie9+QbUNVm+JzCwf7w2Ve85awlcL52J57bglbRy+v/1DgKy4PW5+/ZdD2OH38jIKj+8PeCxu0sa7tnvf7KQMMMMAAA4WBf/gPXxX+83/+z0WwX/dhuv/rf/2vkG7bc+DAe3pnR7BvZ+kd+nHY4YBbLRhggAEGum6gYbBfukp6T0WwXwTGo6v386ukK4L+4YevjgLZUtC/p/x6Cl9Hy29wO5upq8EHoXJa52R7ZyxvajmD7cmvEs8D8Mp9pti+GeuYuV3lkHx6/Xlb8u+r2tV4u2uu+B9t3/Ce//n60vepxqNpR8fTVRbyfaxBEF+yGLendn1TrvJ1jb8vajLVz+PXp7djRa+lK/Zj4LvMVznYj3U+//ywJ/9A3LcPP6T1C1eHvW+YvsXNnovOD3tuePfgNjv3H6y+Ncxvv6W46v68T1w4+XtB+sDYz18d9v52xbJ/+7Kw9fnBrXe23r9vct4rf3Xy55GRmto2+uuAmnnnLdvri/WFeqkXAwwwwMCGGXj9698QTpw4UXnl/n/9r/81/MmffCL89m//q172m2B/w7Du2C8WtrOXOzhPfgFkgAEG+m6gYbC/neOEiqvvo7vJK8AH7ZgIouN8c+8FX91/dUHtzBB4O9u4q/MOwvGJWk2tv36aojZz61rRH1PrqK79jo8p84L98kmUBoF9nZcd35YU7Mf7z8eAvfHX/kEQXxXsT/XTa8LWF5qdODjvj2eF7S+bvip936+GrbvmL/u8Oy6rOc5+zfB2P/OXseiJj605f6Gw43071Q9r2l+0o8ae/rAPMMAAA1018Pf//j8Ir33tb4Tf+q3/J/zyL886tumHAcG+gyEHQwwwwAADDDDQWQODAHdwpXX5yvB+HOx29Zca29XAb/5XBw1OAKy8pm94y+D2M0cvXnCMvThsxdvPHH9Ls/n27Qt73jXrHvaXhb2XvqzZsqbGwpfNPiHx63OW+08WOaGxwLSvadD/U9tinpUbV+Ml9ysWWWSAAQYYWI0Bwb6DEQcjDDDAAAMMMMAAAwwwwAADDDDAAAMMMMAAAy0yINhvUWc5m7Was1nqqI4MMMAAAwwwwAADDDDAAAMMMMAAAwww0GYDgn3BvjNxDDDAAAMMMMAAAwwwwAADDDDAAAMMMMAAAy0yINhvUWe1+QyStjsDygADDDDAAAMMMMAAAwwwwAADDDDAAAMMrMZAp4L9c899SfClBqs2YLBZzWCjjurIAAMMMMAAAwwwwAADDDDAAAMMMMDAagwI9p0McDJkjgGDzWoGG3VURwYYYIABBhhggAEGGGCAAQYYYIABBlZjQLA/J9Rd9dXflte+vygw2KxmsFFHdWSAAQYYYIABBhhggAEGGGCAAQYYYGA1BgT7gn1X7M8xYLBZzWCjjurIAAMMMMAAAwwwwAADDDDAAAMMMMDAagwI9ueEuq6wb98V9qvuM4PNagYbdVRHBhhggAEGGGCAAQYYYIABBhhggAEGVmNAsC/Yd8X+HAMGm9UMNuqojgwwwAADDDDAAAMMMMAAAwwwwAADDKzGgGB/Tqi76qu/La99fwFgsFnNYKOO6sgAAwwwwAADDDDAAAMMMMAAAwwwwMBqDAj2Bfuu2J9jwGCzmsFGHdWRAQYYYIABBhhggAEGGGCAAQYYYICB1RgQ7M8JdV1h374r7FfdZwab1Qw26qiODDDAAAMMMMAAAwwwwAADDDDAAAMMrMaAYH8i2H9FuOrIyfDc6bNh9O/0c+HkkavCyyeme0m4/CNxuuFUPzsbTj/1xfAHv1YKwX/tunD8W6fD2Z9l033rRPj98nT5sn/pcHgsrv6pTze+kr5RW95wONz9VNaW06fCY8euC7+cr7v2++Z1efm7T4THvpcKE0Koqd+qw/edXJ7BZjWDjTqqIwMMMMAAAwwwwAADDDDAAAMMMMAAA6sxINjPwuzLP/NkKCL900+Gk3edCMfvSuH92fDkZ14/CtpffuSxienu/otTg59/eDK8Ny3vl94XTv4wBvpnw6m/uDscP3YiTEz3S6WTAMV8rw93PjU8qdAw2G/Ulks/HZ4cLvb0UyfDF499MZx8ahC+n/7a+6ZOWpRD8sZ1ufFkKJZ69lR47J7J+j125BWj+pWXv+k/G2xWM9ioozoywAADDDDAAAMMMMAAAwwwwAADDDCwGgOC/RTEn/vB8PUz8Qrzk+G9eej+S7cMnj/zSPiDYtp3hLtPhRDOPBJuyaa7/NhzxWX5z524pAiwLz4x/PnY+IRADLAvv2tyujzUHizj7OAK/0bBfrO2vOOe2OAQnptoyyvCe78WY/hT4e6rq04ypOea1uWScPzZeB7jyXDnG9K8Lwnn/tLR8Fj8i4VnT4TXjWqdvd6C5ww2qxls1FEdGWCAAQYYYIABBhhggAEGGGCAAQYYWI0BwX4Klq/5YnjuZyHEK9jzsD1+f/gv4uXuT4Y747RvuzvEmHx6usODAPupTxdXwB99JM7zXDiehf/Fct/wxcr5Xz682v25Y4fDyZi3Nwn2G7blzqdCCD97LBxO25oeL/1iiKcZTt933dQ2j2qwYF2eu2twYmM0f1pXix8NNqsZbNRRHRlggAEGGGCAAQYYYIABBhhggAEGGFiNAcH+3MB5eFV8CsY/9WRx9fuTnylfdX5J+OJ/H17xP2OZL7/9sWL+U1++ahymD2/bc/apT4fLz31f82C/YVuKYD/+hUG5XcNgv9FJhPK855bq8plYl9Ph5I3XhePx1kTDzxU4+8Mnw/Hrf2W8rVPLKddx83422KxmsFFHdWSAAQYYYIABBhhggAEGGGCAAQYYYGA1BgT7c4LmdH/5sw99cBBOjwLs6QC6CNDTlf1Vyx3dd/+5cPzSNP8rwuHHz4Zw9rFwuLi6f4Fgv2Fb/uCh+NcDZ8Njt08G7Om2QMsE++W6/P59g3v2n42rih+YGz+j4J4nw+ki4D8dTr4nbW/7Hg02qxls1FEdGWCAAQYYYIABBhhggAEGGGCAAQYYWI0BwX5VAD987vKPPDL4MNj4objDW+q8rrh3fnVQPTPY/6XrwhefHQTs+QfxDgLyeKV7+nDZ5sF+47a8IX14bvog3+GH5549HU7HzxVoctufrE5VdRncr3/4FwvZ7Yde/u7BrYviPfYvzpbRplv1GGxWM9ioozoywAADDDDAAAMMMMAAAwwwwAADDDCwGgOC/cqw+RXhqmNPhhjDhx8+Eg7nHwbb8Cr5ieD61z4YThafX3s2PHfXdcU9+IvX3zC8x/3X3jd+bpFb8SzQlpdfeTic/O+Dq+rjZp3+7yfD4SsPDz4YuHGwX1+XFOxP3GKoqO0rBh+qO+svGSr7YHOu7DfYrGawUUd1ZIABBhhggAEGGGCAAQYYYIABBhhgYDUGBPtTofKvhD/4WpHCh7Pfu3t0pf4oqG94X/s0/cuvPBGeLM4QnA6P3f76iXvNpzC8uOl+zX/xRb7CQQAAIABJREFUQ3qrpis+vHfBtqQ2jR6H99g/+8gt4dz3nBz8dULejtMnw3tH9Zldl4vvih/DG8L0Zw+8JMz8S4bR8jcnyB/VZ9g2g81qBht1VEcGGGCAAQYYYIABBhhggAEGGGCAAQZWY0CwPxEsvz4cfXxwVfvpx4+GyydeGwbPbxvcWqYI1idePxwei/eTf/bE6Or7l994dzhV3H3nVLh7dKudcYB98Y1Hw/FjJ0pfd4cn4+1xTj1SPH/0xkvqg/2GbXnHn8fQ/VS4+23jdcfw+uXFFf8xjH/FnGC/QV3+6JHiLxym6zL8UOGqD++dqN9k28rh+jp/NtisZrBRR3VkgAEGGGCAAQYYYIABBhhggAEGGGBgNQYE+6Nw+RWjAD2G0y8fPV8OnN8R7o4X9MegOruX/OXHBlesP3fiksFV+em+9mefDHfmt/KpXW5aT/N77J97bsO2DEP3U/e8Y/wXA+mDfH/2WDiabcd0gN60Lh8c3NantL0vv3H4lwCPH51R07Ttm/losFnNYKOO6sgAAwwwwAADDDDAAAMMMMAAAwwwwMBqDAj2U9B+9fBDXn92Ojz3rSfDk1NfXwx/MJz24k8N779/+rlw8q4T4e6/ODW8H3/6kN1XhMOPF/ffCWdPVS3ryfD1T101DtlTG4rHRYL9l4T5bYlh+fAEQDgbnnvoi+H4XSfDk8UfJpwN+Qf5Tof6LwnnLlCXwQcBhxDOngqP3XMiHL/nyXA6/hVDKeyvXM9EDTYr4DfYrGawUUd1ZIABBhhggAEGGGCAAQYYYIABBhhgYDUGBPvDQPmqLw/uq5/fYn7y+yfDnaPw+RXhqiMnw3Pps2h/djacfuqL4Q9+LQXSw9vyTC5g4qfpW9akeRcL9s89d15bhsv9tevC8W+lBsdPz30unDxy1dyr6Bery0vC5R+5Ozz5w8FJjbjBp7/3SDh65StqTmKkbd7sR4PNagYbdVRHBhhggAEGGGCAAQYYYIABBhhggAEGVmNAsD8K6zc7XG7bVe5daq/BZjWDjTqqIwMMMMAAAwwwwAADDDDAAAMMMMAAA6sxINgX7Lf6avrdOIFgsFnNYKOO6sgAAwwwwAADDDDAAAMMMMAAAwwwwMBqDAj2BfuC/TkGDDarGWzUUR0ZYIABBhhggAEGGGCAAQYYYIABBhhYjQHB/pxQdzeuCLeOzb4NksFmNYONOqojAwwwwAADDDDAAAMMMMAAAwwwwAADqzEg2Bfsu2J/jgGDzWoGG3VURwYYYIABBhhggAEGGGCAAQYYYIABBlZjQLA/J9R1Nf1mX02/G/1jsFnNYKOO6sgAAwwwwAADDDDAAAMMMMAAAwwwwMBqDAj2Bfuu2J9jwGCzmsFGHdWRAQYYYIABBhhggAEGGGCAAQYYYICB1RgQ7M8JdXfjinDr2Oy/CjDYrGawUUd1ZIABBhhggAEGGGCAAQYYYIABBhhgYDUGBPuCfVfszzFgsFnNYKOO6sgAAwwwwAADDDDAAAMMMMAAAwwwwMBqDAj254S6rqbf7Kvpd6N/DDarGWzUUR0ZYIABBhhggAEGGGCAAQYYYIABBhhYjQHBvmDfFftzDBhsVjPYqKM6MsAAAwwwwAADDDDAAAMMMMAAAwwwsBoDnQr2oVgNCnVURwYYYIABBhhggAEGGGCAAQYYYIABBhhgYHMNCPb3bG7n2HH0DQMMMMAAAwwwwAADDDDAAAMMMMAAAwwwwEDZgGBfsB/KKPxsoGCAAQYYYIABBhhggAEGGGCAAQYYYIABBjbXgGBfsC/YZ2CmgQceeDA8/fTTU9McP348lP+dOXMmXHvtdVPTehPY3DcBfaNvGGCAAQYYYIABBhhggAEGGGCAgfYZEOwLdYWwDFQaOHz4Y+HFF18ssvuqYD8G/qdOnQr797+pcn5vCO17Q9Bn+owBBhhggAEGGGCAAQYYYIABBhhohwHBvlBXKMvAlIEU2ser72N4L9hvx4DujVc/McAAAwwwwAADDDDAAAMMMMAAA/0wINgX6k6Funb+fuz8Tfo5Xo1fF+zHsN8V+6w0cWQaThhggAEGGGCAAQYYYIABBhhggIHVGhDsC/YF+wzUGpgX7Of32Hd//dUOzt7s1JMBBhhggAEGGGCAAQYYYIABBhhgoM6AYF+oWxvq1qHxfH8GlFnBfu4gTRfvyR/vzZ+/5vv+eNHX+poBBhhggAEGGGCAAQYYYIABBhjYHQOCfcG+EJaBWgMpsK+6x355kI73449X7cf785dfq/v56qt/L3zkIx9tPH3dcjy/O28Y6qzODDDAAAMMMMAAAwwwwAADDDDAwGYYEOwLdYWqDNQaWCTYT9NWBfsPP/xwftee0ffPPvvt8Pzzz4dHHnnElxowwAADDDDAAAMMMMAAAwwwwAADDOy4ga6cmBDsC3VrQ92uILcdy59FTGH9dq/Yv+iiS8IVV+yf+jp27Fh4/PHHQ3zdlxowwAADDDDAAAMMMMAAAwwwwAADDOy0ga5khYJ9wb5gn4FaA3XBfnw+hv3x9jtxMEzTLfoBuvE2PPFq/q4MqLZj+ZNIaqd2DDDAAAMMMMAAAwwwwAADDDDAQHMDgn2hrlCVgVoDKbCvumI/3VM/3Vfn1KlTRcC/yAAs2G8+WC9SV9OqKwMMMMAAAwwwwAADDDDAAAMMMNBtA4J9oW5tqGvn7/bOvwn9K9hnbBMcagOHDDDAAAMMMMAAAwwwwAADDDDQNgOCfcG+YJ+BtRkQ7HvTbNubpvYyywADDDDAAAMMMMAAAwwwwAADm2BAsC/UXVuouwk7gDasdyAW7K+3/vyrPwMMMMAAAwwwwAADDDDAAAMMMNBOA4J9wb5gn4G1GRDst/ONwxu+fmOAAQYYYIABBhhggAEGGGCAAQbWa0CwL9RdW6hr51/vzr8J9RfsM7AJDrWBQwYYYIABBhhggAEGGGCAAQYYaJsBwb5gX7DPwNoMCPa9abbtTVN7mWWAAQYYYIABBhhggAEGGGCAgU0wINgX6q4t1N2EHUAb1jsQC/bXW3/+1Z8BBhhggAEGGGCAAQYYYIABBhhopwHBvmBfsM/A2gwI9tv5xuENX78xwAADDDDAAAMMMMAAAwwwwAAD6zUg2Bfqri3UtfOvd+ffhPoL9hnYBIfawCEDDDDAAAMMMMAAAwwwwAADDLTNgGBfsC/YZ2BtBgT73jTb9qapvcwywAADDDDAAAMMMMAAAwwwwMAmGBDsC3XXFupuwg6gDesdiAX7660//+rPAAMMMMAAAwwwwAADDDDAAAMMtNNAp4L9c899SfClBqs20PfB7YEHHgxPP/301Amgw4c/Fl588cWQ/sXv43OL1Euw3843jkX62LTTfbz1kevDS++/bemvrQP/aqH9TB9M94GaqAkDDLTBwP849L+HcOScpb+uu+jver9wERcDDDDQdQMv+8Wlf69Iv5Ps/fX/m5OuO7F9nTUu2HcywMmQOQba8IvfTrQxD+7Lwf7+/W8K3/nOdyaC/HgCYNFwX7AvWNkJu5u+TME+95tuVPsYZWAzDAj2N6Mf7A/6gQEGNtqAYL+zge1Gu3OiYGPcCfbnhLqrvvrb8tr3FwV9HExjSH/q1Klw7bXXFY/lYL+qJnHaM2fOhDhv1etVzwn2HSRXuej6c4J97rtu3PYxzsBqDAj2V1NHHtWRAQY6bUCw3zh/6LQDQXtvHQj2Bfuu2J9joM+Df7wyPwb8gn0Hw33eD1a97YJ9+9OqTVkeUwx004Bgv5v9an/VrwwwsFIDgv3eBrordeTEQGsdCfbnhLqusG/fFfar7rM+D5aLBPvHjx93Kx5vhq19M9zN/Vyw75e53fRmXbwx0F4Dgv329p39Tt8xwMCuGRDs+x1UDtFrA4J9wb4r9ucY2LU35A0cjJsG+zHUj/+aXNmf19OteBzw5h768r1gn/u+WLedrDOwPQOC/e3Vjz/1Y4CBXhgQ7Pc61O2F8Q3Myjap7oL9OaHuqq/+trz2/QXAJu2wu92WecF+ej2G+ovcWz9th2DfwXay0KdHwT73ffJuW3lnYHkDgv3la8ed2jHAQG8MCPYF+4LvXhsQ7O9QsP/er50O4fTJ8N58+Z95cvjc+8LJ02H69Xzaie8/HZ4Mp8PJ9ywSig/W8eRnKuaJ7Xjq07t7pf57TobT4clw58R2VbRtA1/vzQFBxZtBCu6rrsRPH5b74osvhsOHPzZzIL3++gMhhvjlr3vvvS88++y3Q3zdlxr0xcAv/4d/E156/21Lf134iUP2F2MGAwww0AMDP/rI3wrhyDlLfx17/+vCgQM3jKyUvy//nN6H4/OzXlv1dE3WFdc5a7pZrzVtb5NlzGvHbq4rtTc+pu+r2rfsa2lb8mWW1zXrtfJ6yz+n5efPz1revNfy5eXLLH9f/jmfL30/b11pGfExfZ/Pk75f9rWm7UjTbacdaRmpzekxb3t6Lj3mr5W/z3+O01fNk55Lj1XzNHktTlP+istadnnLzlduQ13b0/JX3cbfP3hw6d8r0u8kb73pxolazmtj021O081bXqpNmj49LjNf1Txp+VWvrXpds5a3m+2Yta5Zr81qf3wt1TAtI02fv1Z+bpnX0jLS+tLP6TE9n7cjfZ9eS9PGx6rXupL1CfaHQXIRxBc3E1niv2FIfudTM+aNIX8W7L/3PS8Jg+knw+7YjtNfe18pdK8O9qunzcLyuL4QwkS4Xzx3Opz8zPsmTzpkgfoitZhua7b+bJnnCvZnBt+bOqDUBfvp+fjBuvH7ee3/5CfvCA8//PDU16OP/kX4/ve/Hz71qU/5UoPeGPinX/r4tg6+33TXx3tTK2ODsZEBBvps4Pkjf2fpUD+eEPhPR9/s/cLxFQMMMNBxAx+/445t/W4Rw/0//OyfctJxJ30+nqrb9nk5VlteF+zn4XPF94OQezJ8b3I7nWK+2iv2a8LvYv0xxA+lcH862B+063R48jPjkwAzTyzMOOcQX8oD+sq2T9Vm8BcB+XyD8H7OiupeLtdqan2zarazr7VlZ96JdqYAv3zFfrxC/8yZM3Ov1J/XJrfi8Sey84x08XW34uG+i65tE9cMrN6AW/GsvqacqikDDHTOgFvxzL3QsHN9XnG3BdvY37FNsD8nQG4c7A+vjq/LrWc/X77NTjncnwz2q670b3Kyoek0Swf7s2rpiv1WvtnUBfvpw3KrXDe9ij++8Qj2+/vm0+cDD8E+9332b9v5Z6C5AcF+81pxpVYMMNBbA4L9VmYtvfXqpMTKvQr2Z4XR574kNA72J5YzCOYnboETX18k3J6YNgv2J56fvlK9/qr9dPIgW9a51ffhF+xP1tWAu3MHiYL9nastt5tbW8H+5vaN/UbfMMDAJhkQ7PO4SR61hUcGNtSAYH/lQSnrG2rdSYFK64L9iUB+MtCNV7gPgv3T4fQiH3Y7upd+eXkxVB/f1qdZgB6XkYfx5WVO/hyD/Ynb44xOKAj2m/7FQnk6g/rODeqC/Z2rLbebW1vB/ub2jf1G3zDAwCYZEOzzuEketYVHBjbUgGC/MuzkdUO9CudX7lWw3zDYP/mewdXtIaSAfDJQH4TvVTcmSc/F+fKAflX3qB+fKIiB9PqD/biNC/4bfvhwOVDflJ+9IezcG4Jgf+dqy+3m1lawv7l9Y7/RNwwwsEkGBPs8bpJHbeGRgQ01INhfeVDK+oZad1Kg0rpgv1GwPw7PB1fwV1wVP1zO+Cr8PMRPJwGyW98U9+QfL3epELvitjwruxVPw2x+6q8DKusZt7vuhEiqzeY+GtR3blAX7O9cbbnd3NoK9je3b+w3+oYBBjbJgGCfx03yqC08MrChBgT7lWEnrxvqVTi/cq+C/cogehwyD4L8cgA/vCr99Mnw3nz+ImhPAXZVsJ+uqP90OHm6/uRA45C/JtifCttr25WdaMi2Y3xyYlyH6TZV/MVBsYxBbeLnCxTLGV6NX73MdgT+3hB27g1BsL9zteV2c2sr2N/cvrHf6BsGGNgkA4J9HjfJo7bwyMCGGhDsrzwoZX1DrTspUGldsJ8F2tPhdbrHfjnYj4H3INgO2W1kBicBai51H54EGE9TtcxB8F+zhJqnJ5ez9lvxZCcb8mA/1at80qE68J91QmH3XzOo79ygLtjfudpyu7m1Fexvbt/Yb/QNAwxskgHBPo+b5FFbeGRgQw0I9ivDTl431KtwfuVeBftLB/vzAubqK/bPLYLvEOIV7VUnEhZ6LgvR03wruxVP+a8RpupUfcV+HtRPBvsvCYNtH5yIGE9XvZy0PZvw6A1h594QBPs7V1tuN7e2gv3N7Rv7jb5hgIFNMiDY53GTPGoLjwxsqAHB/sqDUtY31LqTApXWBftTgfVk4F4E0GHyqvhmYfPwdj3pOvsiKB9e5R+yYH/iNjmT6567nppgv3xV/CBQT7cIytcxaE/5JMM4dM+nLX9fFchPPjcV7Ge1nvjLgortmLvt2bJ2elqD+s4N6oL9nastt5tbW8H+5vaN/UbfMMDAJhkQ7PO4SR61hUcGNtSAYL8y7OR1Q70K51fuVbA/JyBuHuyXgvwi0J8M04ur6U+fDHd+Ld5gf3h//u18iG5FID4RmKdtqz15ML4ffh6OLx3sl9ZTH+xXn1DI27BJ33tD2Lk3BMH+ztWW282trWB/c/vGfqNvGGBgkwwI9nncJI/awiMDG2pAsL/yoJT1DbXupECldcF+Cr9rHpsH++Ur2idvxTO4RU668n8cbOfh92CadIl/08e0zMH6J4L94qTBcDnpRMK56XMD0vIn54+B+mCb0+uzH6f+OmCijlUnO6bbs0khflVbDOo7N6gL9neuttxubm0F+5vbN/YbfcMAA5tkQLDP4yZ51BYeGdhQA4L9yrCT1w31KpxfuVfB/kQQXQ7nU8g9HX5XBcCTz2XBfgzYs2B9MN049C7fCmdyOdNtGr1eccX+6LU52zVruiLYn2pvuR2Tt92Ztby2v+YNYefeEAT7O1dbbje3toL9ze0b+42+YYCBTTIg2OdxkzxqC48MbKgBwf7Kg1LWN9S6kwKV1gX72wjA2x5Ya3/5ZEX1zwb1nRvUBfs7V1tuN7e2gv3N7Rv7jb5hgIFNMiDY53GTPGoLjwxsqAHBfmXYyeuGehXOr9yrYF+wHwT81YF+qos3hPo3hKeffnp0r6YzZ86Ea6+9bqFBSrBfX1vuulsbwX53+9Z+q28ZYGCVBgT7PK3Sk2XxxEBHDQj2F8og7Acd3Q96fMJAsC/YF+zPMWDgnx749+9/Uzh16lTxFb+PNXrggQfDouG+YH+6trx1vyaC/e73sf1YHzPAwCoMCPY5WoUjy+CIgY4bEOwL9nscahvftoJgf06om67a9jj7qvYu18dAMX0gdPz48fDiiy+Gw4c/NnoTTWF/DPib1kywP13bprUzXXtrJ9hvb9/Z7/QdAwzspgHBPm+76c26eGOgpQYE+43zB8ZbatyJi5nGBfuCfVfszzFg8J8e/GOwX3V1frw1T/xqWjPB/nRtm9bOdO2tnWC/vX1nv9N3DDCwmwYE+7ztpjfr4o2BlhoQ7DfOHxhvqXHB/kzjgv05oW6Xr0S3bc3+CsHgPz34z7piP96iJ92eZ17tBPvTtZ1XM6+3v2aC/fb3of1QHzLAwG4YEOxzthvOrIMzBlpuQLA/M/Tku+W+hfpzfQv2Bfuu2J9jwBvB9BtB/JDceMV+HuLHsD/+y5+bVzvB/nRt59XM6+2vmWC//X1oP9SHDDCwGwYE+5zthjPr4IyBlhsQ7M8NPhlvuXHh/kzjgv05oa6r2ptd1d7lOnkTqH4TSOF+keaHUNyCx614qmvFkLrkBgT7POQefM8DAwzUGRDss1Fnw/NsMMDAyIBgf2boOaqTcFidOmqgU8G+HdabGwPrMzDrw3MffvjhlP9PPD777LfD888/Hx555BFfatAbA5ef/Gx46f23Lf31rq99vje1MjYYGxlgoM8GXjh6bghHzln665k/v8H7heMrBhhgoOMGvvbwQ0v/XpF+J/n3D97HSced9Pl4qm7bu5IfCvY7esamK0Btx/qC+kVrf/jwx4rb88TH8rwXXXRJuOKK/VNfx44dC48//niIr/tSg74YeOUnPrCtg+9X/dF19hdjBgMMMNADA6du+ZtLh/rxhMC/fds+TnrgpC/HT7bT7woMVBv4Z5ddtq3fLWK4/xtX7vd+4f2idwbKuVVbfxbsC/anQti2Ytbu3TsJEK/Of/TRR0cfkptuy/PAAw8u5Mk99nevz+wfm1Nrt+LZnL6wX+gLBhjYZANuxcPnJvvUNj4Z2BADbsWzUAbB7Ya4lcWuzK1gH6aVYTJA9muAjFfmv/jii6Nb68QPz13UgGC/X2YW9dHV6QX73HfVtu1im4HVGhDsr7aefKonAwx00oBgf+EcopMOZJu9dSDYh7+3+A3m6z+wE+yvvw/sB7vfB4L93a8552rOAANtNCDY57aNbrWZWwZ22YBgX6Yl1+y1AcG+HaDXO4CDjl0+6Cjtb4L99daf//XUX7C/nrrzru4MMNA2A4J9ZttmVnuZZWANBgT7Mq1SzmI/XMN+uMY+EOyvsfh2tn7tbPp7ur8F+9M14aT7NRHsd7+P7cf6mAEGVmFAsM/RKhxZBkcMdNyAYF+wL9fstQHBvh2g1zuAg5z1HuQI9tdbf/7XU3/B/nrqzru6M8BA2wwI9pltm1ntZZaBNRgQ7Mu05Jq9NiDYtwP0egdw4LGGA49snxPsr7f+/K+n/oL99dSdd3VngIG2GRDsM9s2s9rLLANrMCDYl2llGYt9cA374JrrL9hfcwfY6fq30+nzcZ8L9se14KI/tRDs96ev7df6mgEGtmNAsM/PdvyYlx8GemJAsC/Yl2v22oBg3w7Q6x3Awc56D3YE++utP//rqb9gfz11513dGWCgbQYE+8y2zaz2MsvAGgwI9mVacs1eGxDs2wF6vQM48FjDgUe2zwn211t//tdTf8H+eurOu7ozwEDbDAj2mW2bWe1lloE1GBDsy7SyjMU+uIZ9cM31F+yvuQPsdP3b6fT5uM8F++NacNGfWgj2+9PX9mt9zQAD2zEg2OdnO37Myw8DPTEg2BfsyzV7bUCwbwfo9Q7gYGe9BzuC/fXWn//11F+wv566867uDDDQNgOCfWbbZlZ7mWVgDQYE+zItuWavDQj27QC93gEceKzhwCPb5wT7660//+upv2B/PXXnXd0ZYKBtBgT7zLbNrPYyy8AaDAj2ZVpZxmIfXMM+uOb6C/bX3AF2uv7tdF3r86effjrk/44fP974jVWwz3/X9ocm2yPY576JE9NwwgADgn0GjAMMMMDAXAOC/cb5w9xaygfVsoUGBPst7DSDkTf3TTCwf/+bwqlTp0IM9pdtj2Cf5WXttHk+wT73bfar7fwysHsGBPu7V2uu1ZoBBlprQLC/dB7R2j6XY+rzzIBgPyuGndqbOQPNDTzwwINFsB8D/mXrJthvXu9la2y+zauxYH/z+sR+ok8YYGATDQj2udxEl9rEJQMbZkCwv3QewfKGWZbPLmVZsA/OUnAMgP0eAK+99rpw5syZsMhtd6rMCPb77ajKRB+eE+xz3wfntpFzBrZvQLC//RpyqIYMMNB5A4J9mZZcs9cGBPt2gF7vAJ1/k98h34cPf6wI9u+9977w4osvjm6xv+hteQT7DrT7uA8K9rnvo3vbzD0DixsQ7C9eM87UjAEGemdAsC/T2qHcp3f7UkvrKNhvacfZwRywrNNAvFI//otX7cer92NbYtgfQ/54i56mbRPsc9zUSpemE+xz3yXPtoVnBnbOgGB/52rLrdoywEBnDAj2G+cPnelzOaY+zwwI9rNi2Mm9uTPQzEAK9su34omhfh72z6unYL9ZvefV0evtqqNgv139Zf/SXwwwsC4Dgn321mXPetljoEUGBPtCXrlmrw0I9u0Avd4BHLAsd8CSbsUTH/Ma1gX7119/IMQQv/wVb+Xz7LPfDgcO3FB8xeniV/y57vtZr6V5VrGMeW3qUjtS3XZzm7ezrkVrX15X7qP8WnnZ5Z/zWqXvZy2v6rVf/g//Jrz0/tuW/rrwE4cq94+qdTVpY3kbyz+nZcTnZ72WppvXjjTdvOWtYl1pGbuxrrrtSs/ndcmfS8+ntu7Wa+X11LUjtatcw3z+ea/l0+bfp2Xnz8Xv5y1v2fnK66lbV1r+TrUjLT9vT9W60nRVr6V5l3lt0Xl2sx2z1jXrtXn1SNuclpGmj4/ptfJzy7yWllG1zHx5eTvS91Xz/OgjfyuEI+cs/XXs/a8bvV+ktnkcHGuqgzowwEBXDPz+wYNL/16Rfid56003er8YZhFdcWE75o9xeZbV5u8F+4L9iWC2zZi1fbmQfpm61X14bgz2T506Ffbvf9OEq09+8o7w8MMPT309+uhfhO9///vhU5/6lC816I2Bf/qlj2/r4PtNd328N7UyNhgbGWCgzwaeP/J3lg714wmB/3T0zd4vHF8xwAADHTfw8Tvu2NbvFjHc/8PP/iknHXfS5+Opum1fJgvbxHkE+4L9iQB2E5Fq0+4F9ovUunx1frrHfvn2PLOW6VY8m9m3s/rMa9vvM7fi2X4NOVRDBhjogwG34uG8D85tI+cMbNOAW/HItOSavTbQyWD/7772gvA3fu+y8Nfe8y/COe/d72sXaxBrHmsf+8Ab9DbfoFswOMdwP/+3SKgffQj2u2/EODDdx4L96ZpwoiYMMMDAtAHB/nRNOFETBhhgoGRAsC97akF2ZL8t7bcr7LPOBft/+/LXhb9+/RvDOQcF+ms7qXFwf9EHsS/svDu383ahtoJ9PrrgeNFtEOxzv6gZ0zPDQD8NCPb72e/2d/3OAAMLGRDsy51WGBIvZM96N8Jep4L9eJV4Eerv4hXqawvPW7CNsS9cue+gZNYbg2Cfj1k+uvqaYJ/7rtq2XWwzsFoDgv3V1pNP9WSAgU4aEOxvRLjaSVuyfB8vAAAgAElEQVSC+1bY6lSwH28B40r9DfpLhYP7i9vyGOAcQNUZEOyzUWejy88L9rnvsm/bxjcDqzMg2F9dLblUSwYY6KwBwX4rwtfO+hP+r91fp4J999TfoFB/+BcFsU8MYA6i6gwI9tmos9Hl5wX73HfZt23jm4HVGRDsr66WXKolAwx01oBgX+YkXO+1gU4F+26Ls3nBfuyTzr6BGjy33beCfQfYfRwfBPvc99G9beaegcUNCPYXrxlnasYAA70zINjfdi7ROzOyrE6ZEey34F71bT9hYZB0cFVnQLDPRp2NLj8v2Oe+y75tG98MrM6AYH91teRSLRlgoLMGBPudCmk769TJhB1zKtgX7IedPnFgYHIQVWdAsM9GnY0uPy/Y577Lvm0b3wyszoBgf3W15FItGWCgswYE+zsWmHbWjJC9U2YE+4J9wb5BbW2DmmDfAXYfD5YE+9z30b1t5p6BxQ0I9hevGWdqxgADvTMg2F9bntE7a7KzjbQm2BfsC/YNTmsbnAT7Drz7eDAk2Oe+j+5tM/cMLG5AsL94zThTMwYY6J0Bwf7a8ozeWZOdbaQ1wb5gX7BvcFrb4CTYd+Ddx4MhwT73fXRvm7lnYHEDgv3Fa8aZmjHAQO8MCPbXlmf0zprsbCOtCfYF+4J9g9PaBifBvgPvPh4MCfa576N728w9A4sbEOwvXjPO1IwBBnpnQLC/tjyjd9ZkZxtpTbA/J9i/5ts/CbX/XvheeOKFqle/F26ftdwvPRF+HGd74Ylwzazp3vu5cM8LITzx6P4sfB88F37wRMVr+XRV398fnghz2jazPVXLnP+cwc7BVZ0BwT4bdTa6/Lxgn/su+7ZtfDOwOgOC/dXVkku1ZICBzhoQ7G9k2NpZb8L9jfMm2G8QZBfh/g/uH4frj36vNpSfmnZq+TFcD+HH335i+Pi58XKnpp0M9m//weAkwo+/HecZvvaD72VnFlJoPwz/s1fmfjv3JMP8AP+cqfYP5jGgdfMgav/+N4VTp06NaMXv43OL9Ldgv5s2FjHQx2kF+9z30b1t5p6BxQ0I9hevGWdqxgADvTMg2F8og+idD0F8530I9mvC6DykrrxqvwjCBwH6IGiPIXYM7X8S7vlSTQiertRPJwmGP4/nL883HeyPp5187ZxiWSnYLy8n/eyKfYP46g70vvnNJ8Lhwx8rBskU8i8a7gv2V9cfbLenloL99vSV/UpfMcDAOg0I9vlbpz/r5o+BlhgQ7Hc+uLUvtmRfXNNJFMF+02A/hfFx+tIV++lK+njp8jh4T2H64HE0Tb6cuKxy2D9sz2j6dD30C0+Ee4ZX7A/Wc//wVjyDvwAYTDYM9mP7lvg3ecufyfbnJzoW/d4g1I9B6Pjx4+HMmTPh2muva/zGKtjvhw1jwGQ/C/Yn68GHejDAAAPVBgT71XXhRV0YYICBzIBgv3H+wE3mZk0htD5YfR8I9psG++WgPL91zUSQXrpqPnutNjhP4X6ovp9+mi+G/eMTBzOu2C+deCiC+KIdpbaNtr20rNHzqwn37bir33E3saYPPPCgYN+bo4OqBgYE+/0YEzdxnNYm9hholwHBfrv6y/6lvxhgYC0GBPt+B23wO+habGrXrtgU7DcIsafum5+C8xTa51fhF88Nbsczuuq+9kN2s7MF+RX5o+VNBu6j5WWzTX6bXbE/OvEwWEYYLXP8VwK1Jwka1GSRq/YNIN0/wIlX6cer9WO4v0h/u2K/+zYW8dCXaQX73PfFuu1knYHtGRDsb69+/KkfAwz0woBgf6EMohcmBOq9MiHYnxNiV95fP6XpeVg+ZzmLBOHjaYehfFzfKKhPV9FPhv7jedLr8TGbP7W5eJzxOQA7sB0Gzm4eUKUwP5J68cUXR/fbX6S/BfvdtLGIgT5OK9jnvo/ubTP3DCxuQLC/eM04UzMGGOidAcF+r0Lc3vl2kmKub8H+MkF2umK/mDe/x335VjqDkH3myYE8cM9OFORX5w9uxVMX0o8XkG7ZUxnyD2/3M5qm0Yft5icJlv/ewNP9g6v04bnusd/9vrY/b7+PBfvbryGHasgAA30wINjnvA/ObSPnDGzTgGB/bvDJ2DaNCdc32phgv0mwn265M87QJ7+bupp+MgSPwf74tjeTr6UQfup2P0W7pq/Kr5yuaF/N/fNT24dtzE8YjDZiTvtTG5d9NIj2YxBNV/BX3Y7n4YcfHnHLv3n22W+H559/PjzyyCO+1KA3Bi4/+dnw0vtvW/rrXV/7fG9qZWwwNjLAQJ8NvHD03BCOnLP01zN/foP3C8dXDDDAQMcNfO3hh5b+vSL9TvLvH7yPk4476fPxVN22dyWrFOw3CfYnpvlcuOZLMZwfXqmfh+Llq+KH860y2E+315m88r76LwUqQ/ypD+gd3nM/346J7a0+EbFIyN+VncV2zD5BkYL948ePT53NvOiiS8IVV+yf+jp27Fh4/PHHQ3zdlxr0xcArP/GBbR18v+qPrrO/GDMYYICBHhg4dcvfXDrUjycE/u3b9nHSAyd9OX6ynX5XYKDawD+77LJt/W4Rw/3fuHK/9wvvF70z0JWMT7A/J8QurpDPLzEOPwlPPPq5YbD/vXB7uiI+TlMTjq822I9B++BK/h+/8JOiZaOQv2JbivaP2pX9BcDwJMS8vyRYJMCvm7YrO4vtGAf7hw9/LHznO98J8RY8qS5PP/108QG6MeBPz817dI/9cU3n1crr3amVW/F0py/tl/qSAQZ20oBb8fC1k74smy8GOmLArXga5w/Md8S8WwNNmBfsV4ThdQH1OVmI/8Sj8Yr9dPubdJ/99PPkVe7TJwcmzhSMf8jusT9oQxbEj9qZ1jWerTKcT20dhfrprwzyD84dLL9Y0tS6J7ehtiajdtVPb/Ds5uAZr8zP/506dWoi6G/S74L9btpo0vd9nkawz32f/dt2/hlobkCw37xWXKkVAwz01oBgfyLk7K0DYXdvHQj25wTTE7ezmQi/82A/hdpZ6J5Nu8wV++OTAYOTBeN2TJ88GE87+KuBh34Q49bxdOXXr5na5mHAn7V5O0F+eV4Dq4OsOgOCfTbqbHT5ecE+9132bdv4ZmB1BgT7q6sll2rJAAOdNSDY722g21nTTlIsZFqwPxVyp5DeYzmgX/Zng42DqDoDgn026mx0+XnBPvdd9m3b+GZgdQYE+6urJZdqyQADnTUg2F8oBO2sA2F4bx0I9gX7YdnAvul8Bk4HUXUGBPts1Nno8vOCfe677Nu28c3A6gwI9ldXSy7VkgEGOmtAsN/bQLezpp2kWMi0YF+wL9g3aCw0aKzyzUOw7wB7lZ7asizBPvdtsaqdrDKwXgOC/fXWn3/1Z4CBVhgQ7K8tz2iFD3lX530I9gX7gn0D3doGOsG+g+U+HgwJ9rnvo3vbzD0DixsQ7C9eM87UjAEGemdAsL+2PKN31mRnG2lNsC/YF+wbnNY2OAn2HXj38WBIsM99H93bZu4ZWNyAYH/xmnGmZgww0DsDgv215Rm9syY720hrgn3BvmDf4LS2wUmw78C7jwdDgn3u++jeNnPPwOIGBPuL14wzNWOAgd4ZEOyvLc/onTXZ2UZaE+wL9gX7Bqe1DU6CfQfefTwYEuxz30f3tpl7BhY3INhfvGacqRkDDPTOgGB/bXlG76zJzjbSWqeC/b/2nn+x4yH1OU4ELFTj2CcGOwdXdQYE+2zU2ejy84J97rvs27bxzcDqDAj2V1dLLtWSAQY6a0CwL3MSuPfaQKeC/b/xe5eFcw7uXyh4FtTvYL0O7g+xTzr7Bmrw3HbfCvYdYPdxfBDsc99H97aZewYWNyDYX7xmnKkZAwz0zoBgf9u5RO/MyLI6ZaZTwf7ffe0F4a9f/0bB/ob8VUHsi9gnBkkHV3UGBPts1Nno8vOCfe677Nu28c3A6gwI9ldXSy7VkgEGOmtAsC9zEtT32kCngv04UP/ty183CPddub++ExwH9xd9EPuis2+eBs6ibx944MGQ/r344ovh8OGPLdTngn0H2H0cIwT73PfRvW3mnoHFDQj2F68ZZ2rGAAO9MyDYXyiD6J0P2VXnfXQu2I87abxKPN4Cxj33d/A2OzV/FRBrHmvvSv3uH1DFUP/MmTPh2muvG4X8i4b7gv3uO3HgNN3Hgv3pmnCiJgwwwMC0AcH+dE04URMGGGCgZECw3/nglvmSeScrJsx3MtiHHnoGdtZADPNjqH/8+PHRgLJ//5vCqVOnQgz8m9ZfsL+z/dS0H0y3u/0g2N/devOt3gww0FYDgn1222pXu9llYBcNCPYb5w9c7qJL4fuuuRTsw7Zr2Ayi3RlEY6BfdXX+008/XYT7MeRv0t+C/e6YaNLfphn0t2Cfe/sCAwww0MSAYJ+TJk5MwwkDPTcg2G+UPdhPer6fdDj7Fex3uHMNXAaunTJQvg1PWk/d8+n18qNgn9GyiT78LNjnvg/ObSPnDGzfgGB/+zXkUA0ZYKDzBgT7gn25Zq8NCPbtAL3eATr/Jr9DvusC/Lrn6+os2HegXWejy88L9rnvsm/bxjcDqzMg2F9dLblUSwYY6KwBwb5Ma4dyn87uMx2rl2C/Yx1qx3PAshsG6gL8+Hy8z75b8XC4Gw7bug7Bvv2jrXa1m10GdteAYH936823ejPAQCsNCPYF+3LNXhsQ7NsBer0DtPKNewPMLnqP/euvPxDi1fnlr29/+9vhxz/+cbjnnnt8qUFvDFxzz+fCrK/3f+Mr4dr7T8ycxj5jzGCAAQa6b+Dpz74+zPr6/hf+Vfgf/9+/rJ3m8ePv7M17q/2h+/uDPtbHDFQb+OJXvzrz94aDD30xXP+f/mzmNB//6he8X/h9vHcGrr769zqRhwr2NyAkFS67MqBtBg4f/ljx4bkx4E9tj1fpx6v141X76bn0+MlP3hEefvjhia//8l++Ef7n//yf4S//8i/D97//fV9qwMDQQAgh/OhHP1IP+wQDDDDAwEwDP/3pT8Nf/dVfzZzGMZZjTAYYYKDfBrxX9Lv/7f/1/R8vPE2ZVZsfBfuC/U5AbvNO2Na2P/300+HMmTPh2muvKwzV3Z6nrdun3U64rctADPavuGK/sdn7MwMMMMDATAPxoomu/FK6rvdc63W8xwADXTfgvYLxrhvv+/YJ9v3CMPMXhr7vILZ/9ptgDPfTvzzkV7fZdVMf9ZllQLDPxywfXuODAQaSAWENC8mCRxYYYKDOgPcKNupseL4bNgT7gn3BPgMMMMDABhkQ7HfjAMuBsn5kgIGdNiCsYWynjVk+Ywy034D3ivb3of1QH84yINjfoDBnVkd5zY7MAAMM9MOAYL8f/Wx/1s8MMLBdA8IahrZryPwMMdB9A94rut/H9uN+97FgX7DvSl0GGGCAgQ0yEA++L7roEn2yQX3iYLnfB8v6X/9vqoFPfvKOcP31B7xfeL9ggAEGGKg14L3CccymHsdo12psCva9AdS+AdjJVrOTqaM6MsAAAwwwwAADDDDAAAMMMMAAAwwwwMAqDQj2BfuCfQYYYIABBhhggAEGGGCAAQYYYIABBhhggIEWGRDst6izVnlGx7KcIWSAAQYYYIABBhhggAEGGGCAAQYYYIABBtppQLAv2HcmjgEGGGCAAQYYYIABBhhggAEGGGCAAQYYYKBFBgT7LeosZ8/aefZMv+k3BiYNPPDAgyH/d+rUqbB//5smDh6uvfa6cObMmdFkTz/99MzX44THjx+fmCave1pe1bry6fLv0zypEeU2xGnzbXnxxRfD4cMfq21Dvuz4fVxe/q9q+eV1xOnjOsvLqvo5tuVHP/pxiNuRv17errjMWbWL88Zlxe1L/8ptiP0Xa1v+V54ub0f8fl79ystdpP/K6/Lz5H6oHurRBgNNxsnymFYeS8uvx3Fq1piXxrvycmbVKy4v/1e1/Hxb4vtbeWyuW/4i7c/H1NieeWNwWmfd+0V8fdF2z6tFeVxPdZvV1vI8Ve8F5Tot0n+pDh6Niwy010A+VsVxpWoMmDc+pfE/jUvzju3TmFs15tdZSvPEddQtP9+WnXq/yNcR29J0G2L7q2qbb2+q47zpFu2PWTVL6/d+0d59OPWhx8X7ULAv2J8IfOxEi+9EaqZmDDQ3EA/0vvOd74yC/HTwlf+Snn45T7/kp5/zg8P4fX4Amg4M8+fyfkkH0fl68tfL36d1zmtDfrAd1113gF5efpw23560vvy5OE/8uWmb0zpSTePBb96+9PqitYtti/PE5cZlpIP1VJv4XGp/Xf3TuvPHOH/evvhzXr+0Hakm6edF65Gv0/fN91W1Uqt1G2gyTqaxJ41H6ec0bsRtWHTMi9PHf/kyZtWiPPbHn+O/NB5WjV3l8W/W8pu2P0636PiY2hbbm4/HqT2xnWk7Ui2rpkvTx/eHb37zidHvFuVaxOlSH+XLTfNXPaY2pv5IP+fbmpY5y0HVsj1nnGOgGwbieJLGiNinaUzIn4vT5MeZ5fEpji3xd5Q4jiUXcUzJ50nP5+vIx/v89arvy2N/eflV41t5nqrlpufi9uZja3kb43RpHXlt0vyzHtPxf9zeefPG1+dN1+T9IrZ/1ntOub3lbUs/e7/oxn5e7m8/j/tVsC/YH71x2THGO4ZaqAUDu2cgHrTlB83xADY/AIt9Me/ALh24VR1oxgPHeFAYD9bLy63r53ltSAe3sV35MuL6q9qQT1P3ffnAfd42Vy0nbWt8LC+vavr43Kza1c1T3s70C1S5HnXzV02f2hHbHeer2v58++qW7fnd23fVWq1320B5XIs/l8f1qrEjb2caa6rG6jRvXGbV6/ly4vdpWWncSq/nY2RcZv4eN2u+NP+sx7TOvH2p3XFsnTVv/lo+npbrmk+Xf5/Pkz9f931qa16fqvG/bv74fNW2lduxjINZ6/SasY2B9hvIx7WqsSj2cT5WV/V5Gq/yMSxNF+eN7xXxd4w4TqXn6x7TsvJpy+2Kr+30+0XVeFnX5vR8miduw7z3xzRmz5suLTs9lmsRn0/LiutN0816rJre+0X79+VZfe61Qf8K9gX7jQZJO4wBkQEGdspAfhCbDurywCKuNx6UxQPdOG1VO+rmSwfR8YA0HZTGaauWkZ6rW1behvJBYpq36TrS9PljnDddlZLaEJ/Lp1nk+3x5s+ZL60o1TzVLP5fnLU8fX89rU54+/lxeZt7n+fTpl6S4jvz7NE1aznbqkpbl0ZjGQPsM5ONa1VgU+3TeeNRkvjj+1I2BuZu6deXtrAoa4jKariNfX/y+3P7083bGxby95fXlP5fH7rT9deuuGrPTPHXv52meVP/4GAOiuJ2pLWmauN60/Wn6NM289aTpPLZvHNBn+qyJgXxcqxsP8mmqlpmPNfnrab6PfvRw42C/PH6m5eVj3E6/X6TtqRt/U5vqHuvG2zR9Xue4Xfm4HGtWPmmR5ouPqW1xuvR8qnN8LT2XP6b1pXnyWqbp8uXWtT8tZ9m6pHV5NDaty4BgX7BfOUiuC6T1GgwZ6J+B/CAsP/jKLdQ9n6apOyDLDyrjQV85HEjz549168qfn7W+FM7ny5z3fflAM63r3nvvK35hKP6eNYRG7U/rmncwnKYrb0tad34wnqaNj1W/mKRlpHbGx3SQHecpL7Ouben52267vfKKoHKd8nb5vn9jhz7vV5+X9/80ruRjTT7elJ9PXtJ4lf8Cn5ad5snfO9J8VY9V42GcLn8+/z4tI62vyXtSmic9ltuf6rDT7xepzfl7Q2pLqltqY3qMz5ffE9M8Td4vqtYZl50/n7a/3Ia651PbPPZr/NDf/ervfIyIfV81Ds96Pnmpmi+OYXFci49pnInTpXnqHqvGwzht/nzV+tK2rOL9IrU9vl/EkD39y8f1uvbH51NbqqZPr6WxuPw+Gp+fFezndUhtiM/l/8rzp/eTOF1af7lt+fOpv+L0aR3xse75fBrf92sMaVt/C/YF+xODWtsAa68BloF2G4gHX/FfOiCuO7Cqez72fzqoKx/wlg8Q48/laar81K0rfz4dJOaBRWpH/lzV8svPpWXlB6tpWflzaf3lA9by8tLP5e1Pz+ePaT3z6hL7J/2bN21cfpq+rq11bUvPC/bbvV/nxnyvL1dhoGqcTGNiHDfyddQ9H6epG/PiWJWPbfHnuvErX1dVCBNfz59P7cmXn8bI/Ll8uXXfV7U/PbcT7xep7mn8j+2ua1t6PvZH+te0hnH6qmnT+suv5c+n+i7iILXVo/GJge4ZSONDPibmY3Le53XPx2nSOJ2PP+XxJv3cdGys+h0hHfvGZaXl5e8NqR35c/k21H2f3hvy+dKy8nak6cpjaNVyU23zmqTp4nP5uuLPVdOl6ePjou8XcXnxX1W969qWP5/qW97Wuufztvq+e2NFl/pUsC/Yn3uA3iXwtsWAzMBmGEgHkflBd+ybugOr9Hz5QC4d4JUPHON05WXHg7j8gDMtMwUQ6UAxPV930JfakA4U0/xx2Y8++uhoHWk56fW0/NxgXFb8lx9gx9dTfcptqNqufHn593He8nLz1+tql09T9X1qW7nm5Wlnrb/utfh8rOOhQx8qHsvrSDWP05XX5+fN2Lf1g35YtYG6cTKNseXxID2fxurUnroxr2o8itPm409qQxrP09haNybH59M0cf2pTWn+tPy0jrrlp7bHxzht/JfmSa+lMblch7q2pfnyx6oa5K+n7+O6y++t6bWqx7Rd5baVp61bfxrzy9ucno/zpdqW15Gej20or8/PxikGumkgjTn5+Bv7um48jM+Xp03jSxxv83ElPZ+PR1XjTJwn/5d+94jPl9cV2xafT9PEn9My0zLi+tJX2pb0WnysWmacPv7L25rPWx4X69oW58m/qmoQX6+aP29zvoy671PfxWXVTVO3/jh93Wvp+bjcVNvyOtLz5brUtcPzky7UY/31EOyXBiso149SH+gDBrptIB245Qexqc/TwVf5QDQFF+mAK00XD1rTc+VlFEe0Nf+VD+jSvPExLXteG/J50veLHMTGNsR/5fXEZdUdYMZtbRqqxOVXHeyn7YvrLtcubce8xybtiNNUrT8uu27+WIvkIv8+tSfVZVb/pWk9dnsc0b/96N9Z42Qay8pj6CLvF2lMqXmrKJ6eNU6W15Vc1o2/6fXU9iZjWZq2bsxO21BuZ904m9qQP85rb5o2taVc8/R61WOTZce21r1fzHsvqGtTXd9UtdFz/RhP9HO3+zmONfFf1fhUNx6Ux6c0nlYda8dxata/ujEsuasbk6vGuDRPfExjXGxr/nzV92na2M64vvI0sQ6xnfExf61ch/y1/Pu0/LzGqWazalPVlny56fsm7Yjrztef5o2PVbVM7YvLrmp/nK/OR75s33d7/Gh7/wr2BfsTg3rbQWu/AZeBzTaQDpxmHZxWHZTFA8L8gDlOk//cpN/jOlNoPG/6Jm0oLyMdODY5eI3T1B10x+WmA89yncp1KLch/znOW1WjZWqXLzd+36QddeuP8ycHea3K21w1f5yv6heScvv8vNnjgP7RP00MzBsn4zKajNXLjHlxnvg1r51p3C+P1fPmX2Qsm9f+8tiZ2txknE7TVo236bX8sW5d+TTl7+Oy5733zlp/1Wvl+sUaldexyPaX2+xnYxQD7TIw7/2iyVidxrfyWDLLQlpuXP+s6eJrTY59q5ZRHu+qpknPzXu/qGtvk3E6riPVKK4nrbPuMU7TZLp8/nntmLd+7xft2m/zvvf99vpOsC/Ynzso28m2t5Opn/oxMDYw74At1iod+MZp48/pILT8c5OD6Lz2Tdadpp/XhjjdN77xjaJt8ft5B5ppuemxycFu3L78iqFyHdKy6h7j9paD/bSMWbVL06SD8bicVPu4rvLr8bm4vHya+HP8l56rmicuP29fnDb/uTzPojWuq4vnx/ujWqjFJhtoMk7OG6vTODJrzKuqQZN1p/ni2JWP1XFd+c9x7Iq3aYuPcZ7UpjQ+puVUPaZp57W/vM40X5N1xPWWx9/UzhhwxWWltpW3tVz/WLe8reXX43Li63m74s+z3i/StsRlx/mr3gvK60nz5OtJ2+DRuMdA9ww0GbPL41d53IzjyKIXj6SxJh/3ZvmK7cyPdWOb8p934/2ivM40fjbZhqrxt257y31Srn98PV9nakecLi3zm998ovi9MP0c58nfX8vzpP6I08V5qtpbN0++3rQ+j90bK7rap4J9wf5o4OwqcttlQGZgcwzEA626f/kBVTroStPOei1NEx/zg+Nyv8dlLHIVzqw2xGWng8e0/ryN5XXnP6eDzDRf+TE/yI3f5/+ariOuL05brkd5m/Jlp2nTdqWD4riscr9VtSM+l//Lt6NqmeXlpvXntUrzpeXmbcqn8/3m7OP6Ql+swsAi42R5XMvHp/JraSyJj1VjTmp7HGsWGW/y8S8PHdLyyu3Ix8c0TdVjeb5Z7V/1+0VsT3n95Zql11PNq/qtalvzesVtyqdJ435e//Rc2v78tVS31JY0TWpTet2jsYmBbhqoGnfSOFAeX/KxpzxWl8fQfBl1vz+ksSkfw+Y5i+NX+lceU+O85bGs6bLL86V1xMfyevI6xNebriPVumoMLm93nCafLq4zr3laVt7OcjvK05S3I21zPt6nPknLzduQ2pjmS9Pk86dpPHZzvOhqvwr2BfuCfQYYYIABBhhggAEGGGCAAQYYYIABBhhggIEWGRDst6izunp2yXY5G8oAAwwwwAADDDDAAAMMMMAAAwwwwAADDDQ3INgX7DsTxwADDDDAAAMMMMAAAwwwwAADDDDAAAMMMNAiA4L9FnWWM1bNz1iplVoxwAADDDDAAAMMMMAAAwwwwAADDDDAQFcNCPYF+87EMcAAAwwwwAADDDDAAAMMMMAAAwwwwAADDLTIgGC/RZ3V1bNLtsuZUwYYYIABBhhggAEGGGCAAQYYYIABBhhgoLkBwb5g35k4BhhggAEGGGCAAQYYYIABBhhggAF6toEAACAASURBVAEGGGCAgRYZEOy3qLOcsWp+xkqt1IoBBhhggAEGGGCAAQYYYIABBhhggAEGumpAsC/YdyaOAQYYYIABBhhggAEGGGCAAQYYYIABBhhgoEUGBPst6qyunl2yXc6cMsAAAwwwwAADDDDAAAMMMMAAAwwwwAADzQ0I9gX7zsQxwAADDDDAAAMMMMAAAwwwwAADDDDAAAMMtMiAYL9FneWMVfMzVmqlVgwwwAADDDDAAAMMMMAAAwwwwAADDDDQVQOCfcG+M3EMMMAAAwwwwAADDDDAAAMMMMAAAwwwwAADLTIg2G9RZ3X17JLtcuaUAQYYYIABBhhggAEGGGCAAQYYYIABBhhobkCwL9h3Jo4BBhhggAEGGGCAAQYYYIABBhhggAEGGGCgRQYE+y3qLGesmp+xUiu1YoABBhhggAEGGGCAAQYYYIABBhhggIGuGhDsC/adiWOAAQYYYIABBhhggAEGGGCAAQYYYIABBhhokQHBfos6q6tnl2yXM6cMMMAAAwwwwAADDDDAAAMMMMAAAwwwwEBzA4J9wb4zcQwwwAADDDDAAAMMMMAAAwwwwAADDDDAAAMtMiDYb1FnOWPV/IyVWqkVAwwwwAADDDDAAAMMMMAAAwwwwAADDHTVgGBfsO9MHAMMMMAAAwwwwAADDDDAAAMMMMAAAwwwwECLDAj2W9RZXT27ZLucOWWAAQYYYIABBhhggAEGGGCAAQYYYIABBpobEOwL9p2JY4ABBhhggAEGGGCAAQYYYIABBhhggAEGGGiRAcF+izrLGavmZ6zUSq0YYIABBhhggAEGGGCAAQYYYIABBhhgoKsGBPuCfWfiGGCAAQYYYIABBhhggAEGGGCAAQYYYIABBlpkQLDfos7q6tkl2+XMKQMMMMAAAwwwwAADDDDAAAMMMMAAAwww0NyAYF+w70wcAwwwwAADDDDAAAMMMMAAAwwwwAADDDDAQIsMCPZb1FnOWDU/Y6VWasUAAwwwwAADDDDAAAMMMMAAAwwwwAADXTUg2BfsOxPHAAMMMMAAAwwwwAADDDDAAAMMMMAAAwww0CIDgv0WdVZXzy7ZLmdOGWCAAQYYYIABBhhggAEGGGCAAQYYYICB5gYE+4J9Z+IYYIABBhhggAEGGGCAAQYYYIABBhhggAEGWmRAsN+iznLGqvkZK7VSKwYYYIABBhhggAEGGGCAAQYYYIABBhjoqgHBvmDfmTgGGGCAAQYYYIABBhhggAEGGGCAAQYYYICBFhkQ7Leos7p6dsl2OXPKAAMMMMAAAwwwwAADDDDAAAMMMMAAAww0NyDYF+w7E8cAAwwwwAADDDDAAAMMMMAAAwwwwAADDDDQIgOC/RZ1ljNWzc9YqZVaMcAAAwwwwAADDDDAAAMMMMAAAwwwwEBXDQj2BfvOxDHAAAMMMMAAAwwwwAADDDDAAAMMMMAAAwy0yIBgv0Wd1dWzS7bLmVMGGGCAAQYYYIABBhhggAEGGGCAAQYYYKC5AcG+YN+ZOAYYYIABBhhggAEGGGCAAQYYYIABBhhggIEWGRDst6iznLFqfsZKrdSKAQYYYIABBhhggAEGGGCAAQYYYIABBrpqQLAv2HcmjgEGGGCAAQYYYIABBhhggAEGGGCAAQYYYKBFBgT7Leqsrp5dsl3OnDLAAAMMMMAAAwwwwAADDDDAAAMMMMAAA80NCPYF+87EMcAAAwwwwAADDDDAAAMMMMAAAwwwwAADDLTIgGC/RZ3ljFXzM1ZqpVYMMMAAAwwwwAADDDDAAAMMMMAAAwww0FUDgn3BvjNxDDDAAAMMMMAAAwwwwAADDDDAAAMMMMAAAy0yINhvUWd19eyS7XLmlAEGGGCAAQYYYIABBhhggAEGGGCAAQYYaG5AsC/YdyaOAQYYYIABBhhggAEGGGCAAQYYYIABBhhgoEUGBPst6ixnrJqfsVIrtWKAAQYYYIABBhhggAEGGGCAAQYYYICBrhoQ7Av2nYljgAEGGGCAAQYYYIABBhhggAEGGGCAAQYYaJEBwX6LOqurZ5dslzOnDDDAAAMMMMAAAwwwwAADDDDAAAMMMMBAcwOCfcG+M3EMMMAAAwwwwAADDDDAAAMMMMAAAwwwwAADLTIg2G9RZzlj1fyMlVqpFQMMMMAAAwwwwAADDDDAAAMMMMAAAwx01YBgX7DvTBwDDDDAAAMMMMAAAwwwwAADDDDAAAMMMMBAiwwI9lvUWV09u2S7nDllgAEGGGCAAQYYYIABBhhggAEGGGCAAQaaGxDsC/adiWOAAQYYYIABBhhggAEGGGCAAQYYYIABBhhokQHBfos6yxmr5mes1EqtGGCAAQYYYIABBhhggAEGGGCAAQYYYKCrBgT7gn1n4hhggAEGGGCAAQYYYIABBhhggAEGGGCAAQZaZECw36LO6urZJdvlzCkDDDDAAAMMMMAAAwwwwAADDDDAAAMMMNDcgGBfsO9MHAMMMMAAAwwwwAADDDDAAAMMMMAAAwwwwECLDAj2W9RZzlg1P2OlVmrFAAMMMMAAAwwwwAADDDDAAAMMMMAAA101INgX7DsTxwADDDDAAAMMMMAAAwwwwAADDDDAAAMMMNAiA4L9FnVWV88u2S5nThlggAEGGGCAAQYYYIABBhhggAEGGGCAgeYGBPuCfWfiGGCAAQYYYIABBhhggAEGGGCAAQYYYIABBlpkQLDfos5yxqr5GSu1UisGGGCAAQYYYIABBhhggAEGGGCAAQYY6KoBwb5g35k4BhhggAEGGGCAAQYYYIABBhhggAEGGGCAgRYZEOy3qLO6enbJdjlzygADDDDAAAMMMMAAAwwwwAADDDDAAAMMNDcg2BfsOxPHAAMMMMAAAwwwwAADDDDAAAMMMMAAAwww0CIDgv0WdZYzVs3PWKmVWjHAAAMMMMAAAwwwwAADDDDAAAMMMMBAVw0I9gX7zsQxwAADDDDAAAMMMMAAAwwwwAADDDDAAAMMtMiAYL9FndXVs0u2y5lTBhhggAEGGGCAAQYYYIABBhhggAEGGGCguQHBvmDfmTgGGGCAAQYYYIABBhhggAEGGGCAAQYYYICBFhkQ7Leos5yxan7GSq3UigEGGGCAAQYYYIABBhhggAEGGGCAAQa6akCwL9h3Jo4BBhhggAEGGGCAAQYYYIABBhhggAEGGGCgRQYE+y3qrK6eXbJdzpwywAADDDDAAAMMMMAAAwwwwAADDDDAAAPNDQj2BfvOxDHAAAMMMMAAAwwwwAADDDDAAAMMMMAAAwy0yIBgv0Wd5YxV8zNWaqVWDDDAAAMMMMAAAwwwwAADDDDAAAMMMNBVA4J9wb4zcQwwwAADDDDAAAMMMMAAAwwwwAADDDDAAAMtMiDYb1FndfXsku1y5pQBBhhggAEGGGCAAQYYYIABBhhggAEGGGhuQLAv2HcmjgEGGGCAAQYYYIABBhhggAEGGGCAAQYYYKBFBgT7LeosZ6yan7FSK7VigAEGGGCAAQYYYIABBhhggAEGGGCAga4aEOwL9p2JY4ABBhhggAEGGGCAAQYYYIABBhhggAEGGGiRAcF+izqrq2eXbJczpwwwwAADDDDAAAMMMMAAAwwwwAADDDDAQHMDnQv2r7zyqvCVr3w1/OhHPwrxX3yMP8fnwWgOI9XqN3/zn4RPferO8N/+23Ph5z//efEVv4/PxdfSdB4Xr+2qatZ284yt3o6arr6mq9pfLUffMMAAAwwwwAADDDDAAAMMMMDAKgx0Ktj/3Of+fRHm1/135syZ8N3vfrfR1xNPPBHi8vbvf1Nvw+ubbvrDulKOnj99+nSjesa6q+nkoPV//fI/DP/Hv7ww/G+//4Zwznv3L/wV5zt635dHfVH1TTS8ioFip5bRPmPHwzPh+fDgTZN9uVP1WWa5q6ypfXZz+3kZG+bRnwwwwAADDDDAAAMMMMAAAwx0x0Bngv15oX4KPRcJ99NJgH/3727bpXC0OjQ89NDzITz/UDhU3DboQ+HB59PWVD8+/9CHtt3eJuFgWvsi4f7O1DSv26A+c2tw4pkQwjPh+PBWTEWN0waVHucua4nbOf2f/+/rFg7yy+H/xx65r9TS6h83Ndxvl7HxoD+wMrYz6w3x+LNx152/Pzadbta64ms7WdNtj4M3PRSmhq7RuLYVYg3Cs8fnjl2pVsX01eSLZ585Me6zeXXzuloxwAADDDDAAAMMMMAAAwwwwEDbDHQi2I+3Ilnk3w9/+MPGV5mvIoiuCqCqQ6c8oB7vTIdu+lBoGibG6ZoEibOgxtt4LPrv1KlTu1rTvP1TgWARIM66qnoQ/ud9UFe3uufz9S/6/SpC/V+/85aFuijuIzPbOVWzaLHuX7NQe9b6Nt/YwEhdBeqen9z30v5cXct82hRWz6rZvNd2o6bbCvcLY5mdeHItBfvFibaKqpaC/mJfT/NUnlAb9tvMacZj67yael2tGGCAAQYYYIABBhhggAEGGGBgUw10ItiP99Bf5N8LL7ywcAgdA/5lb8szGdpNh8pjHCkIHO8wRaBfCrfG04+nS8+tIoiO989f9N8yfwmxnZrm2zsKB7Ogr6hbdkV+mj4+5jVK0z1Yc0IknzZfxrLfx9vvlK+8X+bn//DEIwt1UdxHZra5JtjPT36k+eeHq9Mu07zpcfONzdpPq7dvcj/fCnvy4DrajD/X7MtT82aWU83mPe5WTZcdB/fUBfvF82Ec8hfbPjgZMvbXLLAvbNbs9/Pq5/Vq1+qiLgwwwAADDDDAAAMMMMAAAwxspoFOBPvpg3KbJp3xQ2DTlfiLPC57S5PJ0G4YGD5UcVuK0gbEUKsInlMYmAKw0nQhu+f3KoLo+OG4i/772c9+tqs1jQNKCuXT7XTKg0zl67GG6WreYT1TnfMrqNOyVlHPtKz4GO+pv0yQX57nL38ydVOTmV0W95G8HVPfF7XI/8qhHKxmA9jUtNlrDQPpzTeWBfvF9mZXmteE9JP7+fStZcqv50H31GsN65j3427VdNlxcLC9JabPPxOeeT6EZ04Mg/tirBvYy/fHifpUniBpFvzn9fL94vutmqkZAwwwwAADDDDAAAMMMMAAA5tjoBPBfikqavTjIoF+mjZ+kOQyeCdCqT1ZYDgV3s25Yr8qYNwzOc8qguh44mOZf6lOizwuV9MFQrzhLT5SSDgI+8dbV/f8eIpm90hv6mLZD8otB/t5+5p+P7ONU2H9zgb7m2+sNEgPHaUryAtH6YTb1H68FUYh9mia/5+9t2e5JcnSxe4vEMjrsgoKiqY5FGO2JaNAlloXoXbKEqiu5Mwtqw05MoY7ZqnKkCnuUNYwM9Y51C8oxPQY54VrjdnNKbjGhRnECOplxDDMR4pYK1bE+oqIzJ373e/XU9C9986MWB/PetaKyJX55mE8W6zKzSWVz7ZGON2Z/OTYrTC9LGcFk3KDZFQDa16Xf/1i+H78ZG7L8bv6+ih3EybBapoLGH/ROgdML8tb4AbcwAFwABwAB8ABcAAcAAfAAXAAHAAHLuUAGvv/5b8cetL8EqBt0643pmJz0Dbpiy4zRjUCux12Thkvzeo+5liC3KpBKDcAjtpZ8By90iSXVRuG8qR+adyVZqD6PcJtdDzXs8bZN+gv/d0axAe+TG3e3dhPsLygEfrUOSZYUf41nhTf+a8a6Hhr2se40/kSGxmj+SbfVT7bGhHliT2zz1tiOrNjfa7XwD5Wbnx82Mprsei/hnvHw+Z+n2P+aqc1+tf/aHHX33XgGLAAB8ABcAAcAAfAAXAAHAAHwAFwABwAB8CB58CBF9HYv9WreC59UpWaUa4By0+k2qb8G/f0fSGQaSBSI9AJ4g7Y9v5rTrgy/mxj/1av9CiN/UsxfVOf+s3QsMeyp3cL7vb4CLfR8UuT+1pP7N/qVTwWy/orabgexeN5cKwuYpJ30qT3eelvbNSGPTWoaY5tZLecvnJj/1aYXp6zUu80HoPmvNx8o1fvc4OecKtP83NNtTlsOcg6ztZCKxObGuABDoAD4AA4AA6AA+AAOAAOgAPgADgADoADT4cDL6Kxf6t/PPfSd0vbp3F1U8s/OS6Nr06Q1gQsjS7VCOxJZOdcoxF9q3+EszT2L8W0+z/CpWLrGvhl3tsf77f3dx9az/o5vmP/Mf/xXIO9b2rv/P3sOEbN/LtNngy3Od3zlbB594FeJdNytz6h//7H/i55urGn8nkq74lhennOSq3iGkgJSDeJpLnfUrJ9kVfycFP/frun9/E7vHficw3eQgawBwfAAXAAHAAHwAFwABwAB8ABcAAcAAfAgafCgRfR2P/DP/z3rRG058vf/d3fHXr9jrwy5t/9u//loncP26ada+zTk+fyj5ZK46snSGsOluaVagR2Atk512js/9t/+z/sgdGM+du//dubYtr99zdHOnb0uh3f2CcM1StSalOQG4fGpfbjmk/9fvzf/jdX+cdz/7s/+z+bfXu+lBwxmPlmKOEiPCwYcrNVGqvTuV7Wjt9PnmPCkz3g6jHqrxk4d+/q63u+3b75Whra9Ulzlc+2RigO78BSYnMrTC+tg/0vknwNtDVM/CmYMP/K+YKZnidYavDddxULkYnPy7gF3IAbOAAOgAPgADgADoAD4AA4AA6AA+AAOPD0OPAiGvuFWOUp0j3//f3f//1FDej/+B//ZN4YnTTgbNNON6c8IWKDKzb2My97Q/Yajf2C59df/x+ZovTYTz/9dHNMdTGx+HZMCbudzb0RbqPjWv/R7//1//TfX6W5/3/9p/87jYc/uOsJ6xs39p8bx3qMa0N5B6+If+r1PfL6qHaj6MqN/VtgeqYOXt7Yl5ye1E6FZY+VzMMnMAEHwAFwABwAB8ABcAAcAAfAAXAAHAAHwIGXx4EX09gv5Fw19x+jqV/sso3nSXNq1zv2Z++V5nfyt8bh5GbDnmTe09x/7KY+NU/9U/nVbzo3asDWf2CzNMELXqMG/uj4HvxmY27V3N/V1C94PUJjv+DzHDjW4kgYEWG2t/IPvA64V+YQ/1Rjv9QB/Q82N7mhRpxbaB4K03NN/eKT3Lj0NVCOW78LXvYvRvw8NR6N/YtvPGse4rvi1Mn1E1gCS3AAHAAHwAFwABwAB8ABcAAcAAfAgYfmwItq7Bew/vAP//1W3rl/X17GvG3bP//zP2//8A//sB19/U75ByJLU/Ty10508lJDzz1GbRtWMjY2uHxzcEUIexNB5F7+WV7vUd6HXv5hzn/5l3/Z/vVf/3X7x3/8x63cJDn6+p1rYlpwYFz7XytYbLgJuKnGKp2Xhr47Pmrgj45bXZfhW17L81/9r//jduk/qFvmlfn/8//+vxHn5R+RLp8lB0ou7LbzkRr7xb6nzDHDmS3hmjT7k3M6d5mr45tyD5W3f/M3f0M5W8rPP/3TPx3O2+vmbK1v6t+32Ai3cjz/z9ZJNPZ35zOa0vtrH7ACVuAAOAAOgAPgADgADoAD4AA4AA6AA8+UAy+usf8UGx+2aeeaU60xWBtb7glz3RzMfasN7NYXS5qPz5Scub/yj+Lyk/Z6DDdPGxDbNnmaus2TRr+eln13cWnzXxq28IcXM52X7iZQHvvanFZjW+7Wfzz3G4+t1lHY+u6yG0S5PU9NlqpTCiO2Pd7QLMdLPltMeu2MuZ4lbfy3NJ4HVk8tdrAHvAEHwAFwABwAB8ABcAAcAAfAAXAAHAAHniIH0Nj3zTb8xl06cAAcAAfAAXAAHAAHwAFwABwAB8ABcAAcAAfAAXAAHAAHwIEnzAE09p9wcJ7inSDYhDuU4AA4AA6AA+AAOAAOgAPgADgADoAD4AA4AA6AA+AAOAAOPC4H0NhHYx933sABcAAcAAfAAXAAHAAHwAFwABwAB8ABcAAcAAfAAXAAHAAHnhEH0Nh/RsHCXbDHvQsG/IE/OAAOgAPgADgADoAD4AA4AA6AA+AAOAAOgAPgADgADjwFDryoxv7PfvbRhv8BA3AAHAAHwAFwABwAB8ABcAAcAAfAAXAAHAAHwAFwABwAB8CBx+LALRr/aOzjZgBuhoAD4AA4AA6AA+AAOAAOgAPgADgADoAD4AA4AA6AA+AAOAAOXIkDaOwffE3OY92BgV7c/QMHwAFwABwAB8ABcAAcAAfAAXAAHAAHwAFwABwAB8ABcAAcKBxAYx+Nfdwlu9JdMhRVFFVwABwAB8ABcAAcAAfAAXAAHAAHwAFwABwAB8ABcAAcuAUH0NhHYx+NfTT2wQFwABwAB8ABcAAcAAfAAXAAHAAHwAFwABwAB8ABcAAceEYcQGMfjX0k7DNK2Fvc7YMO3FUGB8ABcAAcAAfAAXAAHAAHwAFwABwAB8ABcAAcAAeeNgfQ2EdjH419NPbBAXAAHAAHwAFwABwAB8ABcAAcAAfAAXAAHAAHwAFwABx4RhxAYx+NfSTsU0nYP/rt9tNW/vvd9mdPxSbYgfwAB8ABcAAcAAfAAXAAHAAHwAFwABwAB8ABcODlc0D6Ur//81O+/oe/qt2tv+Cn3eX3dlIu/nog/vUAGvto7J9K1lebVH/xO2rB7/+/Hc16KaBo7IOT2DCBA+AAOAAOgAPgADgADoAD4AA4AA6AA+AAOHBLDkhfqjXg/3xbdb9+V5v3vT/4x9tvua+//fRXf7z97Gf9dxwbG9VdDs7twQKN/dONfSH5T9tv/4hJ92e/n7R7f/rt9h9umZTQ9TCLQGvs97inCdfG9cZ+u1M5ocnoFBdFFLcUa3D9YbgOXIErOAAOgAPgADgADoAD4AA4AA6AA+AAOPDyOTBs7PeelvRjpPcZmvWtD1b7ZSJz1Oii44veGrg35B4a+7du7BfCork/JKQUiCf/6QvVqMi0cbEIBh9bsdsxdqQPx58/txBDxBAcAAfAAXAAHAAHwAFwABwAB8ABcAAcAAduzQHpS4Un9mOfKm/s96fz5bU7/HDrT9tv/wKvnw59wCvEF439h2zst0SoT1i3Ji/uRD0EmW8qc28s27hYBIO9UkDxKh4s3lco7oFfkAlegQPgADgADoAD4AA4AA6AA+AAOAAOgAPgQMKB+HaJ0seSt5SMH7c3T+y3Hti2cWO/zi/9UfS8HoR3aOzfsrGvEsIQP0koNOWe+OtmWrFa3KRp49DYB6efOKdRhx5kkQXvwXtwABwAB8ABcAAcAAfAAXAAHAAHwIFnwQFpvvsHlXf1C9TT+uU+wO//fOOn+ms/TGTjYdar9h7Q2L9lY781eRfN4F0Jg6L4qEVxbyzbONfYb8fHdz39GdwMAucflfOoS1ddfBFL5DM4AA6AA+AAOAAOgAPgADgADoAD4MCT4oA032tjX1630/pT5dXioZ9Ve5z++O9/R//wbvu3IkV2EyZf0CM9wwE09h+ysS8c9Z8X3flCsTtD9KvP9QXLxzj8do19NEnRJAUHwAFwABwAB8ABcAAcAAfAAXAAHAAHwAFwABx4KhyQ5rtu7NO/E1qfxleN/fLwaXt//h99VF+189P2u9//xB0x3/sU2Xhi/6p8R2P/xo39dqfqqSQt7LgsoVpjf3FnsY2zjf1e/OR9ZXy+3A2NHOEx8Thu9lz9hg3y4bJ8AG7ADRwAB8ABcAAcAAfAAXAAHAAHwAFwABx43hxozXf1Kp29jf2f/fn227/649rsl3fsq75Vk237Y+jrKIwuyB809h+yse/vTl0QIBD8HMEfDL/WsL+ksd/fO/a7v1CN/SZz2/Rrd9o/YELF9IniAW4/78Ub8UP8wAFwABwAB8ABcAAcAAfAAXAAHAAHwIHXzYHWfOde16FX8VTutB6W74k22WjsX7NXicY+Gvuvu2hdumi1JvwljX3VzP+Z/v7R9rNMLoofOHopTzEP3AEHwAFwABwAB8ABcAAcAAfAAXAAHAAHwIEpB/oDqPQeHd+Up7kyZt4HWzf2w7urkzdX4KHWvc1/NPbR2Edxmxa3QTHJGvCZnDZO3ZGUY/QEvmvs/+wj+lfD27vKqJhK8bRP8u9NcowbxDCLF46hHoAD4AA4AA6AA+AAOAAOgAPgADgADoAD4MBr5IA8WFp6UfI99uHDEf3q6HVjX/XHXiPGV/YZjX009lGsL0kqac5v8zuV/Qn8XrjkT5m48MXGvjTiZdz2+z8fv6PsEtsxB5wHB8ABcAAcAAfAAXAAHAAHwAFwABwAB8ABcAAc0ByQZr5/Yr/1wHpPXzfzpY9VPtHYv+3DpWjso7GPIqaL2N7vragdb+zzXU+ZJ0/jy28pAHK8PqVP+vwYGYtPvYjgO/gADoAD4AA4AA6AA+AAOAAOgAPgADgADoAD4MBBDmSN/dr/+t1fSJ/qp+23f/U76vDrfx9SsEZj/yDme/uQg3Fo7J9u7N82YJIo+Hxk3Ftjv9+tnH/rT+yH2E1kje6ABhmDBMe4R+YJ4oIbh+AAOAAOgAPgADgADoAD4AA4AA6AA+AAOPAcOOAa+/ImCe5Nqcb+H/V/I9L3rdDYv20fCo19NPZRXC8prq0Zv3iKvo2bNPYv0Y854C04AA6AA+AAOAAOgAPgADgADoAD4AA4AA6AA+DAFTjQGvIbvzlCmvr9qXzX2C863Y2A8nBpk+Nf5yNjN/THrvkQLhr7aOyjAF6hAF4zKSHrtnc3gTfwBgfAAXAAHAAHwAFwABwAB8ABcAAcAAfAAXAAHHhuHEBjH419NPbR2AcHwAFwABwAB8ABcAAcAAfAAXAAHAAHwAFwABwAB8ABcOAZcQCNfTT2kbDPKGGf251D2Iu73eAAOAAOgAPgADgADoAD4AA4AA6AA+AAOAAOgAPgwPU5gMY+Gvto7KOxDw6AA+AAOAAOgAPgADgADoAD4AA4AA6AA+AAOAAOgAPgwDPiABr7aOwjYZ9RwuLu5vXvbgJTYAoOgAPgADgADoAD4AA4AA6AA+AAOAAOgAPgADjw3DiAxj4a+2jso7EPDoAD4AA4AA6AA+AAOAAOgAPgADgADoAD4AA4AA6AA+DAM+IAGvto9ocLPwAAIABJREFU7CNhn1HCPrc7h7AXd7vBAXAAHAAHwAFwABwAB8ABcAAcAAfAAXAAHAAHwIHrcwCNfTT20dhHYx8cAAfAAXAAHAAHwAFwABwAB8ABcAAcAAfAAXAAHAAHwIFnxAE09tHYR8I+o4TF3c3r390EpsAUHAAHwAFwABwAB8ABcAAcAAfAAXAAHAAHwAFw4LlxAI39g439WwAGHZ9twAAYgAPgADgADoAD4AA4AA6AA+AAOAAOgAPgADgADoAD4MBL4MBPP/20Xft/t8Dl//l//79t73//Zu9AP64ouYUz0IFiAg6AA+AAOAAOgAPgADgADoAD4AA4AA6AA+AAOAAOgAPgADiwlwPXbuoXeXt1nxn3ohr7f/CXf7LJ/86AgrlIfHAAHAAHwAFwABwAB8ABcAAcAAfAAXAAHAAHwAFwABwAB14+B9DY94/pq9+3emJfmvrlE0n38pMOMUaMwQFwABwAB8ABcAAcAAfAAXAAHAAHwAFwABwAB8ABcOAMB9DYV418/xWNfSTXmeTCXPAHHAAHwAFwABwAB8ABcAAcAAfAAXAAHAAHwAFwABwABx6CA2js+26++o3GPpLuIZIOMsErcAAcAAfAAXAAHAAHwAFwABwAB8ABcAAcAAdeEwfebh+2bfvwLvOZz7WW5I9vn9AbPT7fPvnhy+3TX2d292M//+6r7aMfDvzvu88nPv5y+/T7r7aPv/7lZMxn22GdYt9EN8v8Yvv5m+7bU85TNPZb1sQvT6Wx//bHbbu/+zaQuRzv/33Y3q5I9/Xddt8nJDK/3d7bAds3K5nq/Dd398VQN+d4cbJ+JUXP+WF0vitlcvDfkyqMSYGY+VVxttjEmFMMlPsZb1pBIn332/uvE1tUXMv4ld43Dvd8oXJ6dvj7xo2Z+pPYnI03vgS+OhuLTGdD8M35zvDH2DTc37g8q/Gytroxe7hr7NBxdbIUP7atjjNzzYBty3RXTAIWb2q+hzlsg/Gx4ZphNbPZ14SqM41lotfxpMcliX0ytufY/faf/7MumBY39pVtizhZXZ2TGRafbbG2OnwS31cy6byJ01pm9734qjlm/SmYRpvjmKPYz8ev7dfzU/saJ8tS9teTTXfiC81N4udyK3LBrZHbQRmkdx4L7Td/T3h51E7DHcZjNz9GWBn8ec/TeVw4l2AjOTqSKefLp5Kf1jU9dvk9wXA5J+GNm5Py0o3R8dR5fHSulnPZ94KB5Z7mQOT62v/L7HgZcnUsUxyIvxbvdNyELy9m/Lu362uenTjcPm9UvWxr95l64tY+uxUZNI5eRs4In5e5k3Ch16p1Ttl1yAFM2yF/7XsM38fioOD3EJ/fvHvr+gF7MNFrCudEgvZy//kQ/txeJue1uW5KeOzt6lyd7JdIzrxuEO7JPs/rm/0+lpdnauAebu0Z4zg38Z9y1p0v/u6OF+25P2xv9b60kX0Vuz2+nBzzmy+ONeZrk/yT30z0FpmTJvqYS/sa+/n8M3PZF2ruf/+r7Rc78i+3YYLJlWWisd+SKH55Co19KdC+UPCGpCc+jWsbxIxAXKyanFpI+oVXLfBKxqGNhhQmNf9N0uRbFfngh7fT/5ams9Hr/Kfiud64PWoy7vBrFXN/XvBvMTfFQxb0NS5ebohRbQh1Lu1YnHf4KzcLmtxkzihmZGPZ+rkbYt52+u0WZiPT66TfFrNDeUIxWOFTY9Ps4t/eF2On57hsGEzMdV54Hfpc/e5lGlkDm8qc+/vt3jfghriVsTFOb+rNj9Rnsks39/tGrHGl2Tqws51P/J6eW8WuNrSb/+vx3Gy0nDKxTZrklsdJLBO8vUzP/ZVMOt/88n46HGvemJuuU1zd/MNjKwZqHZjm5cA+i8mO2ImdIk/hQ3gPuNp5yjo0z329lWZ0m+PzckesfexlbWgyq/3tt9exYy3fzY8RVrKWu7qnOWQ5qjgzkWl8vwgrpUfiTZ8H+GHmjeTx8SlvEzmWs3PZBotE1rHz7H9+g+9hsDlm3y2xuI6ux4vldey/WXyoPvXrn7N6j+bcWX0y/3p6J/ucsAY9s1jvrFPHc+dEjbrqOsLxuB4XnkZ8L/WnxLHvh8YxIvnuprLk1cv5nOT1KC/OcPPKdbXE4XhePiJ/6z7S86//7rYx/7bkwbfC2fn1nPDTcr3L5j3/9dY30XeVT2rMf0FP7H/8/VfbrIn/i6+/PHZjYNrwP9Oc3zOXxxz6CwN52v+JNfzR2I/9/HbkcRv7vKCVi6Z7ehBeP7GfLXbZMVUokoJtFt50MeBFpV3sjxYSacKxof0OfaKTGwqjopf7oBcGY7PYk9ouvrPMrDBfpciJDSc/135l2Ohj+QYgldsahaWpOoqFxc9yQOsdLNwl9qrJ5rFO7TJxZH/8U5WaC14m/2bbxnnj/CWd4wWU7GyNJsbEL8ZrmwTL+mn8dOcKjzKbFnh6m6QxbuPWdZFfvglpOMw4zvIm87sc+/DO8oPiEmpB5yvJCVzp57M4W93V1lJ/gk9zOZns6bFdsYs3HUZxyLHpcRJbTL5kNvhjAe8oM8PQ2Kll0nftV5GXxJk4VDH364HhV7RHfL3oU9va9LAdxqepfZ4rI/+s7ZxL5X5W5J/FuM7TuZzGyerNZJhjqe/WxojpQR1DO2s93cmPGVZSs1rNIZ1ZvbbH5jIdDhdh5WQ0flkMI8ajefPjJtebrvEcw4Ud469iJ8Wm3JEd7SEeBpur2H4rjC7Q8yixvMDOR49DWo/GObKy92jOreTtPX89vX7tsli8Bl4d9vHMWnBm7iDfrscFG/u9XLz2uIv8IVz19dhsHZlz/tr+PI68C3w8UxvPzB3w+nBeDuTcAn+y1V2LRh5zTKTH4HsUxU6a4/oGwf7AdZW3s3OPhk9tfFPzvb+K58iT7DR22rxXGAQ/9zTnR/OPzi3jJ68aor9keLqv5kFjv7Xx45fHbOz3wpAU9sGmohSldlHskyIp2KZgJedLIZrKrDqkcBt5UtxckZSL99hsGSXkoHGs/RvgIfbPGsyh2Gq5j/1d+6W/K7tW8fExIX8l1gOZBpPBmK434Wexj+bpDdo4vk2f0TXb0I1lTfNG4Zbr/GzjvxKY2y18ZxkD/7UuwVuO+d9yfPZ5eM7ELsLZN2ktpuRjyF07JmJVYsZNt84PnmMxE5xrg458s806qRN5PWPf+oZKuOKPF90THIZ4VzltSdB2toPJkxqZ/mrbnX0NmtQ/4qsSKf7a4x+29/o1ZykXWHeRa+f2NYFiILru77b35VVubfMpGKoY63xMdaqxCkuJNdkROMR6xAx/I2ZkO+Ua2dBnlm+CV+Ri510bU23M7cvsmseO87+M0fzQtWPAvWVtrHrpvZsDGQULwVbidKdfQ+fzyfp3f3enXjO01pHHsnNuhH+rs4T9DCtrX+HFX2vOK37tl5nwU7DSr5/zvGo5UecPz9c4DXK72enmez5azrtcT2+eVb31vazC56LPxknGWWy9/nldSDCsNZVqWIZni/V8jbF+q1ym+cytnu06rzLcme9GpuTHkDszHbLvvLOvp1TcEKypjoqhQedcR+NItZFjOdbJ+yrJ7WvF95iNjWfis67Du2J3v71vtarH1fBQamoWO5dPspZyDVJGebvcvL72+bxRa6iKt45VsVVqaNE4ssHnmuHntsp1m7d+rdT2zPc5Nb7Gl0XMJ1iRXsp7hbWRLbzUtcMeG+Fn8TlSEyRf+3uoOZfe2teISn4O/VvgInwc1D3L4YKP5OpqLTnOwRIHq0/rqtwRf4vdNWaak+P5bO8wHpn/6pidp+xyuGtbmj9LLgmv2Ecjo/rYmGlkqbyuA8zcgtHMPuVfyz1zrNiT1TbPKYWHiktuM8/tdkoe1fg6PyzuKn8WuDR/yP9ek/m4t78otWOGeoWjKg7Cue6TxLN8in9ybKLbYC/jXR3wfhfTlS12PfVYd5kNH+FIzSvyRcsr5+l/lQt6n9nO8RjGweLY9JDdg3NOTpvzYMdrQ9+8U7839kn/r3+1fVyeXldN+8NP6y+ffhc78nf2z9+9Xxv735e/IJg07BWG5SbESOa5GxTCkYf73NvY/9M//dNt79iH59lnW+m57/3v3+wd6Mc9ZmO/g5gUm7T4uoKmCMqyuGD2Yup+p0WyFtW0cFVSKluouOuNhDrX/XF6g52e7OvxvKgkRbAW9bbpXuryuh/3t/ErxXIV8yx+jOf8olz5vUNvurjRPLeBWeBv/G18ZHslNzt/lY2p3CRvwrgMn4Xc4Je1j+1MuKh0s5/iEX/O/VrnQM8vtt9gqXSXcRQvnafuvFwALPOmxahiVrCpckl/0xFjYW2I56cXqoMYdE6rC+3Djf3KiWa7XAzUmHqfNXbBroKL8ENxwo+j36vz1KWgv4ay2ApfHYZOpucD/7abXBsTy5Omk+QKd5P8VnrbnIZRxUKtJ1on26Rk6vqd4G7GJ+eFQ2YjP7XPYbgnds03uShUcZRcU/5SnpINyk8to3w35xmzkIvKD8lXyb2ig7ERWyqnmx31d2tI7dCh9TV7eV6pXS3WNG7CD5mbyrP4Ezd+fOtuVIlPwnv1mcpU54tuzxP/219YVn86/t3nPblt41Bs0fN9rOV3z3UZ3/V3GXJMcGpxb7WLdZmLcPKnc8/bx79tXSDOStz8Z8BP8GbdYqOXwXq6HcJhHl/tbnyttag1E6JfhIFp5PKY8bq60iE6VXPExS5i5fNsrcPjIn503JwfBu8qv+Ei/Om4ruN73MarxK5xtPDF4xb98DiFG4kGF+agsTOcZ78FZxpbbTLzPN/rb45Tx7nYx/N0fXKxc7nXmogNC22TrYVFvs7zgMdsn+P1Oh4H2xdYid2CndSovs5qP/J6MMZPYUp2yF7OYZng7fFhHTK/2OFkDPzsfkgN0DGt/oS5Nf4tlmVc5bUcC3MsTsc4uCNnKn5cA/14/zvmXMiDKo/iHnyJa6v2J3CM8sjFo8an86rHzB7jGIR8Czx3PtJ5FUvnw8jftoa48ZSD5hj7o/dhgQOetyubQ15XHZOaH2oj6Yh5oHne6onHKK071QZZn/0cg4mtW5yTKgahvrJsibfPaclhtt3FV3GK51tZ5GPAouazmVvlyjZW/Ay2Wt8ahjSOZTTu+LnVDrM302MIwxlO2u6H+04N7B++3D757uwrdcqNgPlreyx+mU+1Ob/4x3NzOfWmwHefb3LDYdS0b/PpZkX2VL67qaHj9kS+72nWl6a+/G/P+IbLA/qIxr4u7BXoWAR9csiiwBVLiicHrBYz2YQUmVJ8hoXNFk6/kNsizLbw4qkvlryN+ndikyfVpFBHe7TsJ/7d+0W/Y6GfxTxbRM14twCnibtHr7dVNrT+aRUfO/3byyDbCk+Vz/XYcLHU8sKGyMabsSny1YWEmW/HS+OBMkfnQ2ITc1zZ7eTGuHAeRb/0BmMsz8St4kieuX9fgMfZnDVzq53784btkzpS5jUfNLf0d9IRbYiYad8JdfV/PmZWnpXFcppdLhbB/2BrxgOvn8eY3Gp6rG2iz4w1OZbbS+Nrbc7j4+YZmZkNFV/NZdnEC9LqHGNqG358TGNh9QQ7jU0O10W+Cm7m08Sq+jNdvxb2BRvseNFtYtfiLOuly9Oaj5Ij7UJvVHfIJ70+5jaYizeDg+Cq+JDhXvUML4CKX2Ye26EvBoUTJbfkezyv+SG2edlyXNmsuKhzl7DXa8IKf32+fPdYkY8DG8UGlQfCAf5kTLR9sudhXNmfHvvqZ8PV+iuyda5beYKT5YTmo825lX1WDutnm3Qcxa700+PZ8M5ki/25301+w0fGl08tL/ErzDmro16063pSfFN6mPMu3zUeamzzzfih/ePvOpZtjpaj5ftGJWEfcbL8c/HVsh8rduSTw3GVe6ndDk+NFY0f57nkzdvyV0Kj2tzwybjBuFqsNV9yPo5zPeG40t+40Y7VuMrabT6d3wULz2u99i2wWnI05bjm5Rg/W0tVPFc2J3yx2Cb5pflRcCS/PQ+t3Q13P7fFQdksTVzBeoHrIQ7uzBmpUR/KX2fqdXM5P+fr1H+HifjzDWGzyo9kbaZ5jL+hc/thY1XiHfijbBIs3qaxyv01PihZOQ5JzmZzlP6VzbJf7H4lOny+OR6v81Vx1s1tfiqbyzEtc45rH0tzNAedTNY1yDc1VusOObu0fyafz9n6X48N9oDGFmWjx8jiWG2gv/QsHJ7V7kZ2+hLWF6fT6lFxPTmOmuHqafxMz3jM/En7/k77rImufTjf2G/N/OQvDDKfsqf2x35qWx/3+6pRLw19/bmak+Fz7WNo7CcFclZkuADqDV4tJrLpoMR3BebH+meMO4uaWQRbIZFiyQXq/u4t/WlzX6hGCSC22MXbEImKeLKYK1/Wekb6H/F45tdgwRrFnI77CxQvY7HpIKz9nBrXoLfaXKO8vX9XXj2i+TbBs841sRrYttpEdH4wf4zMxkllC+nRTzOoc9l42dSYvPFzmPNL3Ur+0i/CaCeeJLfmj8/dQTwP41ZtJ7tJR9Gn7WP9tBEpOjVemQ0hDkn8aF4Wq7pRqq+mkM2wfqpjdywy21ScQmOwnfM2CCfKcY0LHze10ujM5ejx+vswblrmIJdsDrNejRPpqbbPdEoT0MqLT7DlMjROWWzlvHyynX27q7GtnJeTbv1a2Se86RjsiF2L/6gxIMfFqPtxbaw5IHhybHM+mAsamhfXSfE3x13L1d8FZ7Fby+VxzRO1luc6ajx8DSqYaX42DG3Oi/2d48U2tqHHaGavOic6Qi5EznR91p5+XORmuOljFi/BjT8LrnqsyPR5k42xxzRONg52XOBTwIJt0PKiz91OOjeQIXHKL0Qzu7pc60M/XuziuCfzA5/msVvr6A0Jg4HyN5fRbcvPs9yUv3VvEc4pnXb96bq6jeqYnif8l/1LzcnjNir5SqboX8tL5lPsbHa0X1ntKHpDvIUnLL/Nb2vvLM/laXuZpWueyLWfMUe8XpFVPi/LdcKyiVnZlPC94upz0MptCugLc2+GVaKHeFD8l7U4ibGrdSP8vK2GV9bU9kvyxcv0v4ssc8zlx5q7igNurthJn57Pbe87w/UgB72OhoZ9+EL2NOW0wXY5P4vhwn+HicVzlR/zxr62nfkrXBObHLYaD8dLOSW84dgN/CWfau45/2ieOZbIIJxHubvHZp9viQ6XW7Y2+vmCV5HjMZzVVc9PzTO2Kce15lw/2f8NxmT9GO0bQs1q64LFw+R3kx9x1nzquWtlteMUwwQrX0+aPsbY8l9wZ55/KA/daW65udNzfuwNfstT7r0Jn78OR7+Kh/HrTf3WVM/sHT4dr3B7c8XGPtkgtk1uKJBd6tU9T/zd+sLZWZNeN/P999k8kf2Qn6+7sW8Wk078UtTsYiXnBsV9IKcHbjCPksIWc6nb/JkXQZY7KJ4m2aUQjxZEWYBG/o42CYLHE/6sG64Qx0GsspjT4pYs2nzcRkp+FX1+8SQbDujtvJH4cPy8XrOoHvTXblpmcZxx184j+9pGwZ4zPglHB5j0sft1tznTDWCx6Toyl74ufXP4FLvLhQvNs/kquohXDV/JbWGe+3TjfB4IRw2H/Ma2xInsKRczB3FbxWGEz3BeqXexHppNn5mb18fxeIkH+9lw0TIHNkt8CgeNfOG54lx+Xl8or9eDkQzOgdzvlh81noUtjRMDv9ocZb9cMDi21Z8SH8+VHbFrWNma122Q+KhPHRuZL/41/st4b1M9XmRIw4Dm2twr+iW+Oe4a7x06xE7z2WXkOroNAY8MAxOv0dyBrcWuVKbgWD9nnKH5lRIUh4kuwqH73/1Tx2pMW04a7Io9aqw6Z7HMxthjEudiw6G5Ayy6PNbTcyZyzDaaNdbWxo7P2G8ZY30QmToWiewQez1eZPTPtY4B/xRmuYxuW35+blfBvtU34YTSafHuugQ7wyk9T2SpuhD5IvjMbMx0yjzPPzmu5cX5hFPyoFL3SeSoTx9v8pWZ2vAb+M91Que5NK3KOsC22purSm/FsedIPVf1Xz/Xi3zGjC1OcpBs0hh3exlb29Ql22XtULxI8d5bEw3WMcbig+AT8BvUQrFpj81epv9dZJljxuY93O242jzk44K1fuI3rwGyVl3Owf0507nT8kLWiWnOZTGc++8xMb4v80P27LIXE125HRRHs6/mcdpH4U722WMl9TbXY/YUji8k1xxLZPg6ZfJtj80+rxMdPneMTj+/4mrsFqyFl7bGMNaFq/24ySPlU8S15py6uTmPkfVvj+5uS5mr+cOyKMvavtrKt9wYnBth5euJwqHINfx35zp3OqbGFtI5OJfJeuBje55Sj2OkcT64CSDv1G+fkwY7+Xftxj7zfvm+fGrmf7l9+pvy7wioJv8DY274cFDXqEHvG/nZ79HcM/bsnfu6G/u+kFPQB0WJzu0p7sn8SUHLAhUKWTbfLDpqQWnEZVtb06IdV2PrZlM2iZktZkHOZDzFY1O/kvgkPOCFcOeCkMUn4LLWG+K+WPBavKb+Mg98jDNdTZ6xPeH8wN++MVAcq7LSc1pOyucMM5Gd2OU3AanMfB77PjgX5AzGadzCHLF79Fl8rf9gVNs81bFF1v2H7cO9urAk7NRvpZti2zZmI1v5uN5k+otG4QPnwv12fy+b95EP6riOrbJNZPqLFzk+5mXOBcMrg3nuN42Xi/HMRn/MyMxsqDjWmOX2K1tIvq8r6nyCVZBpbFKY09yDssockicb+cRHj4mzMdjnGstTXnmuN3ssRlGHay6UeWTnmKOGK9UHcyz1U+GZ4V51Sn018vbq0HJJnvV9ejNSz636wvgyRjjfxiRxlnOpTMezFCs3RsnJcJGcz/mh7ePv4wtZFSPxQdbO5reWV+2cxM7yLZlr9gzZebZp1dhsGAzxzGQLzrnfTabCvx1b2R3mnNVR87TFodqu9BDWqtlBtmo81NjcD8Gjf6Z803K0fIOJyNC46+9y3sVXy24czObZ+UNOL+UlsmmO1HHRs/h0eizv69yVXCXDzKfj+R5F4hjjxH4NcQlrC9tIchrHEmxaTMr42fkR32u8FU9T3ho9CfYKq+i7rMVS/xM7JzWLMR3Zz7bssdnb5X8XPeaYySXvg2CQ+FKw8nN3xVdkqk+F6yEO0rx1zpC/JfZ+vP8d4j+PR/Rf8Os2GX8qd8f5kWFacBrgX4/3/UHlebYvC751/LuNub/9/MA+g2Nia+BJ1y37nfla6+1KdHiMyCbJRcd5wcKNkboW+yaZvjXWGjedc3S8XeNpLOS71qe/y/lEd/XlfXmNWqulwseOA/no6lDzu+JSbA0cHWHl64lgq2RNY0u2OPtExuycjLnh5yVP7PP7+blZX+Y/vSf2hVPrT/F/6sMN4+F563+PmvNnjnsdD/H7lTf25QmTXhSoeOqi5klGxakvum1RUXOsjKSAepnuty7mHHQvgwt1KJxKjrUhSbhFYRayRVsSWUqvzHu0zx1+8aI4jrk/v/SFdGpO5Bh5uSFG3vbAtUSun5PFwi+odc6MP91n5p4dW/moOG+bg4mdZIO+yFtzOuDjfPN4SmNPmmyymdWbgjAnlaljmeVatlGyPpMejY/T0/GVeRUP/6e+ZV6N164nmNR4jlkWv6oz8GDkFx8vT2xYHojt2aePr/hRsSXdGmeWQTFPLyrEhp63gXOe5z5/Kgf1ptVyLLHZyfT84d/xz2k1Tjym++p99Oc9N+i84RJjoXXoCwmWp3BSF8vhXMKtJSaOy9E+z7kdsdMyHeaER7Wz5baP7e4LXlWDvAzBQmFt8fL8qL91zi7t9DJiLA/xI8NKxZu55ONRL1JVk8pwLpXpcpz87JwOuegv1jzW5jxj0GJLXLDHOA5Kn8yXWHn59JsKVv2T9Yq7jJf5KnYad8tpawtjZY9Znsi+UtcFh5/me/nu8WznrR4TJ7mRbeKoY81z9fpHPrbxiewQey0v82GlQ7im1w6eI/WLsdNY1Vi1dWCtw+PCfqpc9/XB4J3g4Jo86/get9HLlGsJxmUlL7M5clz2QIK1x8nzLthU61nbe/g8kzyqsaL5Icf0WmQ5pHNObGMbzuS6xoa/G/8Dx7VNE75XLLqsGCPZq1EtW2DFNTNytOdrjKfn9Rg/jbn2aWGzi2eJSabDHDO5VLCMOthubVPFPMytPrfcV7VUeLXA9RgHI8Zif4uz00e+iC11rdV7Sj8/5JRZnz1W1R7dtHV8XeZHlT9bTyXX6JPkKx76326dmfsj8VL5u8wb7zNjYu2PvDC1a2Gzra2do1aH0+twX+erqiN+rl9/JK/KRZWunW1tLrLYZ+GhybmUd0q/Wb/YL5HTclrpZj5IHPRaLY19FU/Jb7V3MnxK9zOe59rWvMZom7Ttua6ktjQ7BufaHsvaEuRfcVx8Gj/qno2Rxvj8VT6P88T+FDd5F//3v9p+8Yb/AeCPnsFT+2ca+KO5U5yuxLVX39gvIPOmg/7QqJSqzfyjMGHjIYVOxvfC3APWCySNUpsUGhOKvk1uvzFhubUwVrWh0GmZdSFVFvavdUNife6nyze92NnFxNrZ/X06xw/51dzWMbc4tyH0RY9TPmccGSSotS+RR3EUrXoxVfqUbCtP5vGnjqNsSmRE4I+SaeNqNxf9nOO43ogWWZqPItv4luWNw75tnqvviUzeZIpXlrtZ3vj8zvjtZQasdsQ7k9uxy2MZN8wyrmLd8GCcgl2Cs9Q0Gj+KH8sW/jBXWK7hjcissZvpjP5NOJJiOLO12kb/UJLE2+VHwg/L+w9beBpFNshN5J19d2Ui0/Dj/m57X/5BNVPjHY/9miLxEZ0+dwTz+kn6WuyFE3MdxkZ3Q0ZizuoLhiyrx9bFzfgm+vtntM/HcUfstM8J5sStysFut7Oh4Wm/dL+kLvXzhuvCybsPfUCIncXm/u5uK6ONHGOnO0d+2tgZ+yoOMUbdV5NnKVYe/zLX2u3r4Fqm0y9Yfd2Pe87ZZkfw4oypAAAgAElEQVTEvudM5Uf7tz2KzHjsmPws1y3uH95ZHbpmW07bcYxVPGZiltaFjpXBu8Q8wXOkx8/1uFg+zeIefYjrtuNSaudMh1y039G/CSWJpW0UrKmOyoBQc+Y6vN0cy7FOi3eCQ8K/dXznNmp+SQyvGjuqHd6GrEmj9519vMTE+ElrE+Mj573NOs8llvwPffY8ljEeA/97hIvMl/Pzdd3FkzgrxCqfet/A/otvUif7b5uzgk2v96xLS+/npMmpzvp13NsWeG/lz2pWw6Y1Yrte64+VWUZpm31M/O+ixxy7oCY0W9O5zr6CGa1zPW7X5KDEvKOlcqbGJ8WvxarnkMiw4yMPzHnDgezfDup4SJxm/hds6Xyzr+ehzG/4m5rR8bX5RQwxfRHJA/G3r+U1X9weyPjb1juZ7X1mf6OtHmdlb5HpdNo9js/zTIc7lu2tTKz8vl/Vip1zOY69Hs9wNTmnMaQ4L/xL7Pa6G29MfWSfPN/k1awt7iTfxSPRaXnX8Qq+ES9n+6I+l9fyjqHRQTYMzrkbJzQv8YN893Vb7LvxZ2nsT592f5R37KtYODz6jYjkZoM0+3/4au6Tk2ni+8DnRs35M8dvYf8rauyPyXcLoKED+IMD4AA4AA6AA+DAs+dAcgH07H268kVCuVgNDY3DOlyz4fD8x8+14UV79eUpXTgf4fB14vv48TniM8YiXuDAM+DAtKH5DOx/huvc08qL579vKHjS3sDcoEq4q7jub0DIrSP76W5A3IBrvcG99z35ddx3n2+aV/vk9CY6v8bnoM7yrn6nt9uw7/38ond6E0LhLuPHepO4q/ndvuuOO9PAH819KFu13BfV2NeO4ft1CQ48gSc4AA6AA+AAOAAO2CeeXzsefBFtmvj0xN41LiCf/wX682/sP2R8X3vuwH+sp+DAQ3AANx5fMa9exIMXZd29xh7qFfPgBs3vh6hdT0XmqDl/5vgtfENjH8Q3dwRvQTrowEIDDoAD4AA4AA48Uw7QhWN9Dmr1RNVr2GNpPAiW8xek+umz+FqC58Ob59/Yl1cC6Of+zscXte/5cBixQqyeHwfQGH1+MTufZ7TelqXqme/LcGPqPBdeI/+v6fOZBv5o7jXtG8lCY/81XHTCR9y8AAfAAXAAHAAHwAFwABwAB8ABcAAcAAfAAXAAHAAHwAFwIHBg1Jw/c3zUjL/mcTT2QeZA5msSDLJw1xUcAAfAAXAAHAAHwAFwABwAB8ABcAAcAAfAAXAAHAAHnioHzjTwR3Nv4Ssa+2jso7EPDoAD4AA4AA6AA+AAOAAOgAPgADgADoAD4AA4AA6AA+DAq+TAqDl/5jga+0imV5lMtyA+dOAuMTgADoAD4AA4AA6AA+AAOAAOgAPgADgADoAD4AA4AA6caeCP5t6CV3hiHzcPcPMAHAAHwAFwABwAB8ABcAAcAAfAAXAAHAAHwAFwABwAB8CBV8mBUXP+zHE09pFMrzKZbkF86MDdWHAAHAAHwAFwABwAB8ABcAAcAAfAAXAAHAAHwAFwABw408Afzb0Fr17UE/t/8Jd/ssn/bgEedCDxwQFwABwAB8ABcAAcAAfAAXAAHAAHwAFwABwAB8ABcAAceL4cGDXnzxy/BR/Q2MdfBeCvAsABcAAcAAfAAXAAHAAHwAFwABwAB8ABcAAcAAfAAXAAHHiVHDjTwB/NRWP/YDLJ0/rl8xbgQcfzvROH2CF24AA4AA6AA+AAOAAOgAPgADgADoAD4AA4AA6AA+AAODBqzp85fgte4Yn9gzcPbhEU6EBBAQfAAXAAHAAHwAFwABwAB8ABcAAcAAfAAXAAHAAHjnPg7Y/btv34Nn3ol85t8t+H7e3N+oKfb5/88OX26a/n/vz8u6+2j3448L/vPk/9ZN78cvv0+6+2j7/+5WTMZ9thnWLfRDfL/GL7+c3wneO6yqMzDfzR3JXOa5x/VY39krz3d98GMh9O6q/vtnupAVsi053noffb+6/3kOzt9mFLxr77oDTKV1eA3JgP7/boq2PI5qj3MDZPIWE9/vd32zfOrpVf39zpCCcx1vIG2GUJutL75pIY7vD3jRuT5UFmbzlWbM7GG18SjIM8Z0Pgp/OdWe44rnF/8+323oaJpmS2ki1742TsiDnx5k3JUfXfYLPA/vPY4Kv4UTGJ56uOIJt9Nj42XDOscozEequ36kxjmegVH3Z/aiyqLjHEfLIfPgf1kOZ/892c3Vlr99fHFde7rcIX51+I42dbn1Nsl3nKpgkPaW4aJzV/d1wGcxS2jLfjUqJ/6hPJS/w0djrctsjpmQ57TnMir2GhRr3RcRFbnd9JLA0/gs1ufjWrcdj4H2NBshOd2nbvt5Wt8y7KD/XMwBbxF72kM+GArnskajgmsyU/tgcDsWv/5woXa4v199jc/TZZnXoe6dc8UPk5umDV8/FdYbusRbeP79ONz7fb23fxuukyex8LV6v3TD3xtdaUS52fi7p+GX6Kw48lf5k7mY2MP2G1wkjXNQNu/2H3rZm+ybGL7J/Ie6w4aL3v3l7QjOR9CWOZ71EE8VN4azuf8nfab4/3O2m+Kq7aPVfCF7OfF2T1p+w3k7k7cLP7k7WMMzUwxWKHjX6eraUT/wlnG5uwH5rql/qf8/zB+f2bL4415muT/JPfTOJYZE6a6B7r/ntfY7+P1zacmctyqLn//a+2X0zjpXU+3vdRc/7M8RzX6/r4ahr7VMSSJjwXll4waNz0QpQLRCvitbCbwnDJAkEkl81PLHDLou3tIBuinJxUUuzs+OPYXJecua0LHR6H2pjeVExXfvnz0vhoMTcFKccus93LDVyrC3/nkixGE593+Cs3C5rcZE5mbzk2yhtvO/2ebdi9Tvqd8E3FaWRTP74DnxarnXHyeeNzufrRueDqQdPHMRP8Gvbu/Jt6c6LLq7Eueu/vt3vfJBziVsZmzUv2O8gvdgz4Vraa0d6JnODTiK+reM2xLHH3OcQ+9PrduTGy4fjxNdedXzs4wrzodud+qfxwPKTxh3LlQr9bTtf8UTq9DeyDstlz1f8OvInx97gsdQSZCWeSMZ03LpZy89DhoPPJ2+j5IutHzKl9MSF5TX+c4/WLvm6j9ynK6P7LuRgLP4b0Kj7Y85foFN3xc4WB1R3n5+eP2Tj3d6/Oy8ZxjPMnzh4Gm8vszHF+grKWtegJ2jytWw9l7zXWfW3bsZy7Hp+up3dcB1jHi7/JdkHujDHT3Mi/X72+XWD/9XiY+3hKvtsb7pVFMWn7ikmeh+uEB/DhUWqb8+MCHC/n5gTvC7E4k2N7OXPNcYSdur4l+9Xvpovyla5K3c0rxnDXvrrENt2rHpBxYVyaH34+Nea/oCf2P/7+q23WxP/F118euzEwbfifac7vmctjDv2FgTzt/8Qa/mca+KO5Qz54fpz4/Qoa+3Wztd2XPpl78jjb7GXH1AKQFH9fUP3vXYGsiyc381RzpAZ3tYBkOldzxC6eWxqDWm+GQ3ZMYXOCiGLL2c8MB35aXXzLfNDH8gU3lSuNRmrAivwRHlqHjLHH0ngNFySWkdplNq7sj7/YSHWZ+LFt5UniPG+cv6SzNyp9HMnOtolk24sNvflUbyK4MV6O+W38FEzzT8bJczyO9TZJ4102D4Sb2yCkMShYUuy44S7zjf2T3C56Pryz/KC5of50vma2if0aZ20DzWmYs777EvCwwep69Pxj3xN/FOdy+1WM6gZPYznEXsk9ZqPSRzKKzQuuOx5mfhg7Ez+kGSu+FRk2Zoy/nDfyruar9t3F2/nImGqb3PhqE9kp/EplKJ2B2+Wc5swOHR6LFGulMx2v4k3zXV0zNVnbJ3LdsZXf3gb32+ao6JDPCSatTjl7nPwsPzIO+3FzDh7X6eXr33MMBIujn8dsnPt7VPfe8RxfWYf9Ol4wehhs9tr3TMedzEnNzZf9Pa8vl/t8LOcu1+N5eT290zqQrmHelmf++4LcOVOjzsxN+XOB/amcHevoTeZdxLmSD2qfM3rAqPp49Rg8Fey0HYdxPFMbz8zN68e0Lmk/n8J3ykH/AFms0eRTeWAtvSaVa+z4Rgabd4y1XDvtP5fjbOdfMqY2vqn53l/Fc+RJdho7bd7P7NrTnB/NPzq3jJ+8aoj+kuHpvppn1Jw/c/w8f0ax6cdffGOfCgM1FpJCOljgyyJmmyodsOwJUV9Qjy+CqvCkNiW2u+LsbSjk2WWHLGZer/9d9U2xcTbdgsC7dGhf9Hdl78qvDN/GhYFMY9tgTNc7iDHNc40lZbfRIceNrrhYpnNkbv2c5o0bS/KMTnkafG635efAf61LuCrH/G857j9lnLfRj0t/a7v0d1UTsnlN1w78xb4mp2+6Oz9Yn8VMcK4bdJKjN+tlzsxmPtebRWKrP76SM8KC5ckfm97f3dErjNINVmq7lpvZtKfG1XliBH16Xvox/ry247PN3Cgku5XwH/+aXg81XD9KjEO8nfzGA32cbRS5Uo/el/dGyn+tkSvzvF+WG8QlmUufct7GjW7yDGzu/BTuiO76WeaJXZITd/pFVqLTzWsYaLn6uxqvdbR55Xz1X24stHMDXMhHBUiYp3ySG1/ik3vNXsdlb7wTzKu9nPN39rVjI9vqHOEHv4Ku4nZnXyGY5mGZTzjEuJDMBs+H7X15XZ3EtmErccliNfaR16Tx+V0YUCyagcn7VK18X49Yh30Hqz6WYlpfdyjj6FNMcNgcw09xrcoRHX79Hh3v46zf4aat473UmDJffDZ1hrhnZQ65JLw4qkNjJzm2qhsTHR2LiutSJvsnfgnGs/j61x1+oHyzeWTmm8aa5I37dD71tZrHzeRR7H7sdaPFdZknYoOrkxITP7/w3dQjN8/4aXGVG7fpq+iEfxf5YPk5z/WZvYJF/5Sc8K/3bPkia0Pl/ixGbY2SmmGwWseYZBvs7Z5oyIETvDL7H4nR/d321ry+VPZQY2znuHS8Mx99rhF8Bgcbf1PzJPdlzW58Fpu77lY32pgaKKWL/dB5Xn2WfGlragty0l8Y25v53465OEq9iryyvkUOs82tRkjdps/qj/J5Jb/ntfhs9c/n+xpR4mGPFf8lp4sG8Zv8EpXhL5g9F51NhGU/JhjTp8hsMV3ES8Yn+cycGuDt4lnEmJj48yomPqYNCzWm8TnpDxk/yf7OacFCz/d1YDZf4t18cVgbuY17BeNqw3A84yjxT+VUzPIxO+Y3e5K6cOhcbeibd+r3xj7Z/utfbR+Xp9dV0/7w0/rLp9/Fjvyd/fN379fG/vflLwgmDXuFS7kJMZJ57gbF2Xis559p4I/mphxVeF3j/Itv7HeQkkI6KBZpEWvAc0FvBaouOP0362l13RXIbs+AVH7TQXr9IlKE9gWIZNaNRyte/nezX+tluTTH670IGy376XznBa7idZFfNaZmgZxgl2G9Q2/KO5rXF9glf2SjLfxocbUc6nxdxSnJm+Bfhs9CbvDL2sf54zju9LaNi0q26NfBOKU6xA6R5XLc8KL4rTGTORM8WozqmIJN3UDazZqWy2OJM22zGc9bW5wNgxj0etA3zFM5DjPmaMWoYVN/q01457If6+ws8oOtZUyX2SlgcyXmVOVZs4t/a96YehF8S2w18ZN4O9uavt4s+4Z8Esut3R0bxsLbJNzvdnu76u/GDftKGssrhWUbz/ObfOOjxEfrdOMrbsZukkFXKu3fPDHnA9Y+7jt0aBkzzjQ/LS7+YsXHQS4wGy6kQ+qD4JI0VyTM9bPNJ3s9J+v8aiNx2ORN5Ky1U8el2FTly5pQdKbYKB4ovpJsP55+21haGyQPBJMYO5ubJzHw9kltaH54TOpvhau1h+3Wx2zOWP+WMfL2LfET3PqntkVjPTrOY+a4cv6p2lNzVPjJ51VzQXJYcWmVw3t19Oawi9UOnSsdGi/6LjJHdSBpJJXUbfvrsO9nnAW3nnOCbfUp6JPzPc7N1sqRXOdansSuz8/y3mGt6yd95/PeryizY+P5SHY0v3XeRG4236sdl/ngfaq/Vfy0jfp70W/tjXEZn/cc8HZE/Oe66/yGnaxVnTN+frFfHxvj1+MlXOUYr232a6To6ByJMrRNbd828UvzwM4t8dAcqvExucL6uz0WE2O/q3dab/vua/doban+MB59T+B/i/3dvpgH5HOVF/13/pB9XV+UL7yRMREfiUm3SfE++O95vpZvfRj429aUJL4u5iRPmr6mVvTc4DgLz1c2S24KRhVjVTMirh7HyvtdvPZz3QNDmU/EVeWfw4R4Zjiox6p4Vtk6Jnou8975Ejhg6+RyftUpOdXGk1zZHE/sDRzv/mg/RH7/rFwzcexzhfdmPXO2dll63rHv1MD+4cvtk+/OvlKn3AiYv7ZnbW9tzi/+8dxcTr0p8N3nm9xwGDXt23y6WZE9le9uajwA7s2GC2WPmvNnjp+1ac98NPbbYtITdV4oyrheLOxmX51rF5SyYEyKliZdKN5S8NXFlWw+ve1ysUJ1cq3P+On1DgqpmaPtfqrf68LRCvcFfpHPDmuDg8cuw2KPXm+rbCDdBmaa2F5G40TfsMiGJ93EBduTDYgaw9gUwq35RnY3e9xTXvW4tokWf4e79j3GJW7eDsdJfKs4kmftH9yWvNe+1mMq39umhWTx+cY/kW8+GWMZU+Y3HDS39PeB7IhZ3aBRTfD/p/3otUvb0W8gznmg40LfM77XGIv8Nif41WuxjDFxbNhF7McNyy7TyCp2qo0468t9Zb4lXDf2rznCMbL852M+HrJ2cNwaJ6T+e7u1Hfp7w6tjILjqT7KhyfQYVB6188q2yv3og2BRa09qk9ejbKTx2bqncXI6lK8mznI8tcHr1PLlXPWfQqFqacZz11xh3qg5df/Q4jmQIbFJ/ZjMGenzeZfKTfHJY0TzNR8EY/rkuHSd/Lv5bMYKlzRGgjt/Zrq0/eV7kK19yfCq/BIbtbwMe5sf1r+5fZfgZ/0v9mT2zY6TD5nfDfvcLu0n57SOSzLn6jpkz1vz0MWJY6Pt0N87btoPntPPmeZeiseR+NomR9NFuGgffF3J7Zb5o3jTec3t1H7fbOt5NM2TJkuwmtvItmqseHy/SSNy5FPG8ud4HI+P/OM8mPqQ8dFxqGO7slfs7p9sk99LxTWaOaZzh2Xs1r0jxl1Wt08fG+E3xJ10zmx2uSl7EbdP97mnbVrnXvel8MvMDfyUscKr8pu/B47IXMH1Hf8F23BcHV/0hzEiwz31/+FH/mtEWVOGjUPNUf1dbFSfmf/mmJ9ffod1Weexxkrwq3mQ0trVrZ3yA2bik7eXjmub9Hexzx4j/42P2j+Zoz6XNsc9SNThueh0ek6QX26MYFCv7YcYyTgtk3BzsZBxkoftL2fG43atL0oe/2WS98P/VlhXm3wNEL3ls9VQf9086iOknGGdMz2cJ/xXayUnm96U5+qgskvbffY7NcPV0/iZvPGY+ZP2/Z32WRNdx+d8Y78185O/MMh8yp7aH/upbX3c72ca+KO5GT7XPobGvtuQFIDNoqkKJ4EfiisXuLiQakLWMXuKhS7kXrf5zQudLAxcsPSGjM8PN3C+UHq9/nzVPcXG2Kf9f6Tv5IPblB30i/z1i42X4bHLcPBzRnhWm+tlwvaeNp/rRbpz0/k7sC3yZRSj9QJOukmPPB0xkmWPE7Zmc2bPLzfoCc7GL4/5AAuyP5HFx3Xu2s1lm0d6aoyCjsEcp4/spvpQ9Ol4s366UCh6NF7evyIzxCGJH83LYuVt1b4ncpwPDQ/ZuGlbaayXz/Em38NYzYV8ntbXv2ubuwzmRdy4heNqiNTWLrvK8xibmA9sVRzJ/c3t7rrteZIR1hOlO+NGFq/KheZ2i0MW72qDDP7xbVgrLZ4ftrfaDsJJr1GMZ7qmVIyz9Wuqo/mosGjH4sVbx1fHVudf51Abq2LJN5J2+qTsYB94Hn1vuEd9BZ/ARcO5Piddr6jREX3K9GbHpA73ZgXry8eKLRF/Gi/ccfuuuax8T9Z543jZdJQv7Hcu39rY5YkPVq+VcWSuHSs8svK6TjnvPzP7ypjR8XJuriO3Szck4/ykLugcVxxn+y/RUbBQ82Zcpxqoxmr9g3pDdg3OdSytzH68x0kf09/Zb1mLa94NMCJ8Qx0vOhKctW875I1iZ9Kj/Yj1gf0Y2RFzrtUHsk0Ee7mMazvbHprouDb8Uv5GvSLr4lyf2hvtirhWn3wcjdxuJX2TsWaMw4rOxbVFcybjnT4WbR3Fs/pp7BnY7PIx6oh1R9s0WjO1X5oDZq7OgfbgU7dTOEiy2mGHIdnfTqq/womxljzso/U3G6+mU2JLtlq+69ny0EyG38p/g4njSbPDKqNfvI+wtW2Y55ULgqnYtJbvG6gW/5G/xaexfdZm47/C2dt6xGbPy6jDr7Uul1wcjG7DicIzN9fw2nNGeOZqn5Np42IxF1v0Z+YfY6CIo/alJm6uBjS5vn6o+W1MWtc7Jtme38dGyxqf+3Z7/2N5/z7jlnNjdi6rB+eOyVPuvQmfvw5Hv4qHfe1N/dZUN5ypdg2fjtd2X7GxTzaIbZMbCmSXenXPE3+3vvBr1Jw/c1xkP+Tn627sD4pTX2B0MpTvg2I8kKMDlxbRLDF3yGK52ha76DW9g4WmnCd7VP3WX2lxHdgxxsZj9ci/6wJzpCHixzJGsqh2f1bY2QW2blYuxVPF0Os1C9VBf8eLYfcz8syfs7/JPrfZaFy8iOua41bXUO4Er8DxzKbsWJM5yDMVWx97rTPdsIi+oqNsgkiW3ZQJriS74cvYGPn6hxvnuS12Gg7pZorYRfaUmwDHYkHyw6Yuw2+H3Ib/Pg4IXrbOdUzD+WDnWo+WYZ9Ay3y0TZ4cG3/RkNigcLBckLFKtxqb5YrEX5ohZYy1a0dcRuuhcMfLTLjdYtT4KljZv2jIfJBj1u6Kxcj/0XGxWeWyyI+fCpvB+MIPn3NGjrIjtV/sqWt1kJXoJU76m9Akp/AirmNRr/JL6TdNVnU8zhcelk/FRTWHMeBzXK44L+ey8tzoOcjyAkZKby7f2tjldT/0MSvjyFw7Vnig5dF3Vb8zX7QtIqN8jo6Xc1qHnsPfc7v03iDOTziiuHwdHY4/CdeLnu732o9gF8nsa4KcH8nsx3NuZOfNujDAKJ1HvE1wVnzWMRLbLSZZ7BmnjFtahv3u7WAZRNVWswf41/WBaS31p84vcwkTOd5x1foj/9Y+xDmOT4Y7Wi/7au3V5/l7Kp/4ZNcsGuduYGrf7PdE9w7OZPzRx6KtPp7Wv102u3yMOiL3tE17uKuxMXMpB45wUI2VWNRYlTxY+7vmm9hKdhby6P1k1WX32Qnmeo7O8wFXDSaOJ3RuIi9fm3NeMD72IaC1fO1fxD/ji+2t8ByLmT1m/FecsHO6HbtsznBsNY5lWb0OMzff8MLJsf5WO6WGEIW+3Wi+yzWRyTnElUquKzlWpZ7WWhJ0djyKHO2LxHl8PSD7cq7XNF7J3zVf8ZrGJxzVNjVfy7wBtjRmdo50Mh45N2bnLF7GHuXLkeN7nlKPY6RxPrgJIO/Ub5+TBjvZfe3GPuO0fF8+NfO/3D79Tfl3BFST/0Isj+B+6dgzDfzR3EttOTLvdTf204tPu4BYMF0hF0Lq4qu/y/kdDZCmJ5ufFi5tp/6uilE6T51v9tmizbZkMrNjA3la9q2/k992M9Lw3RlzWmBkI7iyP4tZmJNhZ49li91wodPyp/7mC1emq2OkY5pwfuDvzNb0nJaTctXiY+1L7Fo1MrQ+jV/7nsvUm4riR7gwTm0XDGc+yJjyWcbdb+/LPxCoNkzkc5F//2H7cK84Tb6o382HelHVGnkDn9pFt25u5LZS7Lb77Z7+rcy64VT6bFyqTxkmqc25Ti1zyNU0ntrfTDafF4xJ9izPUx12U2waOHXDPOUIydS4F8y03fq74ojCNMVE26q/h1jl8inObbPtxyRYOh0xx50MN55jnI1Jcqz6sNRRx6X4lHOpDQpjf15h3jmpbU5wMWuMHtv1GPtSHX1s9Dle6NCYIY8zGx2HCbd8nOWms6vxpR9nnEay9Dg15gIMOi6MseR0j5PSlcmnWPca2uXJPCvXxMzEOMNSH8s5QPqG+IkN/TPax+dGxwmHzO+aI6O4aj/1d8Y18eUaOjx3dR66OEU7Epsu2gtoOYqbrgki/NK4R5wkR2vjWvuzwD+TL8fa5w550Sb2b5onzTbhncZEfHJrVxofmV8+tQyNa7VnkgMX+ZDx0dmoY9cwbb5re7Uf/D3apI7rdzmTHfMbF1PdO2Ic/aiY1j1kZmuco3zcY7OzK9Phjxmdbj5jMMbczC0x2hHfiKvindHPx8c5YfGMcit2ZFNZS1he3//53wpr4Vvmj5xLa4+zyc0n7H09VfKONPYld+WvC4r/a/mJj3q9dPYypio+eqzYTTFbr9Udd2vDLpudXYF3IRaOs4ZXot+NEX9MTeSxPmcIF7JpUkOUzWY+He94Zbzt/uU20nlTm2Xc3VZeONUb5XLcXhvG+YKJ7MPdOpJg0uxWfrZjFUvjd8NX6apyu717z+lx1/l+yRP7/H5+btaX+U/vif392Ij/Ux/SGO7X4flx5veoOX/m+Bl79s595Y39uEhNi1EhXCi0XNT6Xfr6WzXndi0qQuZ0cYibA29n1MFzxhsWlyiJXi/T69xLspuOcxuATPfKL38+k2GOJdiZ8zW2Xm7A09seuOZiVuT6OcIj/ekXxTpntAmytmeLtud8lhfOVrIhbgY6P9cct3bF3F1isSNOHCO9kXJ2BRmrPOPz+aZCY1QxNRumer7Ga/o0hY63iW8WPyu382Bka/VRP0mi9aXfqz+tDg78C3hqTPg75UmTo897HZ4TbHf3rzbbyoMuTV71rf32OVV16A2uz0vvg/9dL1S6Tt30Y3887/xvuRgTX/i8boB7LPxv8atwO54TeX4dE30l92y9ijL82sgy1ea98rLrWMfL5wqiuyYAACAASURBVPxSR+XiEc6YZv+O2Hm//G+Lk/dR4qBrYeSpbl6QPFMX7HivP2Am/NMX+57DBbfgu8o1P77Wcx1Lq5dt7HXP2kxjSYbwY34+i6c5Vu3p+jzunq/1t8KVcVS1X3ystYHOtzpg/TO2ZBwkWYnsJk9hndbTWDME70y3nPN1w+MefK45KnlvfS42Mm5y3svrers/u3SYmuxiJXVD8ZdlCnck1gpf50ewS2Qq/K3Mg/GtOdZx4fl9za4+BX3KZh93zxmpwcTHtbwYO9mn6doj2HUsPVaGX8Em8VNkutiFumJxlT1bx63zpthxmQ/ehvpb5Xr3yY9d1MGRTRS7KqvF2P8uvrH/7O9Kd5zPHO2c8b953ej7mzF+XUbBOeDRfPA2R3wyHf5Yl1/krf3SHLRzhcPafs9BjXHlE/G2cpxyX82nc8LfOl7nYnKecZeccfpcjvBYpU/wbhi7+UW3sjfMr/a0/aT3R9b74Z6W421zjmNij1UsQi2teA/lz/2RHGj2Cx6tvkd+EAfS/O3xsjEpx7VPK5st5jYnug7LRS2/69N7ohC7xis/N6nDskbJQ1qOV95G0tU4VXO6Ydp9kNzqvlS8VTzZbvfXJ42XZbEW7iu/98xv/uuaw7aNsYqxER88Bvp4/87+6b3hvnMRsz7vsnPxafwoZzZGGuPzV/k8zhP7U2zkXfzf/2r7xRv+B4A/egZP7Z9p4I/mTnFS+XFm3Ktv7BfwZNHgP2zSBStuYghsWVh5gmoSSZLWQinnTRGcF6nxxXVdmESmKuBCgFaM6xizSIfFX2ytn4PzU2yuREKx/xqf1l4Biz91YbfjdMwdzkaEHqfwG2CX+TPWW+UZbtnN4FqeMVbdURfO9fOGG9M4xg0I2+E57mwlPxxexrd+8dH9cth7jicyPed1jLvcMccpHmpDUuZ4mQGrtuGqeLr5Vi/7NLWr4s96HWZ0rmLd8GCZwS4VR/KLxo/ix5gIH9m+ia01djOd1u8i33Lk/s4/6SG8zHyuMTObczmmP60Ou+GU+t15Xy4mIs6Od+oCgn3yOhzXs/zfwRHBnq1zMhc8JB/u77b3P1rfbAxmdjufC1coxmIHz7XxdvIS3tvccXEVnMpfpbT/+hg7tw2gL9oOO67P775nts84Iz4LX9RvyimHlV/PV3uIJJaxHox1cI3ifwBMUOl4+HkyonwKNjzmwx3/Y4E8wvu4IxdN/f6wvb+jP+HZ+B9X0/iW71XnO3Xc54RcsLa65X0R++NFYIk14/KW/2S9yDD2af/FBsvfrB6ZnHT/hoTkHPtr/Qu2JPZ53s7xE5v7Z6YjxaHhKXPHuFLOONw6t7LGapJbNH8eKx+bTMewli3qRsv7iR9hX72UeTy+0qSWDOR8s3lm+OX573DMYqObYS32otDJs3wVLqzyZBTfnk+Wx6UhWvOqrQeeb7ppanEtPog8qokSl/qPkl7mQ/F1nus2l2b2xjoztEnXoIaFtaOgqLkvdbKFMOw9/PWp5VPgwLRmTTjQ7I3YBZt3xMhjZPFmO6a5oGpYNlc4I7gFDpKNcpY82N6bf+jW4si21GN78rCtrTW+bW+ufes10durm7+U59KMbyb3uasYa653bs05TfXY2Mx+9PmKK7KWGW4u5M/wp9j6vLD++ryQv4SQfVPGCV1LBEbrz8JmF/dMhz2WY8ZcahZ03ilOS8ysfVmus80ybsYjn3MNwxpna7uvaw6bcD0gfKjjTL0o51bzz2Ala5bnSNcrvOBcElvlk3XnY2bndu5/XD3MbRBbzn2Wxv70afdHecf+2Kd+IyK52SDN/h++mvtk8mas6yFwHzXnzxx/CDu9zFfU2L8tITzQ+A38wQFwABwAB8ABcODlc4Av9PKLKcS/xJ8uxMMF8nFs/AX7c+NWbEg4DG544XxV7MjurBnh/HvEC9er+gs/+k1GYAEsnjQHyvpsb26gFryuuvzc9w3E13IzxtygymKomvfhhpPcgLGfciPlWjnRG9x735Nfx333uamj++T0Jjq/xuegzvKufqe347Dv/fyid3oTQtVHGT/Wm8X14Y+daeCP5nYsH87+F9XYvwVg0PFwZAS2wBYcAAfAAXAAHHjuHEBjv3OYLyzN09b1AvMaNz6e+wX6S2jskw/tKd6Su0nM1YVs58Zzz3PYj1iCA8+RA9e6sfwcfYfNvD5du4F9W1xVwx5rq7kBcNs4vNz6P2rOnzl+i9igsY+CgIIADoAD4AA4AA6AA+DAlTig/jR7+UTVy70w6Jt4hUd9OOx0U18/fXaFJ/+7rbeNx0to7Bfs6AaLfvDvGcfksbgAvbfNPeD9mvFGY/RV8p9eOVQWquf912S4MfWaa9dtfD/TwB/NvUXNQWMfF/JXupC/TaLdIimgA7EEB8ABcAAcAAfAAXAAHAAHwAFwABwAB8ABcAAcAAdeBwdGzfkzx2/BHTT20dhHYx8cAAfAAXAAHAAHwAFwABwAB8ABcAAcAAfAAXAAHAAHwIFXyYEzDfzRXDT2kUyvMpluQXzoeB13XBFnxBkcAAfAAXAAHAAHwAFwABwAB8ABcAAcAAfAAXBgxoFRc/7M8Zm+a53DE/u4eYCbB+AAOAAOgAPgADgADoAD4AA4AA6AA+AAOAAOgAPgADgADrxKDpxp4I/mXqt5P5ODxj4S9lUm7CwpcA53ccEBcAAcAAfAAXAAHAAHwAFwABwAB8ABcAAcAAfAgdfBgVFz/szxW3AHjX009tHYBwfAAXAAHAAHwAFwABwAB8ABcAAcAAfAAXAAHAAHwAFw4FVy4EwDfzQXjf2DyfQHf/knm/zvFuBBx+u4a4c4I87gADgADoAD4AA4AA6AA+AAOAAOgAPgADgADoAD4MDL5MCoOX/m+C248qKe2Jemfvm8BXjQ8TKTGXFFXMEBcAAcAAfAAXAAHAAHwAFwABwAB8ABcAAcAAfAgdfBgTMN/NHcW3AHjf2DfxVwi6BAx+soGogz4gwOgAPgADgADoAD4AA4AA6AA+AAOAAOgAPgADgADjwuB0bN+TPHbxFTNPbR2MdfN4AD4AA4AA6AA+AAOAAOgAPgADgADoAD4AA4AA6AA+DAg3Hg8+2TH77cPv31vIH98+++2j764cD/vvt8ErNfbp9+/9X28de/nIz5bDusU+yb6GaZX2w/fzA85zgebaqfaeCP5h614ZLxr6qx//bHbbu/+zaQuRzv/33Y3q5I9+5DH75t24d3kUyHZX59t90rqcFOd367v9u+Wdkp52lu5te323ut9Me3c2yO6BTdj/G5A6tVfL6508DkvGkJR/rut/dfRx60MRWHld43O7jlZb7Z4a8fE/g1iVOxORtvfNnDDWdnyBvnO6dDxlvB2fG35o+x9bBMkf3Zxpgl+ld+vHm7uQoxrilVVsBCZIScZJ+Nj82exNY3OUZSaqzeancay0TvhDOBo+lYh1PwVcUinT8+7/NX/C2fGjs7bl8OD32jOHgZzscti9HYD6uLZdmYfbYta0bjB6MQ5rvzPMr6YXJ9sOaJrYRpwqEl1i5XtZ12ro6mjafY8KbmT5fh46BlqJg4Gypi4/w9yMtu32fbqK6uarWPBdlocsf7qvwb2EsylYy1js82GxPLF+3n+ruyN+HNer7On0GODPzeLTvNba3Xfjc5cHDubpsmPgVu6RxXcb6Grpcuw8Qyw/wR4vt0MX+7vU2uhy6y97FwNXrP1JMjey9bPy7CK+PmYx+j9XS9/hh/Va3SezUzRvxK12u9tp9Zl+Qa4KQMsfWJfH7z7u3+3kGzueSB4KDWaw01fZcxL5TPFQ+/X0q52bBjLPp+aY1Ruv/SWJ/cJy3XNGP7mRp4PR5YTMY1hXxze5zs2J6YXW3Mb7441pivTfJPfjPBr8icNNHHtu9r7Ofzz8xlX6i5//2vtl8Yjk38fMRxo+b8meM5rtf1/9U09qUo+I0CF9teJGjcrGjWjYRvGPTfcsF7QGZtQjTb6samyfS/33BTYFdzv22Suj1MrLrpbAUwNu48FvS7jb8uEa9G9h1YrWLuz0uTqMXHFBrZvK8Xay/X4ysNuhb30JxKMN/hb5CbzBnhTza6ZmgZ621fcsPrpN8WM8JnlnsG94LFesNxXGbFuNq7+Ubs0g+2SXPFx91iHfOOzpc6c3+/3af6M9zK2KzJOZBfsBzUsrJ/7BwUzk3khLjInMlnxbHjFHGzOE1k7dTv48Dc7nXRnz+mP6sD0aczOiQXTWw8Hymmih/+PP1W5xsPOg7eb5/r0ng2dkgMqj6/Ni2x9nZ6P0S++pxhmWKl5rKPg/gcqkGX8VLs6/yvcnxOelzqjbowr/k28MnXkTae9ZI9bW1f5/oynk6+55T9zTanfDokp/hyTVkqtlneTGwjbt6ARxZHFct0Lajrdouz8m/iS6bjNR17zFg+L5yvnHsHc+5qWF1N76SO+jr/UvOP/BzvLbKY2bXoSI2a4H0pvlfjwhE/Hm7spbWsxKTvOcZ5znsyt7+8FPsnPO84R8eYZTlgjj0ABy/lgbHrZvGp11ZqP0X4q99iF/Nv27awx2EZ19ljXik/qTH/BT2x//H3X22zJv4vvv7y2I2BacP/THN+z1wec+gvDORp/yfW8D/TwB/NFa4+5OcraOxzQd22+9InU4tTSc6s2GbHeiKnBb1sXlqRyeZnx7pMbrDZzY8uvPp7I8OOYi9F7r447i/sab7VSXYYP9wCnc25WXFXeE10rrHKYqGP5ZvDVO6behOHGrAOq2Cj1iG+2GNrbsm8/pnaZbhRF0W30KW6jM1s2zhvnL8LbpCdiQ19s3hB08H42TFpOSI3IJxefT77TraWxkiSN0s/0gsZG2evM4tFOfbhXTIvyO98JTktfwWPft7rLb+tbtaX+f1m2VAUffs+M1tTLhtO7pOd+Rma0cQdfwMjwXunfra93FxReRFiVey/UAetMXzzRm9ObfwYH31syddWw0Z/AZbbq3V0vCvXeKHtT4XtwDqTlx1rulKZlR8DrNrcGlOS7/JlqnMnF7we+5vxzOvqnlqdx6PpuJBz1u+FjhT7xZwpdmfm+ppwTVlKNvmscnvqj+wLRjml5C7ktLjuGse+59xinTbOD2XHy5L7oOvSrrg+FzyvnHsHc+5YrkwwvZreI3uviT3PmSPpejTzdY7ZPMZn5g5suhoXBvJvHNuLahlhoHsFszx/gBjcGKM5xziOh9fRMzw6M3eA3UU8GMjag9epMVRD3N4rYMK8k71PbOzXB9ncfv+UXRfjURvf1Hzvr+I58iQ7jZ0272f1Zk9zfjT/6NwyfvKqIfpLhqf7ap5Rc/7M8Vtw7sU39ntjI1lwQnHoRVs3HHsgEhkluUlOXfgOy5QnZ/XCuePCcKCn21oW31oM926uVuOWOkfF4JGPa7v1d1WYy0Kdx5xtTxdCwWsgs8dCOOIWp9pYZb07uKXsNbL9cWPPbBM2jss0b7y+8tvozDntbbabo4H/WpfgLcf8bznePnfIbGMFi+N5Y/0QOfpzEYPgR7fB8zLoork6zz3HZhjwub4JEjv98eLLTI72VX+vctqfkIptO2WRb20yffE5SjxVQ/x55lziT8Bc2y3fvf1Fka3TJF9k+RwI3CpyBWPRIbminPA3oppcP3eAY7FnsoH1HPK/fZ5mv7M5cizUSsEnxaPgcNSPJJ4ie4iVwruMJZuEj3JuYIfIrp/kZwuXlyF/sdcGmHVlXld9fMUu9dn8U8ecfTFeUa7x4f5ue19eRyi8W+lYxpNt25ebZWy0T/6aqKEotomvZEM7220XWXf21Yb6ZhjhQz5m8yuu7vwHkiexTuwVvfU1JCYHDJ4ylz/FAl+3LHYftvfl1YCTnC4+zbnFfkmORo5Uv4e4qvlitOwvdV78eGde70h+GSwFw6pP4qk+DTd36Gi8LTIE6zv9Mryoc6bDYyOxpBwR33UsRGd9FaNgbHTo8RIrkbVl8a01To05+opQg4vcxG/yLCbF1vu7u/YKwZYvjg+epx0ry+em28S+Kje57Obp9dXhKjfn0zVYMFX8a7Z6G4x+4UwDZpvnuo+LxbHjUfg9W0+qHGeL4YzjvtRJZal7RZy3Te9VpO7ovLPHuH70/G34OQ602Oq8b0Y5PGhut0Ny6a151amcH3Nhjov4NMDb2x/+mmmst9UTec1q45LYLLrVp9PXcGw5qDGqMdP1YTKf+OXO93jYeDIX+zHCPotT86mezDhpjnWZlu8FAz6nfZY8aKp1jhcODf2pmM7so3MaT8nnfmxU2ywe/vp/lkv+gaj+2/BUYjr0b66jYZv52LjUUS1NbfM64KHe2F9qWJg4C6djvI2fZILonuWg5Iz3uwiQczF+UjOmr54uvla8ybbUD9bb1ja152hYP+ix2tA379TvjX2y4de/2j4uT6+rpv3hp/WXT7+LHfk7++fv3q+N/e/LXxBMGvYKx3ITYiTz3A0K4efDfZ5p4I/m3oJrL76x30FMCg4VPlVQKhnHhaEX8C5XFqZa2C6QGRfDbHG05OVCHG03dklyDWyyY1c6azFOC6a1zcp9/HMGqwEWs5i3jYnxXS12g4XX4LBDb2oDzZNFcx+Wxt9mG9sr2wC78ZrJTfJGeNU+L+BG8Mvax3bO+c1+ikf8af06LnNPzOKYRXyCrw7vFqN6vIyvmxTyUTaIyYUicWZyXrhrcVF6zGbQc1o/0b6HB9qvyolmmzQ8S0xFTx0jIdT55TGRC3dlL8dfYU9ztM0jP9XGlmIjBihZsnHWNlW7+4VUkS++xA2p4YnkiudC1d83myyvx0vjrnSRPP9b+zvIHa+/ckoQqFlkLxDE9vbpbZQ1kHVazu7B+qAfwQfh3QwrGVM+K+9MbMtxtsNioXFM5jlbdnMyyeXeRLB2dC4IztZCy0ftZ/2e2tj9YptVY5/Gj3W0+JpxNnf249BxbzkQct/xo+pt42vcGCfBrvsXbuI4PCIfWEbHXWSKj86eJBcbRuWc8UdkHbBPcFa1NK0tLT91Hlg+pHsMmTfFtXJf2eBjTLL1a9wSu+16ZW1rcdihw8em/a5rgG4UsJ2C99oPjy3P140fVwdMfOs1gsbB8FNyWLgkv6nbWP/KqXJE1SfGVnzwuHUZeU6sfWb5yqa23mqdbFfDWnjTPn1e+N/eTrZLyyM7xG+Na42rHjuKU8dA9Gm/XOx8bNoaIHOsD8Y+wUjx1doU/WvnlzXI2x5lWVvYTr0WcEwlftYPtsMeE55H/PSeiudwHDyW3mb5LTbIHnCSS2FdrDoUxr7uNEzDXF97OW/s/AWuF3Gw+yt7is5b6w/b0sf732H+tEbbeA5jrLAMa2PYG61ldvwlvt2fYL/kjDRyNb5UR5y+gb+N52F+jDnngeRzxgGZIzzXHNfju18293bU/GAn62h+yPWG4NJqqtiW2K/jKHGTYwN9ktvEszrW5kOyttSamM3l2M85XcZovPR3zVGNheaUjGc7ZV/aY6HHel1Hzvmx1/xNDewfvtw++e7sK3XKjYD5a3vWdtfm/OIfz83l1JsC332+yQ2HUdO+zaebFdlT+e6mhub8E/k+as6fOd5weUAf0dhPCqkUkjQAYaGpRU0aTnQ+Fp2pTApwLfS1bkkR3WdDVozVsYFNLFvsL4qj3WUM2U522cUlte0ByXqRPh+vARaz+LD/FhszPiyiCnvBY49eb6ss1sItkTX79DLINhfbeqxvNhN7mw7mx2jsYW40e1QjqehKbIqbXGtnjIvbkF0g03BsEDMaM/Kj4VZtTWwwOmg8Yyw5X/xueNP8mnf6O81jf2VekRsx0/ldi0v78Pls5VlZcx4En4KtOnZS67T+ekwu6j2O5beRud8ek6tVLvtmOcjHtE3aZv7uZZnfxr44N+O4mZ/4TDbJZt1tsOWiScef4pDxlmyrgTcYJ7jT/BEOlU/NpuJnwht1fo21nd+4lPkh65HxgbGeY6XiMYpTxajlns8nOm/XgWJrj+F+TkoTU+sSfph12NkUOVrjkeBBOLr5PlaMtZWx0rGO5xEcIn9is0HFzuBtj7MvzCWDq+NniZc9b2uL5VHVYXIi46s9ZmRQDCSfVvbl2BHHVE6xr5n/5Vguo8zpXI1zZ+ds7ZW5Vk+00WJS9BtcfL0zOO3V4ZqHle+2Jio7d+jw2KY2azn6u2DsYtWxVbYo/w12ad2LWGo7u3zBTX06+3ietcPoJ7v4vMXRYa3sZ5lzG+OYLBcSu9/xX9+EnHX6KU7uGqb4FeYpPNLYDnOdMRk1oHQ8NMZtu2W+SD2o/pJNs7VlgdWSM1ls7LERfkN/lzZHvmQ6bAwsL/fUnY67m+v40cap+Mt6GDgic2XsLg7uzBmSuW0ffuS/Kuo5tp4/zXO3zrG/SYxVbVrlR44/yzR0bj8chwsvlT6dF4S5yTWV+xX/1F/NdYmP/EVFmeeOkQxjw4InK5ulxqs9V9Th1lpnE+9xHFZp/KI/jcfC0fpp8miBq4zlv5xxtcjJlRzpPI1xEnn8VL3l3J75aZyrHXTO/ZUNH/P4sV0zWdbO6McI22sdp2a4eho/kzseM3/Svr/TPmuia1/PN/ZbMz/5C4PMp+yp/bGf2tbH/X6mgT+am+Fz7WNo7LuNYAF4VhgoAFQ0ZSW7397Tol+Lo150VIGcygxFmBeeuCDKRinZrCpdgSQDm/JxkyIvG5L65+Zh/syGxzhX42Q2bQMsRvGh476x7mX4RTvz1c+pY4LeajOzy3Erk6uP1bnG34FttMAl3I8xXWyCRP8F3CDfzYbLF3HeIBh/RN/gc+3XAZmDmHmMhn5UTIYXRsoHsps2igVvnYOMP22qij0ar8y+EIckfpUncaPmN2Q8l+1P5Cj7PSb5xlXi6/XU42SX9r0c57FSbfufmw5kBJvycfkGT/srtsrNkm5Bi6fHf5BrhE3KhQWmQZ73xf/WOOab3mLLkK8NuxwHaRiaxrPIUxc5Hlv/m7midRzxYzB2iZWLp86j5ncf0/nM+vpFqOKB/kr+D2xL5SexDz6wPYTfrFaneSMXhPbmlb/oFT/DOuRtVjoujqeX2X573Co3BF/FLeHgeE3wsgqG+piTLTrok2tPioWJjZYnnLHHDEaH5lo5Eh8jr+Emuv1nwq06J/WNzo3nkA2+1lV5ZFeNT5QdfZn6cZEO4XldNwzWHZdm2w4dgrl8ah/lmOGU09l0qTj1YxGTIlPjor93fVy3c94/XOxMerQfo7Ul901ytk1Xf81AvrYTTi7h2k5ucb/S4+sxZNweINeJP2KT36tYe8RvE7M6P/hi5Ir8+lnza4bVmjNZbOyxKGMPr5yt8lNqtsu3qMNyP2Dm5ks+kBzR0fJsZi/7Kub1faTf353hoNfRtfk9E9lfThsfVvNn/hXu2XgyVvaYxX+dH/l+wcpsueevk6WuaRjUd84LZ4PBY+Rv0T+p98t6HO0XXnVflKHqq+Ryr+ec8/53kWOOOZtsHHrdKHNER7PJzW3HC+993Wj72hmuC863fBK7BngNdTvfZzmssLW5ILqdrGYb2xSw8ri38VXewBaDqZ9zxd/ylHtvwuevw9Gv4mHbelO/NdUzu4ZPx3c837y5YmOfbBDbJjcUyC716p4n/m594cOoOX/muMh+yM/X3dgfFMy0uGZJJMd0sTgsc7B4ZXJqIc2K2ZQk2j6xOf0c2KLGmsVKHZ/qf4xxI6wyXOti4HElX2UDoXzg43pF6t+LjLZpq4dJ7gG9BksVO6/XXBwc9HfeeNWLwJoTYu9hbgwwEXlhk69i0MdoW2Wj4zbnZt5+f3ZjlPlBx/zG3dmq7SrxK5symmftF1yJV23jy3505rlvbpzntnDUcCi7MKh+fHh3ALfil+JtjNVgo6hxFPz0kxr6fGarxlO+D+yYbaxlg9nzrcdDYlF86ucd9trmYof40mIiPJhjKjGK0oVXg/nCJcHAfxocxRb7qf3k+AnfOhZ8nGOZ2lhr5xrrA37M4pkb4S6eB7o8Ru13H8/x8P5r3Aa8brL02C635ccoLgOfp/NGnBvoiPHWtgqH+WJ6Hc8jOBQ9k/Hkew0s5U+Cm8E3k6WP8XdfDxuWktc+Vw1uWp7gZI8ZjA7NtXLELi3P1x1bw4s9Y4zGcR7PIRsGHNTy9He2O/qi/RDf2udFOiw380aUag7s0NHsqbwimz0fNGdNfJUuxcuOTcSk6NO46O/dlll8ZufGa3G3KbGZfJJXUwjHV5/eN/5N2dvw82NEphorNzGrDX1PPau9FkPGjWVeP9d7jnFlGjX487hQfNXNjRZ/8VvxpsdfcCqfEas1ZzLc7bEoI7dfbGI/5jHx+8Cow8fN6TyUr25uwbFyqMSp8cDlq/iT4Srzd3HwQM5Q7rFR9fVb3dZYzyX2iX+GKzae7Jc9ZvHncw0XI6vqTLGyMgU/9snmAh1rzWbxY/BJseaM4j34wF9tk/4u9rtjus5lmIj98rnHZi/T/y6yzDFnk42D4LHD3+oj5x4RqL02M5cp9V/jKo39EivWKdc8goH9tPHepVvlbcFBc4xwIXN67TBYSRzrZ35ugJXH3cny9cj6KXF4uM89T6nHMdI4H9wEkHfqt89Jg53wuHZjn/Favi+fmvlfbp/+pvw7AqrJ72P0hH6faeCP5t6Cc6+7sa83541Mtoj5IGTF0xaebH52TIrHoEC5hYAL0tGNdtWhimzzJzumLwi9/oqP9VV8eGKfdYOQb5CyWMRj5OfejfYAq4Y1YRd1yEZS7Fxza4Dz1F/ml+gQmzJdcs5+Jvwc+DvjRnpOy0n5mGEmGCR2uQvkfBGfyRTZ9TOxaelHiTX5ZTczFlOnp/Hjfntf/tG/dhGs7Lj/sH24V/lfdfi4Fj288ZINdo6TNH/sk0Q5NpwL99s9/fuN325rXwQDsSH6W2TqzR7JVHin/KTzInPkl9WVymkx6htL9knLzLDg8yE+FL+BzwsupHwSeeEz2pTN18f09xY3nXf6e9OncSh4Vr93t9ob/gAAIABJREFUXqAFzEnHDGt3EVTtyGwPspvNNu6+tjbf0zW/zlX8S8cb/nl9HafA69RGj3Gf73Na+5xhEurclHORQy2+te4sdSzjmfmW4SXHMpvkXP1UsUntaxhnsvSxymVfY9t832jS+qX2aHn1fMVcYqdjZpvNyVzDyRw78nln/kk8Mx7OsJudsz5IbKytcX701eCiMKd8IwwF44kOj4Pihqy9EgfOY2XnDh0999mG1GYtR38fNBY6NsoW5T+dF7+0P21MxFLb2eULburT2RcwSW1mfRmHtF773dmY+UG2qH1M80/sVTKM3Xx8uPbKvkcwJLmM9bE50ggTHip7gq3F5jyeGcYdq2qXvr4grESnYLH6VLZlWJu6osaKHy4WGc+nvNpjs7Mr02GPOTwNBwQPN0b8SWJhZdf5S7sVVkY/Hx/zic8vc4b0lxzw4/1v8bd/TuNh4l3nTGNceThZC/O6z3baGlv08XH9V8WEv+Z5i1X3qedFPaY4k/qrzqf2ufhGGSP+sP49NnuZ/nfxyRwzPJIa4/fEA1z93ITnTZ+pfw5jhZvJCzq+sybv1l19uSuvUdN1LfNxwcNiX/Ark8P+Gtwd34zf7lzg4QOcv+SJfX4/Pzfry/yn98S+49kEN/F/6sNk/i1ipHWMmvNnjmv5D/X9lTf2pQnWCywVhVBEFHHdQskX1bpwXSDTLUSyWWzFzOs8SnxV0DuRuDDqTYpd0Gqx1VgEOxUuR216qPE7sLJ+1gVY+enPd8wG/oaFNx/n5Qauedv34O3nZLj6+Nc5yw0oyco2QRdwg2zQmwe/mDMftU0BH+ebxzNe1B+XaWLtcSv6L/DDyHQ+9HMVD/ckF52v8Qp/Pqw42+VIg1ka51n8Kj8DD0abpVor9FNPQz+E+z6+YletlaRb182qo15kjGIbMDAXDdHX2SbPn2OdYtOAO+VJk9GF0MAnzWkTp8Yn0cnYebv6nCQ+NYbtIov4qeQt+Rrj5LFf5WG3j+2n+Y6b3ieLtXBD1QfvR+Wbl+N1998JVkVGiJHwtXwOYt58qVi133GOx07W8siByFWynfzu+xGpaW1+wMXb7H9r//i7t5F/K14vdbiLVmmqqQs4r2OMQ8dwyGF/kRzs0/ZkcXfHaL7iWrNfcPcY8u9eeyIPiJeqdpP/whPDOWcL8dod8/5Ve9t+sOZC57qP8YBbHkcvx+s146PPHONea2JuOr8EZ8HF669NA+1nqsOsQ6yj5Ueth/qGteXi2g+PK8+X9bRgXWXIOmDiq7nY42Kw8TiH+LJPep1hfgk/u9xmq5d5OnZyHdPjW3SRHYv4tVgEm6pfLU9c7AofaE710+Ea914WB4qTt61i22qLcLDtG7wNYqP4zb95vot7sdfbaDjN4xse+lzlaT8XeWnXI2+nw0qaqsJJiVXzM8pnTvU6OMZPsGC8O5ejTGuztzG/aWr1esyiDs5HaxPngZ8rHFZ5U3HvtXyBq49vwqeWg41b1jabM06fy5HMNzPfjW85SXGPWPkYm/xq+dY5UOSxDYIZy9T5IzG2x2ouBnzYX13LZE9D86f+CH+0fV6e/10xUHuRztdeL6yP5bjmjpcped7t8DL9bxsXma95EXVwrAT3bmusMdVHlevsDy2M/BcgC1xpvKqVQ91Us9jWUQ0Mumudy4+zrF736poyu64ysWFcZvZmsZAcnZ2TMQ/5GZ/GV3GuuM3GSGN8/iqfx3lif4qbvIv/+19tv3jD/wDwR8/gqf0zDfzR3ClOlQNnx7z6xn4BkItE/VOlthGqCecX9gJ8Xbx4hi7WPUmnMmm+K+BGprrIDvaJnfzZFtdMppBkeK4uLk2ks0kuYNr53NezJLzmfIt7M5y+NKwCptpvj4mWocf1WMeFV52TGNRPa18iz/BgjbeVp23tmxDC18jVF6ljWzkuesOjx8oGSnQ6WzPOORvMZo/wcdirjUf3wWLWNg/VDB1jtn8uk/BTGySeU/3MfCh2Tvzw9gg65VNvZoyeyg2ea/3jcRXrhgf7NJNHftH4UfzYR+EP48ZyI4bd55nO6NOCI+0iq6Lk4iC28dnCr+i3x9vaN/e92Bt1KI4n9o1jFDfv3rYhFyZ8spgO4uPmh/i58zHvfJwUBz0G1on+Z+SVw8Ve8rtxteM5xTrJq+BHssG3+HRdw4tPwkL5p+xmWYxxczP44bGKee3jbjkpNk646eIV5k/Oe93ND1d/zLj7u+39j3bP4WtcsGGVO8IDZUAmQ2Ou423sKzJ8HBwGndNZjiTH/Hy/75NGWbX/w+DJM3FPnr4UH8h+sdnsIRNbqi6Z23JIhG8ftvd39OdSab7FHBhzi3LQ1Vkz3+Pixs5yOMqOvhpcBvm81nG3vb9v4Nh1VbAuf/nW/ov5PtPhm19iM+WIyNS4iM76DzhGHOo6o+ZYfmfx9XXG+UBxyo6JgS6fF/ma2Rx56PLQ+W3GV+5bP8uetPolWJAMZbNqyGX7ao5b3Ws6DCRO/A84Sp3te5euxeE2zXXPYf7dZdl9tsVxnIcFK/ZFz/cxd2vLDCtax/z8hZ/1iXGpO7vxk9ilOp3NO2Jk9eaYCVaMu7vWaGv43rkcw7YezXBNOD7joMkBIYmsA3I93X4zR1lej5XPmf1rX5Fn+enXJX1e4u7Xen1TtPljYu5zQuWa+Kjz2NlUYGm6k31C8NfHx9gi++4Gtv03DyXP/JxEb+MD8cni6G2mmCmZ/nfLbxmT8EhuJojlHvcig/6XznX2FU5RrvXcmPHI5pziTeWm9cfHe6272+3qQfEpiSfbWnMg9XdV2zoHre39uHBfc69hTFgn9SOxJWKndTzs99LYnz7t/ijv2B/73G9EJDcbpNn/w1dznyQPHuFz1Jw/c9xybozdmXGvqLH/MACeAR9zERNwABwAB8ABcAAceL0c8BeO4ILnAl1MSpPgxAXO+KL3eWC+tD+5EPdYPsXf14rvU/QNNj2P3EKcEKeUA1RT+42HdMyJNQnynjrvXsj+rNz4cDfVbsW93uDe+578Ou67z82rb/fJ6U10fo3PQZ3lXf1Ob8dp3/v5Re/0JoSqGTJ+rPdxcuRMA380t2P5cD69qMb+LQCDjocjI7AFtuAAOAAOgAPgwGviwAu5cFQXKpfztz6Zppv41FixTzleKn/ZGL+KDw/H3aX9T76x/7DxvZQXmPdwnAW2wPa5c6DUXftEO2L63GO62/4nv6bu4SKvu+On9ffIwJjdnHni+8i9foya82eO79V9Zhwa+y+EgGdIgLko2OAAOAAOgAPgADhwew6oP+1+pCeqbu/zjGcKj/p3+qcvSOvNARKnbxo8s/3v82/sl7g/QHyfWRyfVr7NchHnECtwgGtWf80LOPE6OEHrbdk0POM9Q+Eq/iLudfD12nXpTAN/NPfaNmby0NjHhtj8qU9GEhxDUQQHwAFwABwAB8ABcAAcAAfAAXAAHAAHwAFwABwAB8CBl8iBUXP+zPFb4ITGPhr7aOyDA+AAOAAOgAPgADgADoAD4AA4AA6AA+AAOAAOgAPgADjwKjlwpoE/movGPpLpVSbTLYgPHbjDDA6AA+AAOAAOgAPgADgADoAD4AA4AA6AA+AAOAAOgAOj5vyZ47fgFZ7Yx80D3DwAB8ABcAAcAAfAAXAAHAAHwAFwABwAB8ABcAAcAAfAAXDgVXLgTAN/NBeNfSTTq0ymWxAfOnA3FhwAB8ABcAAcAAfAAXAAHAAHwAFwABwAB8ABcAAcAAdGzfkzx2/BKzyxj5sHuHkADoAD4AA4AA6AA+AAOAAOgAPgADgADoAD4AA4AA6AA+DAq+TAmQb+aC4a+weT6Q/+8k82+d8twIMO3NEDB8ABcAAcAAfAAXAAHAAHwAFwABwAB8ABcAAcAAfAAXDg+XJg1Jw/c/wWfHhRT+xLU7983gI86Hi+CYvYIXbgADgADoAD4AA4AA6AA+AAOAAOgAPgADgADoAD4AA4cKaBP5p7C16hsX/wrwJuERToQEEBB8ABcAAcAAfAAXAAHAAHwAFwABwAB8ABcAAcAAfAAXDg4Tkwas6fOX6LuKGxj8Y+/roBHAAHwAFwABwAB8ABcAAcAAfAAXAAHAAHwAFwABwABx6MA59vn/zw5fbpr+dN6p9/99X20Q8H/vfd55OY/XL79Puvto+//uVkzGfbYZ1i30Q3y/xi+/mD4TnH8WhT/UwDfzT3qA2XjH9Vjf23P27b/d23gczleP/vw/Z2Rbp3H/rwbds+vItk2i/z2+39vRGnftxv778W2W7cj2+DH54A1obMTifz/m77ZuX7czj/9d1mIE38stjEmH9zZySkvGl4kz4dK4lZ/FzpfbODW02vxGKHv2/cmCwPgtwqv9icjTe+JBgHec6GkDfOd06EGJsu1/G3Zk5mK83ZGydnx8rOcF7i8uazjXg0y9WKSZTxdqMqE+ayz8bHhmuGVY6RFBmrt+pMY5noVX72mETO8zmWbfV9thkOpbW02iQGGzxymWtbvI0zHWWswzDBx/tB5hpbvc7xb5I1mUucCjYoH2ju2uY3b9ScYnDQuZZh/Y78s+drEI2euY4VFiXWax0rPz/bZnU3x7vHz68VQtXymecpjzDnduXSHKvA02qI1rPGaqWj+92wN/Es53fg3fxVYwOnra49eb2HL3vk2DFso69ddoyy1awzB+c2XJS8g8fCmtPWhyzHL9cz9P+gvU9ajollhtXt4/t08fp2e/suXl9dZu9j4Wr1nqkns3UhrrUZt575sWXuZP4x/rR0hXXFjdd1ra51/mN3zc5q1kX2OxszuY957N3bdX8j2Md7AsbS7Q8c4KfwDnqfKJZ0fRj3utM6p7iq92PpHHf96SAuu0rVFzqO0Wo/6206UwO9rEt/21o68Z9wdrHJjt2aa7/54lhjvjbJP/nNJL5F5qSJPsZ6X2M/n39mLvtCzf3vf7X94tYxuEDfqDl/5niO6yTOF9j9ahr7ckHriyoXjF4IaNzsArMW3b6A2Y1gCdphmSFwdfFsG5v8t/dFEyb4UReWbndtiDRfvY7rEk3b9qDfl36u4+PjJ42KHG/Z6EwWmxpfLzfEaAe3AnY7/JWmVYt9MifIrTaP8sbbTr8bXxPueJ3022JG+DQ+JjJCnsTcG/nRm15WZxjv7aSYqDkHYsTxXjVTmD+BW0XP/f12v/XaRLYOcStjXSOR8BrIL+cGvpSNZONKw3wip40Zx0x4pOV6DsnNpz6mXuQpXlmeHYn/yLaVjprfipeRp+ewMRysMRle+Fd+bsqeMt/atMPmKqfzjnHov9frA/O78zPEs94Q0TKNr9KUb75Uu4fxzmK4wn4V38+2wDuKQc95i21mQzzmsQm55uvMMod2xLQ21Hv+eLtWWO3RoWRmXN3BK8uBa+Rwt8nWh37c6jx6/KCNhEHnzzndx2xl3uVrzsNgc8y+W2JxFV2PGMur2L+sK9eK36q2HNVzMOeu5uf19I7XDdYxXOOv5stRzK88/oLcGWO2tu3q9e0C+590ztJ63fdre22lmLQ92STP635gvP9Yx3CvTY867gIcL+fmBO8L68SZHHsM3Ak7dR1M9qvfzSbKV7p6DTevLIefCA+pMf8FPbH/8fdfbbMm/i++/vLYjYFpw/9Mc37PXB5z6C8M5Gn/J9bwP9PAH81tfL0wf/fMfwWN/bqJ2u5Ln8w+QZdeCM83dmmBLoW+NSey+dmxcXEJhYsKlluQjU4vK9dnbU/GvICNTLpoGb8Svw0P8oU0ldsaaqWpurqQX+mtjbS2gaoxncbZN/TqHOMv++MvIiwXPH/Kb7a3PB2Q543zN+OoKlzZwlps0E2/tU3OTuOnO6d0l0LI8VvHKYuztkt/bwU2xKhiXrHz2Ld51cZM5v/P3rvjWnIcW8PjkCVAgHAhEMQ1ZdOWJ0c2bVoaBiHN4IJDaIIjoPFZfdzfbw7iTGD/yIiMiBWPzKr9OI/uEwSkqsrKjMeKFZFZuetUj7YvvxacGbrcosb4SnK0Dgkedj/qHddeN+t7HgF3OoasvZxKtrYRPvzDgy36C9+iPcnXYccYJ9yrZajewIGy/UhHyTHG4siXUt/WJvaN4I91gMbNGHBCur+ucnE8YXPFFc/9Alsnt7jv6qjEqvqRSLhZyHA6Ij9lHB4LGYjxUXy1Nvi/VkM8PS6oe3FOPqDfHLdYB1DHIVcCLtw/8LDsgzYeYFWODzoU2yGL5wb065hXaM84P7BJ9cVx9fVVmJ6WfaWNJY61vYdxP23j5FgRE9HxMti8tF9vLP9NYvnGPp/mHNrJ/MP1nPDutuOVOXeTzWi/nD9O73beKOclseEbOd6QO/fUqHvGlhy9wf5SzsO4eScvbuLcyAdZbw/9+zx/eAzeC3Zox9U47jHbc+aesTVftnUJ/XwP55SDuJYePuUaTT6NF9vKZ1cZgzyusdnH4lFj5sY3bb7bp3iueZOd+m4373e2ntmcX42/duzov/nUEP0lw/v9NM9qc/6e9tfg2De/sU8JT5skRYFcTNxjcqoXqIWMUfxIztx4v1pmSKCykIU+Q+fVk0vcJMnFkf14L8Wv8PnWiQZjgucgbx1ztqOcDCUGC5kugRd9TO8JboG9TnZsd7qKOMf+xfU2b4r+iTuCTdV3tvlF4MJ/HB9lxmvsi+fSz+FS86uKs9m5sJHkwg9vQ9/cYLextT6Ko9inNtti2vjB45M8GjtzFs9V1sJmus/3bGNOuBLbh+6dnI1virnI3vQNG/tVLMQO3lSfMp/8p7dsw93s9n/OarE61JFiw/a7uKiPO9/YVrPDbOBcNnxTjGcspd3bPGOlgp8vn/+/+ONPtNl0retIES/0E8+VazzH6Ny56GM6D3QoH5785+rwR48DHR4riQ/7Lzyp+gjWw1a5/xk/2Zd+QPOyLadGe+EnYCZ4kE6N4ziBufgMDxd9RH6q0dGGxfhhl8aUxhh/ECfJTd9XcFkdK2y4zaCIubK+z/Zs+DLsJ86YdB8ri5f0eH56os+iCV+8z+yXa3Oc9P5JPzqaAvcjXbTvC9U34EKM27gesTuYc0S38iHJWeNKY4gfYrTnRJkjlKdepmC4tOFaHZiHgvsTfiqzwG2jI9l1KNPHV3D45D7lGPgb+FfF1/ED60CK2cyr4FPk9E4e2fyH5Yzmb7AzyjSswhwkMYnjB3Wwds81BTAKPjHhcZUa6moiYHG7D56f+1wPfh7ERbhQfd6U7oWXJ3YxktpaYwU1SDt43le579ooVl8un4W3EsM5d6nYYLP8JZrcV+6M2JBMsEOuf63WaxtsA7edDuCA80faDzno4+9eaBF75XO4Kivks+hSnwUNz3eOL+Ah/Fes5bnexmdf1/ZW/mtbwNDqcMTd+5Y5zP2zXYODU9Y2x718y2vxOd7f2RdrxLDBty3rQsDD16W5VyImxTynsWanYFTX/IN4rXQopxZ4R/vjX2vH+xATsVfqEl0PO6CP1fa4bxSxGQON08o3tT/XAc4DddyNFw4pvwLWaJedD4ynDZv+zIXjT1ib3Dm3oi93nc8NffdNfdvYJ73//Mflz+Ptddi0v/pt/cO338WO+pv9+2/vz43938ZfEGw27AGn8SPESuZ9P1A8Oj5Z3j0b+KuxL8cvs/+b39g3EIsCuSgCZXGaRC3vkZx9YSnHAfnFTuqHE33RRyYvLX5lHwsyy+YJBsdEXfFabPrajzxxzYn4hpjLZOMnPlhAxAVgFY8TekuOILcquUWb81dt8wsM5ME+vkXeJJ1z8bVYGJTyk1/ePp72bfFUydAFCawRsl9Xxmku3nXhG66vjVHZP+KnMZo5O7CZNYB81HqQY+FzNt8X7mZc5CHCFmVSV8j34PdWTvRHr9EeiIPeP6hRZc6wHPZHOAM8CbzK+M8xwtUjHTE2ZHvgO8kAEo5TkU/9g07ZsNa42ubxWGxnmyVW7KfnBGPoxhzazPZ8+XX6IaY7m6cdYKPjWolbsP0QlwMdgoX7NBTbrnw+0lHaGWRErodrqTOqs3yAhdyVhwzhucZj8mDibfJ8/LnWzdgI/ioDc8bzUOyUcI4j6oibMNQPY35Cx7AN+ed4pw/Ve175Wi5cFL94LNpd6cD8Ql7S+SFfsOZ5DKXOmXzzReYEb89R/nn/Du2bGJr/whm0WbCqj5V9A/NVO8dj6gE+UP/JP+YW2DBzROwU7sm1/ThhtZn72LXnweQV5s5CR4qN2Dz74+Zc1HnkR7RJ/ZA8FP7rBqePb8Ih1QrurzjpxqlgO/mW9Mn9IuazBgo/ZR5nHcfyxGYbL/MN6ox5Eu3g+9GvLNPevox8JDvUb8Q1czPG6TYfok/zGuoH2ojnQ7+3N+Kxux85EO3I+O91z/GKXc6lOH7Y79okdySXTqxbGHPM5+AXyQQOiY5kp8lwNgnGm5qAPIhjJQ/WHGTcjLMVJtP+aTv2Rd10TnkI/qbc93GK+MVrsd905jwgnyee2f/gT1oLhXgp3hKPjI/Mj2YT8D75f71878PC30Xt5XjwGIk5Y2o1x+KEbWjnjBHmQfQr4Cg6DJMoI+I476c8QO4IrnFs3igfPrENyFWUVWAydbtxsl4NR4wJ9Qe7hQ/yvMprTNTt6+Dh+KBb+xPmsrL18jnuE68Qm9P3gl437gH3aAP79x8vf/nl3k/qjB8C9p/tObZ9bs4f/OO5tZz5o8AvP1zkB4fVpr2Opx8rqrfyw48aD8BZdT5I1mpz/p72R9tYyeuNfZ0kpJCGyTASZBYYmTi0sMniY1FYsDhWgeA2X4BzvzkhUH2Tydfszv3lXp5IpC/ZJfUSJ7Po99d6HeN1Q3wYI4+3i2dcwFZYndEbbZWFoXCrkhvbogxZTCPPzyxSVW6xsNB7M1eIP5vJFvrrg/IYg3wrbOJFh8ddeDuOOS64QGPuXx2nYatiNowMfkV8D2Lk9CMO7pwxlpoy/NZFItkybcBzGp/rRcYMa4YkuhyDb7oxx9h5WXseYFzknMbrIjDbKv34OO3U/sMGHoM8YZtkw7KWeYS5v3+ko7BrckDsYpsQyzlG+E391zxmvtl4b5/hgPzQhfTkkR9zZPP02XE74zDiQnKFLuLP0LnwCe04xAVtr3SIftQbdB/ryH55DjHXdzlP/R0vpUZYzITL6L+0mWzgQFHvtP/Exes9iqnECnSETeJjrI517Ll6nlfmK48RbkvOa/2bWGj/Be/kPuEfYoUxGedJNtbVSv6MldiI8pxe4SnKCzX1yD4f88lNsilzTXTHY2Xf6LNqp/GV34o98yLihrYyt5B7xZiH6wh5GOLEuKAdeD6xlU2RwBnF1MVSxqAcz9+Mw9HGhtTSGd9DfWKDHbdxPSGvsnnIjPGOua8YEU8QE7PN90GsuL/Mob7fGC99+bjux7pu8qHiY+CQYXtkb/aZbZKJzR8dtqQTc4dlndZ9IsYmy+x0bcFvikeFT6gJUhM1fjgm2lXpCH2cTXNt7bDa5Ksfa36qbWS78Grc5/MoX/uLbfMvDJb9JiZDf+ojMsJb/1/+4L8qMvyYX3Y97Uc88VzjYH5W/ru2OH5cp7qHeYxYiZ6ZB57O8yrMUSflJ8zEt2jvIn4eM2/zqi4s6wnFa5eLUq+tT6WD2hRbxDTMWeLrguuyv7TESMYjzwi3EAvpB/nDf2Gw7id54DgEcuT+1telX8InPz+KTDkytn6vgNsWdpecmboQo8IP0fmSR9oMh7fxK13rPvs37e2b9tUmuuH93Xf3b+zrZn7xFwaVT9Vb+2s/0da3Pb9nA381tsLn0W29sY8bnjPZjwqZf/Pt+fKZJv5ZaBaF5VDm0L0YWwb9oHjbGJmIbSLie3lRsy2Yb1QIzY8bEpwwCoutBcar+FC72wAr4nRmwjird9rMK6XAraMYVP4ubONYR05UGIdFycoG0oNvQVSyfBthq4sff2/F0SM+OL8i5gssUKYbT75ynriF4BUxWvEKdY5z0ksbQwNvXLQw/rR4HXoRr+jfsDfFoYjftN8viAf+flEsi0r2vZCz4oLagX5E2Rhvlo1vWho+E395dHj6RJ9l4YXuuIc6WCZhiTgJvvgwIptwGONSx5Ap9s0Of3zab5INmYQx21bZY/5lXCNn4nUlL/bZ27yIBdgsXMAHCtIreFfcO9o8DLgc6pjy0AbC7SiPnR/Gawn/s+PQzD23Dpicmxwhvx1fTKbPoQWuC3sZz1CDyXaxlF65h8+0XM/DUgdxnnMFecqc3Ok44urC/xSPqRtyD3FkmwUDjw/dC7ltuVRvXltuBN9EBR13uer9Mnnmh2tz8b5urJMjcXLyTCf6jeeljIPc3OPqfVBdZBfHJ4/PXNmvb2/RMbCAcQucDA/oK9iOI/ihvsn9xb2VzIyD37iwcRBHtHtRV0luqkFDRoGz2D6OJ+Rlm4/zJOG0tCPL0lx3tS7O4xwrSdE0B6CPMr+7upD1iix5WSP7HfgUc2ZrL8Rz2pblT59iHJ1cs5LOpK/rE7Cie75OjvggZyreuTbk4NJ+9NHHx1s9bYky4/XQE9qcTZjbGG8ak/31Y9HWzAXhIGGkxgeZpEdvXmRM5v7QlXXYSB8v1SmxJd+O8cx8Qh+P5r5cC9QOM1TPbH0dn+nYT5ePk5sRn2P5svYStR7/lb8jzmv7GEexJcso7EduuTwTu+ZR4hXyLevwNV+4oZiF8cInkiM61KadvZEzwrPAxSCT9KhrHnOxBY9lXkWcoPY6PEJ+q9zNeO0jNQxk873pX/CL7i2w5XGeG6jntc7lLXfbhK8/h4Of4mHbbFNfN9WVI1AHlm/HQ59HbuyTDWLb5gcFsgs+3fPOv60vfFhtzt/TLrJf8vixN/YXRccmDkyGzTkWkztklgW0Sl5q2xV8sVUKfC7erviqjjMyRfY7P86JQydT8fGK+FA8ZCNLxstiXydGfzL0+YlzLkKu0OsSHrjF9pg+WbxQ/yv9XT3wOd2necZcuI6/eVF/j24du8HLkJOFYeTwYuIHmaoH+LBAWSFDAAAgAElEQVTD8jQmQ8dYwBBPfL6KDOKVLmYkt9ErOA/9Yh4IRx2Hqgcpsmcs7q+rDSIfLLJTtW3gL354n0ucCXOM0TiXxazFknTPxaDljMkXPM/pMLnW/wQWkO9oj8mYcie+Bg6eDZvZX2y1c/P92Ce0GTEE/w5tBhnQF30adkSu4X18kK9xAR23buwvbDM70H88Bywg58lOx9nRrxgHY0zXps5Bf9JBgbWY1viAjcvNNOgDOpxNUr8OsYJ4UF9jnz8zrvqasvE/5TPYDfdYD+fvESZVHlgbx2zHz1q+j7XJM3tdm8P0urFOThEj4wmjUvlSypB1S+Ix+1D7Lf55H5RHwK08HngjfkB/lSH3qnwa92BM1jHsA9sc7mI7bnhBX9XrdSS7SKbNHXLfMPYyKxuxzcaZfVgT0V/RNY7lOPKhwPmEbygP7WOd7FPFLbTJn0c7WAaxVDnnsbLxPHYyen5nf44fY4kDVhdtnGF4iw95TODTEvfKXrNF7CvlSw1VTGRzM3NM5PhjoRtyBPtijPFc+ri2IndK+4Vb049U6+X+OEaZ8bro42zC3Ea5J/xlH6/hIPSVH/mnjyMPCAtpR1v0nMefyRnycZAdNyxP4LmNx4KrDs+AG91DG9QX4TL75GMc85z7Mj7+R4Bj+aJnHDP+tb+ov7LPt2UZOB71ox8HuRhwzDpu29h3sdJYFPZOrjCF/nshrle5NWSQrVxZ5eU0jtWopyxb2qUuxCPaxWNJs/57KMl/sIXupVp3MF59jzhavNAmZ2+Ijbu3qiegz/c3fY9qP/OWeu4jG+eLHwHkm/p63Gywk68PfGMfsDv8Xj5t5v94+eu/x78jAJv8IONROD9Kzj0b+Kuxj7JtJ+djb+yXie4nhgheKmJpQq3GV22xaBQFXAhfFqtNfxo3i/Zi4q78kE22M4uTiMu7up6TmV+QCN5VLHIbTRzbhZzIKxawEjd3zDpkMSN2VjFZTmAoe+sv80B0SJwqXXLPHwuewcSNfXe2lvdQTsnxCjPBvbBr+Qv/HIP6ED89X+gD2yrcSt+mzN09xI658Hz5PP7hP1gIUZ+h//nL5cszLJzJF7hWH+RBUR6Ea5wk1/1b8rX/5MPl+fL8fLBpCzZ43wb+lWy2zT3goIwqXhCLWiZugmx0Csa36AhjyhijnXiO/i3OS3nQ95iDhd+FzanOg52VDuEMjyt0hBiXflylA2MpeS8PK/zwdaQjbS4MHMGGFYewT4lFwHPwvexHcWOer2twnaPkm87fBd7OhloG2nSIVYgf5bDTATGYfIwyx/WOV+fqQtQDvrvYxX41X8zGWW8k9yGn1K5KPmFgtdbkif4g12EGtqe1Io9HeRgvb5PUc9G5PqI8lbHQrfcrvxWfY25lu4sxj9AR12SIdYgT+4Z24Lnhl223e2X9cD+o+fhWsrANzz32M77ozwH+Mn4Vb7p/Ql62iXFK6xC1B/DRtoBtFesyPigLZSCu0x6thTiGz2/y4YSNW2wdD87YBLbCd/zP/HAhsbYjYHUixtmPianUwkpGhY/Gm+OTar3eL56LKh2hzdsJPoLcHGvG1Y+N8/yMD+mzWm54SvyAd842bl/nRMAT7HU6CNOhP+IXr8UeOG7jUc19waYwnnCM9dTZDVhoex0TWRvi88SxfPBN5YPOYC/jCPeX6xWLb8WVxBPVLZw5mGuDXZUO3xYwc7wSDEIftSm3e9lzPNm0sRtsduOp3fByXJ02GF7ZltGf7rvaLP2eLuODU7bulfb5YwTKd+MFE6kh8YeWWg7ZDn4mX0rcQZdi/nJtt7yxz9/n5836Mf79vbF/Hi/xf+vDK8QhcWOhc7U5f0/7Wd339PvgG/uyCWaFIxepQNq4MCgKKhVOmDAPZRKpcMIKOucEhouKqCOS4Fgn68OFGcvcTA4L8kfdb3od41PYHLGLWMX7h/6cnDCi3KiXHyJhIiy4lWw54S9uUtH4OQZjn+QqbtUkym1uQ/bIVroPvsmb2vJgMTmONiV81CbOj4hnwi/0rx/Sfa4lmTH3It4HfpMP6qPX5TGfmLqF0Ow/dcqfkI9xZOd2MSQbbFX8vFzDfFWDuN29IRKxPbzOso/iqw8Lil+sWWKX1W//kBz7z0XocERlTtz1ejFGsY79q4eBKCNeyxiwG/A74kwV+zjGY1vYTJzCWs82Gi7ZZs4NGxNzxesUH62/bKJHvtm1zMc2hmS6nAh2pfwL90/UmeiH2ClY8H3Jp5E7BZ7ygKM8CrlOdkK8XQ3O8kQn1liP72pM1qEPVodYxYe0rMPXrGIz4ZBXAZf0cB7jJzwSv/b3CaMQA9dGGOA8JJwT+dHneQ0c5NgYR7nmQE1xGLC9EgNny8x53xb942us/TEG8drLM7xX7Tw+6vW4J58df6v5iHHD3E7rEKh5w4ZTOna1e9q021w60hGxlDUF5iHLEL74+NI9nSsYe98WcY7xnXwDGcnmgJuf81inxfpYnrdv8uUwT4xXgpnpFO5Ajsg6SvNo2oW5uskbiYPjE+Bwmw/RhnmtNmJ9i31l0wl99JiUNpHNU5bGOF4POciTI915fORMvN7XLPEDbZhtMI8lmTIHil8ungu8Qh/HoRM1Qbg3jnFszgvJNan/e//S80KRE6hfMJVaP+4xRr5WKIdJnvHnEE/HiRPxmPbKOib5IzmZclDwYUzVXuCub5u2zPpr9ybeS/kH+Bf2UYx1byXznu+b/YSp8FHqRcDdcyfL9LkotU1iWs19sY1lGi5ZRxV75lYcGzkleQVvwW/9i7bNvFFMJfftaHk17YZ4st3hr08GzsI9J/eK8RKrIq/XWIlei03Oz8U90OfGPLg9v41vOIveXR/ZGN9/yudt3tgX+8ujfIv/t39c/vYd/wPAf/oK3tq/ZwN/NbbE58E8+/Ab+wNkmQxGacSHAgpAWHhQmxYtKKYhMFuZND4UmEqPk2mLktJOlDknWO4X/t9Ncgcynf5cgF6DoNfq8Lh733HB5fthLCImKAP7AR6HsbO+a72zzwluISZeHtpqi5vMWdykMttQrp3nhQXfm5O0qrQFqukLeDnfYCNEeRawd1ytJ21dWEw7MMbmw/SxiBPhBwuVMSbKtAXZ9TGq5Ce7pv+sN2BG9ybWigfjlOxSHGdNo/6r+LEvwh/GjeWWGM7Y7XSu/OL2IPvGGuX1T5lPT5fnFQ+jnj8+hYetgQPLERFex7gfuB74Qv4FbmcZXkeaZ2LsKh3IE+UCxNGNOWFzgY2P4bHNwh/GruDunbhw/jzRv6uwjM+VOnJs9jlPefn8dPn8h1hQ1a59nh1zJGA94kt+YV09jmmsXSmXD7E61oEcKevbIa+YsyyH/XZ2xvHpc1sBK3h4rOxJbQGDnIseg+en+OZZWDPGf3OD7Je4ef+SLbL+xNwN/n+h+ibyELv6vNIxsF61WzzXuFKfgBvmkeTIf7SOFflA461GlPac0LHMQ8F9/NWb/mf61M+NjrT5dSjTxzfjkDdSZJNaTKziS9hIh8h/sUn+Qc6BefBJN/NmPHbyKpurePs8WcV3GM2Y51o080q5HvmGa1aP67BH5FGtCBjc5sPIn32ue47u7M35tbQJ46VYeDsGiphfcY1CKP/q838X44Gfu7+tWSg3+uzzSWJiVH2yfxMmxCjl1sAh9PF4TzsCtz0uZms1Ntonn5TU/CD9av1AXT8xEm0zDGcfssvjkfJQ56YZ32rdpn2M42pR6J954PVvYwxcNwxjfDEHZ11xNrAfNt7wN3xQxoH8Hf5Uu2JeeH8jHvKXELKeWOZg4JTyodQZcjHEvdLh22rMXKyQd2SD4Hp2LOMscYm8Tz9Mu5jOGM22mEf+OsRzjCE8IG/I/tlP65v4czT+rL8iLxxDbAYn5X/eD2uX+z5m435hS6hXMva1jmNjf/u2+5t8Yz9jKXjYDxHFjw2y2f/7T3ufIIYi97WOq835e9pfw/YPtLG/Jt9rAN06Gv/mQHOgOdAcaA40B5oDwgF+0JMH8cZFcIEjPUzGDQ24f/LB5+jB9r1jnx+8AwZv/NB9M34Piu/N+k/yp+UHvjVuumnW3PhWuTHm57hp+6362n5Vefy1rxvYp7flsW1wn/1O/uz3yw+uxp6TY5vo/BmfK3WOb/UHvcaLc9/nF73bHyFg/pT+a71vk5v3bOCvxhqWL+fTN7Wx/xqAtY6XI2Nj29g2B5oDzYHmQHPgo3CgN/aR6/ymHW7i81tj/o3C27jxtT+gfwsb+y8ZX+RRn9+WI41b49Yc8BygmpXevPZ9GrNvFY/irXXYkP1a4t4c/lb5+bJ+rTbn72l/jZzpjf2vsEi9BjFax8sWjMa38W0ONAeaA82Bj80B3tinTw+4Pw//uLygDXj9FkP12acrsaE3wqfAr3iD5lvY2B+5/vD49jOMe6vxY9fTK2tDc6e5c8gB3tztv6r7YLmlnyvCFw2+Qgz6L+K6xh3WuJrX92zgr8a+xvqkN/ZvDPhrBKd11MnWuDQuzYHmQHOgOdAcaA40B5oDzYHmQHOgOdAcaA40B5oDzYHmwCM4sNqcv6f9EXYdyeiN/d7Y71/zmgPNgeZAc6A50BxoDjQHmgPNgeZAc6A50BxoDjQHmgPNgebAh+TAPRv4q7FHm/KPuN8b+52wHzJhH5E8LaN/FW4ONAeaA82B5kBzoDnQHGgONAeaA82B5kBzoDnQHGgOfN0cWG3O39P+Gpzojf3e2O+N/eZAc6A50BxoDjQHmgPNgeZAc6A50BxoDjQHmgPNgeZAc6A58CE5cM8G/mpsb+x3Mn3IZHoN4reOr/uX1I5fx6850BxoDjQHmgPNgeZAc6A50BxoDjQHmgPNgeZAc+ARHFhtzt/T/gi7jmT0G/v940H/eNAcaA40B5oDzYHmQHOgOdAcaA40B5oDzYHmQHOgOdAcaA40Bz4kB+7ZwF+NPdqUf8T9b2pj/3//3/9d5H+PAKdl9K9+zYHmQHOgOdAcaA40B5oDzYHmQHOgOdAcaA40B5oDzYHmQHPg2+XAanP+nvbX4Etv7PcvcR/yl7jXSK7W8e0W/I5tx7Y50BxoDjQHmgPNgeZAc6A50BxoDjQHmgPNgebAt8GBezbwV2Nfgxu9sd8b+72x3xxoDjQHmgPNgeZAc6A50BxoDjQHmgPNgeZAc6A50BxoDjQHPiQHVpvz97T3xv6VySSf4RnH1wCvdXwbv8p1HDuOzYHmQHOgOdAcaA40B5oDzYHmQHOgOdAcaA40B749Dnz643K5/PGp3Cekexf578vl05X7kNfx5YfLX37/8fLXf+4x/p9ffrr86fcr/vfLD6VvbNvfL3/97afLn3/++6bP95erdYp9G90s81+X/3lRTPdYXhOfezbwV2Ov0X9r3w/1xv5I2Oen/yYyX53IPz9dniXvL4XMcJ+7Pl8+/3yGcJ8uXy5V3/9ePnull/+skoP0X1eQamyGLfhfIfNX7FHZfcbnB/eJ+D8/JayOYv6fJwS7iDFiT/rO+X6k9zuH5+Xy5dcT2Jzw97vQp8qDVRGpufH9xflSYJzkBRuSb8F3Zl7BOcU+5MSk6tK3k3Hysd/Hlfom30/kjfgwMUlYfDdlpMUH++x8VFwrrGqMJKu93qkz+TM4WOgVH6pjGcupNflkHCdOLe6veJh4BvZYLPdxrGTsbKn6S9tRXphNA4/KrsCfAo8jHXa/4oThLTbjcYx1/Jpc9FzZyRj2V37xmCx/J8vumU/Mo0N7Ur6HXKh4rrnEOhAHH7fJ5XmwfiF2l+vxx1jEc8Kg4EPsh9e5Rp2wMeRvxDpiYf5bvNAGi92aF9h/d34LBjt5fI8xiX4uxzluXTkW6tNS/kEfwh95gLzF9gM5t+r/psa5WFb8ff34vl98/3v59Gt+hrrN3rfC1eu9p57EOuhmhY+Qh4e5s84nwuoII6xrDly7OF2zq1p4k/2VT++o7ddPN2xG8tqIsQzrJIOazu7Cu4rBe2yj9c+Vazfg6tF6KD7nB4gXzwXnOZbXfPux99TA22p/tsfX0s06kXAOsanalryS+l/z/EX4/e9/XbcxPzfJ//LvjJPiPWRuNtG1X8Lh3MZ+Pf6esewLbe7/9o/L35JdG1/fqO9qc/6e9hrXx/r+YTb25cEyFlwuJlYkqF/1wK/E4qKgcmYxd8XglkmB5LPsarPH2zULUrUo0snFfDoiUo1N8PO77y8RK56coADf7PcDSV3Ew2OX/Ti6/93c2NKYKxeG3TI5AA7uvvkW8Yt6ZbI3LskEZDJSLE/4m+QWY5Lc6UPNjbmpD3lC/So+ChZRJ117zAgfkLmyydpP4CP6T8aJYwR2FXaq/unTxdl8Im/UJuNP4tbIpefny3PcGCzsYdxG37ghu5E/bKB8xR+P2PaxyDQOCveY58lO54v0XRxJH2BbjF3xaMVDjUUhS/I2+7KwD2VMbFZvdaz0kp3Ah+jPIb8mpwznzKcjHfwj3h7nrf2JR9fkmXCo1n9bHHO9kR8qt7F1uTLrNMQm15uA9YzFTgfHU+baML6aM5FjN5xHPq3iiO3ezxM2Rr9D3nqfRy5lmah/nN9id5Qh14+UJTLFh12sre/3l3tyzMm5gQOMf/3G2ctgc6Je3uDHvTg8bLyrE9+4r3fF6QFrAKef68bpnHNj74nT4/T62oo2sY5r1w8P4/TDsEKfivMbcmeNWSE/+PHw+naD/e86RjRXy3rkGE/xhWKiz2+bPJ/r4tfP2fO+iE93HW/A8XZubvAO/D/r0z05dlbHI/sRdvCsS/bDteqaa9NLcc9zeMOXEVt4DlDZc4/g1bhNG/P/ojf2//zbT5fdJv7ffv7xuh8Gthv+92zOnxnLfa76CwN52/+dbfjfs4G/Gmt823D0xrwX2R9gY38usC7PY5/sxJuIB4u+ouDHIhqvBeztcU6YvJkXNkWqxUfRxsVw7AeOLb4zk/sGm8LP+PA7irFtQA2S8gT1aoWxIH+JvcOqii+21ZNsKVc2bmgDNsQs2YY6JKF9W7kwWE5CLKO0y/nL/sQHjFKXs5ltGz8y1XkT/CWda86RnbpwZNsjf45tEtzm0fkZ7jlf5o85h3HaxD7YLlynXMNFwom8iXWg8nu0ffnV84PGJflmM8lBWwgDux/1jmuvm/XV9WMvp5Lt26bs4i+msJ+3Z8R0x8N9zG/ffBs6mfcxb9DWfM7j3F9mubyoMcTcqGLoc/xIh/xgs87FbPcRzhyDw7pO3By/CowfmUJ9uCeOc2zUn7kS+ID1Ac+1NnA8RK7HmWVVbYofyYQfwVJuGq6iQ8eqDcHmg/ZDn4vxzocTNlY6rG3D4VR7zDcbb223YvFIWWbDSY4LviWf7vfN7KlkMfYyJ1e16WWwqWz5htreJJZfI3517u85u/PzypyT3Lv7+Di9rrZGu8pau8PjK7x3Q+7cU6PuGVvy9Ab7Szkx9m91fRPnRj7gem2f5w+PwVthtdN7NY57zPacuWdsXTO2dWnn91vcoxyEdTTZkGs0+USPF6v9rcjjChvGul6P7+5Vsm5tmxvftPlun+K55k126rvdvN/ZdmZzfjX+2rGj/+ZTQ/SXDO/30zyrzfl72ve1YIX7de3f/MY+FQPalCuK52JSHxOX37AGUIuCH4vo9RMfFJTKpkKnbCxagYKiVvYHH2bx3mJTFvhcbD1JC4xLOdkWL+fB9xFTPAfbtjHXDfzwSR/BeSHT+bToY3oX2NG4KzfpnK6jmNVYX80Np/Pc5qLPk4X/ECN+wxywEPyxT3Uu/aKNqe8CqzE+bFqJ7TH3XcxV/kKu3Bf75Jo2MnmhbfzgOIle1UNj56Icz1XWDle+ZxtEYmdsH7p3cmoOqY3yA0LAcNwnf+TvUJ+fLp/Dtw+PeThtFRnygEJYaCN8T5F9tDvAJ8LM/ExYR3tJCD4QFTg4zgm+od+wlbAx3Yjd4TnoILzMOZ3HHM6F3Xucp91P/hN0NvcYP6gN7BHb9/IZD2/jAa4SC/zBjfSa81/IXsyNGGvmn8z1Vbz5x6E8TvLBcifEVPOviHmwM8tYc5RtfPKf5UMMZK5SGL5cPo/PyhW5J7GRH884ngsOKkdrPym+Gx0Z27WPbNf6/hkMND6Ag/9Wqpf//PREnx0UTmd7w4+gjuMsK44lGaI/YhM44Liq3AlYQwwq+wZuq/YYazErvQAS6qbkxhgvMaYaLQKIex5LwcF0Fn7I+PDXQaUOh93EeluLZP1hStCPZJfE8mn1WUkfX7Hxk/tcY6gRJ+Lr+CHz1ir2oz3EJtaNnTyy+Q+rG4pHsDPKNKzCPCsxieMH5K4ehXHOT4+r1KHqL5bJDtI169nQs7LB6R/c8/w8ynXCyqijc6hhYXwWLlSfRWU5gRchhhoHivsOK9a5i3GV+65thV/A55qakF6eIB3Pl8+/VmuFjX9bXAxv54/kyiEHffydf2KvfCZXZYW4ia5x1D6TJMA34Q7WQI4ZyNuMZ46t7a3817aAodkQcQdboK4bh7m/56bEYMoCn4fN7KMkTVy7rf1hf3f28VjzZdjh2wjzqrYFPHxdOrCZxhpOkud1zV/7t8fFY5rwjvaHuXI3H4i9ElPhZcRAappyaPLc203FVj8lHfuSjJBHu/GyNlN/A9Zikz8OjPdr+dGfuVB/O5/kTUw9n3wc6nvS557j3NB339S3jX2y75//uPx5vL0Om/ZXv61/+Pa72FF/s3//7f25sf/b+AuCzYY91MvxI8RK5n0/UNwTi3Nj79nAX431vD5nx7VjvvmNfQOkmKwWBaUsXEpULuJalOYkY9dxkvJF0exZBDQUyNE/FmmWUfgjNi78WuveyBKZ40hy46RtfvDkYZPhWp+NeY0+zq4FNvuYz5i6xQwsLoqYJb9O6C1tOMA86RG+yF9sqG1+8WF8PYrFGW5U+BzITX55+3iJuOcSx1UWk3zMfl0Tp9pXxx/NA7aN7skDJuYKnidfAzYao9k++k+ZXn62jzij+vP9tIja2hWxwrcoKtnBD5SN5+QfyuJxEVe+jhsDoqPSz22C1cgFJzPiKg+wkMceP19rYz76WAy7sn6fj/O+6qt8QJsF/zlOqK3jBQs8Rh1Spy13rrO7slFy02Ru54KEe7bX5+nKh/VcIw93JodtjNe6SVTahHorv+UhvrDjKKeF/7FfvBYOaYwn1no9H0BnjhMn3aeygt9RPl3DJpjYhUc3huWlhxvqA/HH8ckHjDef+1zKWPv7d2KQ1mSYY8MejDtcA67ensIHxyeP2WGMkn3TX3lwddiybl9X1hv4ld02do8r107gOvk4piL+pjrft2vb4DJecB+7Nt3sx1kdtgERY1Vg5fgrsV77EW1SP3QeFRnih49vwiHxifsLblKrtBZJ/6QPbI4cmHlseYk6JkYbeWKzjZd5AnVGrCP3+H70K8u0uT7ykexQOxFXPre4R91Si8P6IMR+mdtaT6ePq1yPdc7lebbJ+4P3MT7czjEQTo0232eP1XGM4/jBc9c289ljnHGnMTNGRzbXG/t+vokynE26ZgMehrqD+RrHCoZrDkbOVphM3Ru9asMh36Z8ef6K/eO11ALl5z4e2f/gT+Rv4Njww8cj4yM5ZHkOvD60P9aVLN/7sPBX8Jv2u/iGNvbHag7FiuzENsy1mUuKebRZri1XRYdhEmVEP+d9rXWCO/Bca3wcK7XO92UbkKt4n/0TnKivy2HsC/GcNmBMcCzzPviSODB9Q33gt/AJn9M0n4SPo/+M2XyS1x8SsK/F1mLj7pOMxb3JmyFfcHJjZy7W9zJmfuz+Pm1g//7j5S+/3PtJnfFDwP6zPcd2zc35g388t5YzfxT45YeL/OCw2rTX8fRjRfVWfvhRQ/Nhj6XKfYX+q835e9pfw/7e2NcJxMiERa4OwpyM5saLLwR5otpugkRyFgvJXGiHrcVkILK2xc38NN82skTmbtEDBdkmvkrPG7RN2zRGC2x2Mad7gSeufxEzw3b6fEZvtFUWfVc88Muv+OrvjFt+SwUe0CXG5XHPDcZmJMJ+4aB4qD3hAa3gFy9kVpN0WECT7bh4Y9yvjRPrRF8k18UOvhZ869wEnhd+KRaKN2OMMjWPaPy0B8/BXxk35GbMWPYsVeGAfg6bC9+U93seZJ8Mgxojr4vHT1txwR0wUlxGe8LDdJK8eH+Rg2p76O+4o3Z4HbVvws2cFxwfxB35JefF/QKTZe4d+Sk8cYtv8auKcxWr8ECJ+AQcFV/qU8in/pJfYsdGvtRFsL+MA+EgWE5uwRiplbzRUdi14dgZbsiGIXJ2jMPrxNOD2JV6dUztA41Bv1Os0KY61oxVjtGwn+RrnbD4Ydy93awj4SB2qT8bWcEfJ3+MD/fdeqmSTxy0Bz4nb9rl2hzHPWbUL+jHscdcrf1e42n9UQ/2p/PKb8F8sZ5EW7l2IQcKvj1cR6zzNXfM78Kmbb2L8gVLlOPjm3E42tiQjaJZixx3Kn3SZkfzz9o0vifkVTYPmSkHS1miEzGRtnhErLi/30jG/tKXj+t+cwzZZjk6/D/0oeJjkIPYVjgpzpor5gP3D8uqeemxZSxwreZz8gCrMi4+HuiH2Ozagt9ev/kkY6Vmrm0ucqfSEWx3Np2oO2bPbk2A9guvRhuf+1hAX7Ft/oXBsh/MAamPyJC3/kXnH1/Sv3s1fN+Or/gKvPPYsR+uLY4f12EukriyHYiV4DK5WNJa1lOzL/mOc0K06QD/aC/5ijbhudjn26qcdZgAfsSlQ5ulXptflQ5qU2x9LtbPJqGP2rVqF38R64k/4RZiofJsPuK/MFj3k9za4pXmz2hvvA52p/H+vtZQeMbhtoXdJWcKjACP4Sf7yH+1Nmqa6i15Do1gl+B165E2w+Ft/ErOus/+TXv7pn21iY6Y37+xr5v5xV8YVD5Vb+2v/URb3/b8ng381dgKn0e39cZ+8UC6LXKpoHJRy5MnEnL2OVMg0iLBirT8WRWTYFNMd4UvFLtDWaM/2RQ2YtlwwvwAACAASURBVDdyDhfo5VjE60HnhENYSC2wWcWc2uOmdZRRxCwlahwzMUh6p808rciftC4muIjjHOsWjgvbeFKzhUuyV2VveKZ9jCPpIQD7hHPyXRdGVcwPFoVB3vDB+RUxX2ARffcT/pfLJ5AT40V9Vz6czptpN9WHgTfGm/EnXIcdqAvsUh+mTotDET8a5x+QebxfMMsDwHbjs4iB2kL3Cv2jfRGLiK/JKuRU/qM9Qcc2VsUD5tKWiZ8u/TAmqF/99Fiv+RXxnzlB+pATIVdizFe4nLK7wJkeVLP+JZ4Bd4vhsLuQH+1SYKs5h8e7Hyp10R7+BDfZIWOngj8+wRuNhV0av+j7Ik4Y+xkTPxcG/ejnnGOWmE7Zg5Ouvjsba7uWMksbaxmrjX3KkTg/Ig5gN2KRcgDGLO1dyBr8wlz1sh3IhF0t3/uN8oS/rs1x67qxTo747eSF/JY+cCxlBBzEbjnWfosu74OM4TrN64Q8vsiZVe0h22/RMezDcXgutuMaub6Pfqhvgidhn9dChrGXmXFA/Z6Lqgvju8CI5JbPCAXOYvs4npCXbT6uRWq76lrZkWXp+sPV9rqOSoamuqZ6Z5wRQ7qX9YosedEk+x35FOPFsRY5RzZl+XN8iqOXK/L5OLm3w+pEjI2vlheuLeHneZvjfcLmKDNejziFNmeTy22ze5Wvfiz0n+sKxFU4SDHSGyHPyTa9uXiTV/Qc800xlFi6teHx+Mwn0c3Hyn/XFnjifTc/xxlzm2MsWLH9bKfj/vTH95Pa4+Xq1cwBb4PHf+Xv8Gltn7c5yyjsx1oisVFD4UTytsLRxTLmTtAZxgsvyFbRoTaFsdo+Yh5zUGooj1HLg8wd5mILHh2HRH/ECfx3mIf8Vrmb8dpHntlBNt+b/gW/6N4CWx7nuWF6/nv5/Mf4lDLLTTwmn3f3fB6a3Ova5S1324SvP4eDn+JhXbapr5vqEic8Lt+ORzsfuLFPusW2zQ8KZBd8uuedf1tf4rvanL+nXWS/5PFjb+wvCpJNKpgM45wT3014g9gLORi4snBiQsp5JassZJsiVPaPvuD1wi/1rdpgwfFwfrVuGCsYPOJIdsjiAHRU+M4H4hhXilmxacHtOqW6kyHDT6rThiv0Im/woS3qdZPTlf6iXKcvYb/hRuh7muMyboGJ2XNet44B/kW8MFAx1jpebIOjLWLiIstJ9H86SL5dmTdjcUPj/OJXcCU7dKHD2KAF7jz0i/4KRx2Hqoes6ceXX2+IxcBwFeNFu/ia41Hoh1jn/lm3xRHqgcR5+ukw1AuOh2AmmwZD51bmlL32ie0wGYtF6QIr9NnpCLhcZ3eBM/FCHigMO7Pb2simrb1ZPtvnOY++2TmPjZv6477z38U02x3lSW6sZQTbAr4mb+IgXNIcFHw4vqIvjTvBp2FjGq941/wp47S0MceH7Bw+h4cvwquYHyu/SmwpTlhTIc+CLpRZycI2Ot+ML/EItQ/liW7XppiP2HrcXb+iBlT3sU5yPmjxyfFe8X3TPnyo/fbc9POBbNys4lJwZZsbHifBFdcitY04Ds/FdvStvo86VK+rEyHHHZZeZmUjth3Fd2VLOY5sLHAW28dxgTnKQ/vYf/Yp1RKUm86jHSyDmKq1zmNlWPNYZrXU5Dl+jCUfpN3iauPzfC55t/Mh+30uX4deGjvTcKWjlF/V1tmW8ithPOwrsDoRY4y34ObaXM1ijEv7xaYzNkeZ8XrICm3OplA7xe4znOa+13AQ+soLfdPHEV+Od64DatO0dcUF64fcQXmsfzd+Gw9XkyxHHJ6BJ3RvMxdKDnlexjwHroTPmBxjZnaKLk6p1Zwy+qN+xszb59syZjge9aMfGJfcJ/Iv68A5J9p8riYbXwp7Jy8HVsqXkEc6nmI+C9WswxyXUU9ZNr5UoeMkzwOveCxp1mfa5D/YQve0/iP3rZ6n8aB7dc/xGvrH2Hh/PDf8PYuT55PEn7Gq70mf+45n3lLPfWTjfPEjgHxTX4+bDXbC8dEb+4zJ4ffyaTP/x8tf/z3+HQHY5MfYvrPzezbwV2MzJ+/jVCXvY2/sl4uKXWEoCvAgIhQ5d64kXYzT+xBYlCX3z7ZJ/zC5V4H3bQv7SC9MLCKfjosxV+sG3538O9rnRFcX6Cq+uY0mFVn8HdlVxSeNyTpkoSN2VhPccnJD+Vt/OU6iQ+Je6ZJ7/ljEeeHvztbyHsopeVNhJrwo7JKHsdVCFvUhfnCe7az1CEYljqRnlTdifzwOX58vn8c/4AeLJNIzsHn+cvnyDG9+Tx0xrqM/2aQbbiv7ud1vktZ4EyaX58sz/Ruc/L1l8f/wWMZ1+F7pmjZF/yk+hR9H8Yz3l7bEWPC150KhXxbEwreob/IK5eA5Y+fljvu6kBdeot0ndPiFr5cv8SI7xG7Rs8K5jNViM33IWNhY+Utt5J89BIiN/sh+xM1l6VPmoZNb8C3YWck42yZ2sO9FDAHblN+IP8Ya2+d55g8+RJ6MNfm9srGOa9RL12fnR8mTMq8l9yA+N2CA9nH92zy4V/InJlJPUR7HdvJPfHDcAdsXvqK8ilOcs0c5IFjVMRp2oh7lpPCo8lvuuc0U04O24jli4urVI3REXhVYO53O7zoHsu3mY12vUI6PbyUL2/BcY0C4zPg6f8QO1CdtdtzG9YS8bFPgs/LAdKrtei/YWMWabIF1io4VuSgDcZ32lHPSHJv8POHDCRu32Mp6amFXxpVtpXa3Ccq+Rt5mjAWncQSsku/hvssBkRHwqWRU+GjMTtgcZcbrISu0ebzBR9UbN03Fn6K+VfaTvh0HgXfONm5fz88BT7DXxXHqf376xP/IvcwZ8oONXptfOr7yB/R47IwDanMYzzzczIXl2q6OifDRPTOQvvPzFvsJ+Ad70/3KvhDfKgczToD1GZuDXZUO3xYwc7wS3aGPxjW3e9lz/JHdYLMbT+27fMC8yraMmBCergZKv6fL+CfnZd0kHIl1Lo8XTKQ+RI6K/OJ5E/zUvBEsS9xB18xBs/fsPex3+/ktb+zz9/l5s36Mf39v7J/HQ/zf+iCxfAfH1eb8Pe2Jsy/g5wff2JdNMCsq2wI0ApCKKxcg23CY1zB5U5GNDyurYC4Kk7cr63Bk2RW+Um9VRI8XdewXTurHY5ydpS3ni0QpK0z6VZ8YD49t5kQlw7UtYub6yAMC8CDqlU0hnXQS1wpsTvjrN/pkIl1v7Hi7K25M/uFEf2Qr3c8LAF2QzgUcLggSPoEvMY4Jv9A/PmB4Pye2wY+kI8ik+4hD4UepJ8iRBdF4T0LjL31mjE+/KT77M5ZV/Kavrt9ogwW36KYjt7u3R9z9gpfzfsbH+kZs+Xr1Vw6VH5OHUGtdjMm/g/pE8bb6j7Ei/qnsrEvt1fjPPnpdzBdH/FrYbHlyVof4dMZui4nwEPNQeHH6gS75cCS/8Cnk0VEtEBvNbuGsxd/LyLgkGTM/Yj56XqBvJ+a/VAfjfFPIAI6SblcjQv/AL679+I8Zhv5VHke/g8yYt5gzq3OPWWED+JjiMGyE+14W4+/bWL7ljM15HMsY+3kNuLKPxh3FUeqB4zjrE554W9b27bi6wlHaKx3j3qqdx+1xTz5PHoiddB9rG248Co8gTmIrHk/pGBON4Jw2w2Zs9Ydr4YbF6kgH2kPn009bw9c5KfHNOMz+ik3EOdqc612yWfCUY8jBYbfF+lheZbNwWvwaMtkOmTuwthU8TjaJn7KGiXkmeSix4v6qP/CtjpOMnbaRDaKP27wP0YZ5DbluOFb+c3/JgWhTiSvFbOpRTohsbz/ppj7RzojVsTz2G+RPbDSXXM2S2EauSj4xB5JM4Z34FWXG64FFaEO8jXNgN/Wvn0/iWOYwjJ3rBltH7/2LtlU54WJ+Ld+mL8rxw/F7e1M8DmPM8pQDGg/LmYGp5/eG8yk2mZd+/t77I33RPoqxPidn+Xzf7C9zkHBBXuzrpdihONB4q4OVDt8WMct2p9hJbS/mUe5r+pmn9ATGb9Fv/Yvz0fRdMZXct6Pl1bRb51+pW7iGnOOEe07uFePVf4wNy15j5euTy80hL8Qt3X8PG/s3f2P/e/0Ha/ef8nmbN/Yz1sav7+Rb/L/94/K37/gfAP7TV/DW/j0b+KuxW5wgJ+7p9+E39gd4MlGMsuk2LwbIYVFCYGtB4xE4KXEwZnGbt5PMXfGp9FGwg0xZWFVEqOQv5Y7kY9k6qekCXx1wJ7t+eO8eYt461sfSme02TH0/mEBhYehHjyvsB0Vriy30O+LaiKXjll+YVJh4P7zFuphMcuNCztvo9WRu8P3AR3zQVn0BL+cbPryL/rkIFTcixwte8wJABthiz/sw5RdxIvxgETPGeZnBh5Bv1Bfs9GPNrnF2lBs8ttI3sVY9xWI52EV+Uf9V/BgT4Q9zheU63ojcGbsjHyLuFb7Yx+H1/HT5/EfFi2Hryo8ND4t4ywLeIlPhDdg4bhT8JFwwTzf2TCydz1VNIbvNwuP5BfVLDUG/ztg9c6TEefLi6Yn+MTi2LOgUnoxjiftOvsUXvLZ8iXj4Thf7t2e8n1/IXrQzxMbFdtoXdGW+r3gY6wYaGXI/1sHEAe8HzjucT/wPgImGZKOT/+Xy+Yn+1IZw8twTCXx0cpwMrKvRNpSBnJN48zHVgYAz/mjJ9SHqMdlJlsyrLp5xPPqQ+fb8FN88C+tC9+8xRI6zLqmbp+wL/meuevywZo7zSseu3cZHXAxX6hPijpwg7ugcZBhin/hgXdp5QgfNA0KtIq6Ml3TAHJ+4bXSk+kSxmH8tJyJdTvr4ZhzyRoptxLDAKr6EjeoLPohN+g9ySl3XAfDjB/u8k1fZXMUba0055yquzJtYT+STfTZnRb5hHnpchz0ij3IpYhCvZc5RmwSbwOk5p8ndmOuRox7HsB4hXSZ/ieuwTewC/op/Ygv+mJTXJojVcYwHfs72bc2aeUIYxhiZfxiT0uYYk3hdrAci3hUPXU2ROIt/gGdlX+Ig2aTWj5W4fmIk1QLRIX1CvCtbMWcY/wo/0Cm8UJN8/8wDf38bY+C6YRjjG3g17Dmq6zEG8MOY1Al1Jz7r7PAnuWFd5mrv4Km3/8uvvm4sczDi7HgTdVZrNMO90uHb6nWhi5VwCrAkPpVr7pDLNJb9lrjuaom3DTCccY456K893sQNwhI4TD7Mfg5X0CWEGDrd+HuwkrpqsWEMuZ55P7gN7wtXZa12/l4xx1dxq+pfindl17m2r+2NfXlD/0+/Fz82yGb/7z/t/wrhgfj5eB9jvtqcv6f9Whtu6f+BNvaPg3gLgD2mcW0ONAeaA82B5kBzoDlQc+D4gase92HwpAfC+mH1Ggy+dpzzhkTkhd/UuQabN+37oPi+qQ9v+IDdfsc86OvmxKM4MGpq3LR9lOyW8zXw9GtfNzDGZ3jMPyrYD8fy68P6KD+k3BNH2+A++5382S+83X9Ojm2i82d8rtQ5vtUf9Jrv577PL3rPfnJH+q/1vk0duWcDfzXWsHw5n76pjf3XAKx1vBwZG9vGtjnQHGgONAeaA98WB76NB8fHxITftMNN/Pn2YHrz7Xp9XzvO38LG/kvGt+vi9TnRmDVmzYE9B6hmPWD+aZz3OL9PfOo36N+nrWt8m8NrbL62WL4Xe1eb8/e0v4ZvvbHfb6FcXoNoraOLbnOgOdAcaA40Bz4eB2jDmV6K6jcDB/8Nj/mm2L2bKvi5g3tlveGa+FvY2H+R+L5hTLpef7x63TH/aDGHN5m71nycPRH9XBG+aPAVcr//Iu7jcPYV69M9G/irsa8xt/bG/iuS5DUC2jq+wkmpOdiTUnOgOdAcaA40B5oDzYHmQHOgOdAcaA40B5oDzYHmQHPgTTiw2py/p/019mh7Y78T5k0S5jXI3Tr6R47mQHOgOdAcaA40B5oDzYHmQHOgOdAcaA40B5oDzYHmQHNgx4F7NvBXY3f6HnWvN/Z7Y7839psDzYHmQHOgOdAcaA40B5oDzYHmQHOgOdAcaA40B5oDzYHmwIfkwGpz/p72R23e7+T0xn4n7IdM2F1S9L3+Fbc50BxoDjQHmgPNgeZAc6A50BxoDjQHmgPNgeZAc6A58DE4cM8G/mrsa3CnN/Z7Y7839psDzYHmQHOgOdAcaA40B5oDzYHmQHOgOdAcaA40B5oDzYHmwIfkwGpz/p723tjvZPqQyfQaxG8dH+MX145zx7k50BxoDjQHmgPNgeZAc6A50BxoDjQHmgPNgeZAc2DHgXs28Fdjd/oede+bemP/f//f/13kf48CqOV04jcHmgPNgeZAc6A50BxoDjQHmgPNgeZAc6A50BxoDjQHmgPNgW+TA6vN+XvaX4MrvbHffxXQfxXQHGgONAeaA82B5kBzoDnQHGgONAeaA82B5kBzoDnQHGgONAc+JAfu2cBfje2N/SuTSd7WH8fXAK91fJu/0nVcO67NgeZAc6A50BxoDjQHmgPNgeZAc6A50BxoDjQHmgPNgY/BgdXm/D3tr8GdfmP/yh8PXiMoreNjFI2Oc8e5OdAcaA40B5oDzYHmQHOgOdAcaA40B5oDzYHmwEfgwA+Xv/z+4+Wv/9z7+j+//HT50+9X/O+XHzYvN//98tfffrr8+ee/b/p8f7lap9i30c0y/3X5n69k3/WeDfzV2NfI6w+1sf/pj8vl+em/icyj3f77cvl0RLqfny7PNiDLDPe56/Pl88/r5P3PE0os7Pz1C2iU04WtpH9xb+FbwqbUN/X+8Slh+BpkPa0j4v/8dPlP8Pso5ofxQHmkbx9fsf1I73cB9y+/rjkjMr874W/sU+WBykPfvvv+krgx7ztfCoyTvGBn8i34zmzb8fi/l88+bWjI0reTcfKxL+J65MfETLL0ctn4MGUlLL77dKGMT7nGPjsf1Z5KT42R2Ob1Tp1lLAu9gScp3uk+y/c6J7/Jh8p+5p/Ym7BU363H5VLELNmS82rF82O/TBZxp8DvkFPBPsotjH3w08V/cqXEFeWG/LL+O45cgeVS/vcX7z/Gys91rqZcLhez0TDmeAwuFbYBTh6jMX7BPxgzLMvjDjj4XcAvxD/FEmOyOiebwL9gIyMI94Ocmod7O494HmNDNiBHr6l733lOrOMc415f1/7WfY/8xPvXxc7z67qx99vKc7yvoRazNVfQ3z6XOPhYVri8enxDjlc2vVXbf379lNbYt9ryVrii3rvqSZgH3WwX5oZbMXrf425bK1qt8jUs+xrmMQfwvAjzUpYheV4fkQvXjn2f/T9dPp15lgw1hvJgYknnFdaj7U683ydmgRtxTRawqn3geYRgO8KoXON5wO9bJx3PaejDXTXwFDYB32pMwKRam7PNw7e4xqnaTuis7Li37d//um5jfm6S/+XfG3uHzM0mOsbSn5/b2PdjxI57xrIM2tz/7R+Xv92L6SuMX23O39Ne4yr4Pub4YTb2ZdEQCwNPVraQoH7bxRcXR5UzC48ruLSwM5lHgYw2yAaE6pCH4K1dkxBaCM/rX2GT7Ca/YvF8DBGTrluTtohHjGnE++h+FQ+zVxaZx7gc6ZVNfePSiYn4hL9JbjHG/PHxXHEjYkbXu4VL1EnXHjPC5wzHlRsn8NG+5+LEMQK7op1n/YDN/IiVx3rxEDRy7fn58gxyaFy0R2vD6FttSi7kD1zmA2jk21hKWpvwYSNHMZa+q+MiXhPTtGkvG6bAiYTllbXWY292ktwSP+uzGqvt4gfYO+6xbKvHsQ7oeMCRxmg+Hc05C1xBnvywp3E9rOUzX9SGAxwWXFJ9aMs8jzik2MZcUxnsb/UDjsfN28xxCNyOdiedEweIqbcz3491bGdTFXtqIzugDl3D8x0P1Y8r4ztzEdck0fbDeGr8OC4RpyjvmutHykK918XuRB4GDFDXXecS8zhfDH2RSy9lwzcl9w1j+ZXh+Ojcuy7nfI2/J4cepndZq/NccY+973cs+7mbK5Lt99SoJd63c+NhXHgXuXxjLaOYhHWrrh8Q27keO7tWfBeYoP0nz2/g6D218fEcvJEHbxWvw7W5xG3yL23sz2fckrMy9g2PtDH/L3pj/8+//XTZbeL/7ecfr/thYLvhf8/m/Jmx3OeqvzCQt/3f2Yb/PRv4q7Fp7nuB/PoAG/uW9M/PceOrKnRVGyR/sYiIxTte7wNZL4KijDNFnsaMzanhaPWAlwi0wwZ8pnHc96rFWtIXZT7+OuJG2LsJuYovtp2Lh8SU9Y1NVdiEKf1GHeK3bytjPPi2mZiO/Z0PE2HRVepydrNtY/Oszpvgb1gECj5yJDsLG5BPxzYJbvPo4hruOV/m26G0UR7sdv02sZ+2H/tRyfBxFkzkWPk92r78WoxL9cf0kZzEFbsv+vDodbO+un7s5aDM9Xn2h/Bc1SzyNcQrxLzkv4vpnhfyo13N86OxeH/iw8liby+SvWEzefXmONjt4pJiLnyWv0TKuMYYVDg5HaB7jOW42ENdlBevS1m72pVwqX1IcgkLIkxRczccJVv4xy/7sYH7x7fNnE7St+Fg4CPjwnJFj5MXcI446nWQW8VP+zqZOx5u/HAykNdyXsfHbKjuV20iL3LY2k3m+bbz+JyXOey4LnZ7f2/x68wYztXNui9w6YzM7vM2sfwacX907l2Xc9fl8w7fh+mlOWMxd36IXNzMw6t5ZofZaoy03zNWZITjw7gQ5O7493L3bqtlAwN8Ptvm+QvE4OXwuLFm3JC79/DonrE1drfxoJZ1I4an8+HE2nzIIt6tngeGjX4t/ja+RKzmxjdtvtuneK55k536bjfvo068PrM5j/3x/Nqxo//mU0P0lwzv99M8q835e9pfg4Pf/MY+TUa0KVcsNhaFOk5oLhDFBBYnvEcUZC+zsD0VyFG054N7YaPzYY7dYhPkk09p0xAT/h2fY5zxHHzcxlw2uqL/gvNCpsN80cf0LmJM4xYPCWD/Wtdtk/k13CDd0T/BZmVj2jRZ+I/jo8x4jX3xXPpFG7EPnS+wGuNj7GGsz/fKj4VckSH2yTVt/HIuGz84v7wuWdhg3ofNu+2btmyrbWyKnbF96K78Osp5lid/TPr89ESfF5INT95UR9s9z30NrHUlPBRD609yxIixBoTPsZ3iOcXHBOB4yTuxI9mcYmt2ydhxpPGi4vnp8nl8Hk5+CCtkeD0zbk/+E3GGc72JKjajHXROeRJ/jBh2T16InTLfrLixrF0Vvza4CA5TD/mVctlzzf2wrX2F36IrXku7HT3O1q6YFbGReApPGOcn/9kw9WnKnJgLtF8olpbLy1gFvku/ZHdpJ8fBeLKK74m3vhVjj9GwR3BQzKbNycYlv0Tm2j6RRXkjIBY1m/CR+8pfkb/PQ9GBn/XzbZ5PEovht/T75D656Oud/cjIBuZ6aXYalkPnuoZSv0VsTMYaVxuvoFldGnEU2U/4qUj2y2Ed+R54K39RpFqwf6nDcmPYyFhfl2NaX6MtdD1juampGF/F4dd1DT4VX/JVUfBYl3beG7svl8/CSc2XKDPy1HhIvFZzLSYu9nTf7o14+XG+RjhcJbZh3jbuTv4r/8xWb4PXr5wR28OcK/mquU71UzrD3FzFpKy1EzO6F2w5iPkOK8Ih2Ib1Nvkh2GusV/hFDlxjM481O2YuzRdVBEW5v/TvABflQIl3tH9oNW6MsUu9wjmoQcIlsVl1a/yjPtAlfoA82ZBcz70wnnRE+RaPfYwZe8Eca574xPdMHvlGNvu2So/gwFgGmze8XK8lrbbs7KN7iGeMGdlf1baAR+CExEXwcvGOmMh1WfPX8drqUD7JnBY+e0w6xbp5dDhs9KYXigQLH2cXU60TMtcvdG9yUDEMfBiS9F6MX7LVeCH2CYfq5wHoP/SiH4CxyYL+L3Z/bui7b+rbxj7Z8s9/XP483l6HTfur39Y/fPtd7Ki/2b//9v7c2P9t/AXBZsMeMBw/Qqxk3vcDxcvH7J4N/NXY1+DcN7+xbyBywcNCwgU2TEapwETycDE0OfE6FlYqX9vv65uNomvK0IItBRiLarZb5ZRFVmRXxwIbSEx56LJFSCXj/ba5RccCm2qhoHjKhoPGY/jKMTmcVATHE3pLG2hcPfGafR57568sPn72HDL++rFZ5gE3yL/I1yOZYUOaZHj7mOkbjhcL87hQYF+uiVPtq8NT4inHIj6xf7xOGGuMJm5D5lyI0FhdlGT7iDOb+7L4KeOdbI9Y4eZu1p38EEzoGDkxr8vP/AgffLwlHxg/qX3Yx2TK3fh5Fh4L+TMXxrmW1f7l2DFGDk/Cke3y8bINvf9QH7ES7FEem1/qr9abqLO+dg+uMbbR73gNsfOcklyeWCvX5MGY7ZZYOU5EG0THql3u6zH6KbbIQ4bHseY6xpXlaew177hdowM//IhfGhPqZLHSDT337+dMrGb8SIbjffSrvjYuT3liIB2j7z6HljxUbAeWiM3UsYhvfBglE5SfXjdyQPDDNjmPNsa+/v7ePomP5eXsrzbGa7HZcGQZFluRKZsh3h7mom/z/EJ/RNZ5+6a9jjfAfxfH2U55ZfYLzjVHRdYeV4m75sxc9wgmsjaU+Uo4NfihYza1hmwku6H/SgdswjCe5qvkmOEbcupIR8KTx+9qKsY34+Dro+IS+Yg4XW3jg2KnNg1OBNyK+Ul5NTHzOQBznmIa7Iw81TrMnERcOa4W56hb7DX+DRlTH/pFOm/M9WCf6FR+q58zp6J/ev/YrmR7lBVs4Twwv4SHkgcxNgM/3zZ5DnVfbYA21jPjELDU/oo3+yk2CF67XErP4qRjUxMUU6njniPIIebM9FNsPMAVx5/loPkbc19sFH9ijsXrOD7kj8Rw1kMfT+agb2P5xtdjHvrxlczJdYrDkf2jr++D+GZOrvw1nsfxQ4Zrm3OOzlNgJ7bRmMlzx3Hor3ENuSe5hrUnynA2adzMD5GhOoDXcaxgaHGMvAoYiD7NY+QBnyMWnCcWV88BHDv7uBz12Bjs6QAAIABJREFU8SVZiBeeTx8ZK8ACfGdcxr1p51z7VjglXShnnBe6o68vfU0b2L//ePnLL/d+Umf8ELD/bM+xL3Nz/uAfz63lzB8FfvnhIj84rDbtdTz9WFG9lR9+1IhxewfXq835e9oVlxf0rzf24WFBAM8F1Yod9/HFxhXa+FAygpcWQlGevyb9aBcVJv/rZpxAxHY6xkXLIYHiQszb4wu8v+f0Hup5g7Fu8pFY+EXg8GEX8xSP2P/MxLGIidMbbZUHFHkj7wy+UcbkjltUF3xax3HPDcZmzLqLCTrarPaEt54Km7YclxhgnoTFY4or6djbmRcbkuuBMys/pr8sR1cj9mmWiAddM8ZSR8ZYXcCgzXhO49g2GTf8zZjNRfI0xR8iFl6el7XnQeJPxfeJGdqr44r+wi3FIsV8xkYe1gYmJEf8usbmqi+3JXudrQVmupCWeHiuM65iox/PeLBev+ievs4AepsqGUVNQ84u87WWdbg4JkzkwXXU+elDocfVvDIfYDxgqVwZY1Iu2BjkC2GtMoJvigfk9mwTGcccnH6qDuGgxbz0FzjkbZxzpOPxjP2S52OM9y3KjNfIM/K1xHPaonVFOGtYK0fBH4xT6fuMubep4rzpr+Nt90mWmwtm7klcyD+I87TB7PP4IT7io7eXdfs2L8NkSx3w+t3YCr/JRZ/r5jPiTOeVjGWuTDkHcUcfVB/qKWx0fhHOHheVk2IAvh3okPri8lRiPeXiZuGhHzJGj7XNKAfPmZ9Y/0KNQn9ER8DOyZM+1Ti59wKxI8wiju4HQIjRtCPHe9+H+odcRU4IDnTc9OMxHCfhAbURLj7XRrvIjbWS5fj643yiGGDty/6xjNlO/f1KS6+whk+bnO0DU4jrHiu2OY5H2/FcbPRtK/zW/g4co060Oeam4O3HhPwKPLdYAdahj/iDea5tkiNwRJl7XI0rNOaIg8OuEzlDsp6/XL7wP4ZlzwRH44EPlX8+noyXbwtYH+aH+Y/6GDNlsjvxsWVepnlL4+dzDXXQeemv5zrGUsa7NpIR6rHqB04pP45s9nlpdgYdwXZn06KO+liZbX6stYu/fMTYHuCqa0QeI+saL8/0rOyy/qg7rLdkzZjywuT7mgHtWgMHxaCOz5h6rs1xAXezcdz3dvp7Qa/y4WXaaTMc3savbFn32b9pb9+0rzbR0Z/7N/Z1M7/4C4PKp+qt/bWfaOvbnt+zgb8aW+Hz6Lbe2MfCMZN6W1BpcsBFzyymuwImmxxhUVcFk3QXmyG5LxersshtJ7AqUfyk6XXt7lWy3lEb4RAWoQtsVjEv4xFlbCeViUccs+LatJlXTc+Xz/Rnfsi3Db5zrOPEwjZepMGkuZzQTsZ/TrppMbeUOxeP27zZcHwh1/kVMV9g4fkumzCybv1y+RTlBN3EEfVj1gPM9RmXHTZkN40Z4zHeLI/GDjmqRzYQQwxTHIr4Le2JCyD0pZATcEAc60VhlA9cLjCuc/KIE2jzRl+yvfKPxwsT/JFxjzZGv+M1YwQ2Ljjp5BI2mRPGhWEn3mdcUTedu7lu+oY8HZgUcSCbV+2II/URlFa160xMJj7OXuDK0FniFmKY+gTd6T7gNnW7OKivLMfqrNg7ff/jE2wicZ2zvtMP0F3qgPuYV3YOHHKbVuAD1ArkQpRBtp2Jr/o/faAxk3eL8aVvU06yKfIH/wpiIV98SbLig6WTLRy1eNV88hschzrCAyT6fjS2un/1A+kKox2XVmMoRiGfNP6D/zPuhezsS8g7lTN4dJuOEXfEF8+FExbTEzqcTcMu8BHuoW9OZ4GD6c+bHmwj4nKDjS8Vu5Aecplq2MQFMVHsx72Yc1qP2O+VXMLVbtoGKMTB9CCGWJdEQDiO+a6KVeCT94ljo5LinBntSnGZ49X/aac8F6pgPJH5fIdV4fuwhfzj9Yn3g/X6tkJGsl/sHceABZosNSHldKEj1Eq/7rgyFzb2kq9oo8Zuh+usLTIuxQ3xiM8LMoiPPmdEp8QW4uGH6dWZudnHE2Sq3QH/mJeqbf8yQtYz/VFMBRfxEwXL+XxecTZ4PDwXRObEeepytXfmn2srcjzbb7JlrhUr/XHaHGXGa80988fZFDkvdQPy1eqan9+wvcpBfbbc4Tr1i2+em4gFn9d45fxX3Q6PXQ6LBeNoWDkfnSyzjWyqngsW/VnmyhaT63RLXF7gKG+52yZ8/Tkc/BQP22ab+rqpXtm3fDsefX3gxj7ZILZtflAgu+DTPe/82/rCh9Xm/D3tIvsljx97Y39RDEYxroveokAs5GDgfIHHJLNz6rMqdCmJF7aMfpuFDtpk5xtZJ3wzOebLm7fNCS7FceFPFfNVPLgdJyc7H/p48vFtu4eJZCPGGmIZ9eqEqjEveLvw9zxHNtxAO8OD0an4r2xTued1q74NXhaRAifVmTlcL3CgH/oB+tWmM9iMcWMhTrLmQnLaRHH/4xPzShfRjA365M5Dv8gx4ajjULXwJHvGWynXxaLGLDxgIOYFbuI34iiL2ugP9rFxG32om84L/9R3iLUbt3uA4QVrjQMs2pE7INt8KOwa/dy4YUdeIJvuBQ6nMb9lTlmMKXRi7CS+7k0dwEX7Ov8lPh4r4bjLC7kY+VHK8HZbHETHOHo9apPa6e8PGYmvoLvUAfezfLbFxh3zsK73bCfVgMO4oP/zHG3Ec8WBeZ58n/eNn1E228Whmrw+sK+ShW3MBV9XHa4b++XNNpQnY32bzzOLT72xi2PxXGTLZgPFh+wT8tLHafOG5wqjhW+kZzWGYuR5rHahPDxfxtXjonLu0DFkIL54rvLVthN+TNt1LM2Fu5rq9Ze1RPXX8XfxXdUUkGG2zXx5gdgRjrohGPOyvo7cpWuiquEX+4gv1tdqJNlAmzfMm1X9YBmZWyzz8blO+gjzmYe6xgq4lHFhO+3H+DHmjH8mO2OVfTcb2f8Kd99WyCjtFzvO2BzzrdAR15pOZxw/da9ywY3lvsyhESfjQVkj5AfgGVLh2jUcpL5ncobsZ0W47j4cX/gn+TOOPp7sv2/z+NM9wAVlyXmFlZeJMbEfBGj89BN9FLn5yLFmVPZzPdqE5yLTtRVcKe2Xun/G5igzXg9Zoc3ZFDkvuhfx9WMH3hxHwkprj4+tYCFrVIerjB9jSafVZxs345p4dUY35C3hYLnHuExr5FOXAStnw+reAquIu5O1mlsF/1c8nnlLPfeRjfPFjwDyTX09bjbYyddHb+wzZw6/l0+b+T9e/vrv8e8IwCb/K+LveWFcX7Xfs4G/GrvS9cj2j72xXxbaVaEcJIDChWTEIoTn2mcxTu/Ph4TVZFsWs42dZf8diTf2XS1rp+eV7pHN4U/kFOsKt9xGk+oqHipr+lPGPPqadchELQugauGRJ/coVzaiVv5ybEWHFI9Kl9zzx4IbC393tpb3UE7Jswoz8b+wKy1GpO88or4Yw3md7fR68v2wmCv9CJsApe7h6/Pl8/hH4HTRNu0eMuef8GocyZc65hRb3ej19ltsuR0ffCIfpS/5fHm+PD/bw7fcWx4rHDY2lxuP5PdT2MACTpTxRH/xPHAhxaDqy7rkYW/pK8hKeUU2wgKX+qIu8Efl8H3mAfYFH5zvlQzkXH0/Y77QNexy+sCOaXPyO2y8CXZVP7kn86vf/Mi6qH9pz8Z+sjPiwP01pypfjjhYrSGCbWXNgPwoMaH788EryGO89r4mmZUMbMPziYPFBbkE8QAf6toR8YaxR7WabAAfD+xL/kb5iGfhX20/65d6XOmg2OqmjvcX416NdW0Oy4kT+VzXeIyNnlcyhq877Hb3Fjns6kYx3vlFWHtc1N4ZB8RJ76EvJQ7ADbFT4zDxAxmHOhInaptRDp6XGCM2YIv6GPxy8sSeapzcQ/nSBsdDecV4it3Zde/U5ePt4yK+ki0xPmArykC72Z7dBlQRJ8LsyjHz2W6X6+ILHXdxWd2jdlxD+fri5AM2sd2wqrG2+/Wmr49FgV/BC7PhjM3RrkJHnDcDZsgB1R36rNsrfcd2I26o/4iDfD+u8fxch2sb/gfUrf/h+G08bogx4bjLj3q+R3wUe5ln8d8KmbG9Zt0s+NCY0l/PKYwP2xLiW8lY8YdyjTmztTnKjNdDTmjzdnofBMMVrn6sPOcbb2g86dutEVAn5sXE62RNdnO+1KZCt/jy+Q//Y4+06z9GPmRsecj2bdfmYkeBu2DLR/Q75uXrXt/yxj5/n58368f49/fG/nkMxf+tDxjXNz5fbc7f0+65eR67a8Z98I39OSnCQpaK6abY5WIUC+S8hs05KmqgIwbo6L48dOKks7VzO4FVRGKbUb7YWBbkN042sa08FpNN7BfxjljG+3F8ug6Tebo/8Ypyo15eFMAkvZ34ZhxP+Jsm5Tmmine2veJG5PzRJC33wbfwIHU1x3VBCQudIyzOxClgHmPGWO78yPmfx6xzcLzTEBczwgv8s0Wya1WnXHyr+HnuGA9WCyBuH7ZZ38oHbIs4zOvKv5EfZc3KtlPOaC2NOnI9T/Fb/Ti7aOfx/iEo5S3Uwyou1D/NByYz2sjXsDAOnJSHINsAl/hALoQxUYfkm2xkcN6v4j/imrF2DzEx94J+qSsRC2kfxx2u2I/Oy1zOfPHjCv8i71zumN/Ie7JTORjtzjhxf8xrtsNk1teW71lmjifm3pmH/SgzXoeH1BTPaHPOvaN4kg9aww70H/DPy2IsfNuUr/pGH+9DxJSvYx5CHCdXYh5K/Sb/Z957Wzb2aZ2Y9q7qJdQc5XjksvQpc0X4coA7yQSfJ2ZaNwrZ2VfGWXBRe8W+UzpoZrx8mmNirCTHljl1pENs0SPb7H74JhlWtzG+rhaKDIdNxLmI79U2RplVzl4XO8kJje/wZfJ8Hz+Ze7JNmkcz92LsZG6R2DlcJe9d3gp3LYe9bdMGN+a6XHccDnEf/PU2oj2rtQz3YZ4KVtIXY+Tr6BFWfN84KbESLNPac8ZyVbM4N3MMHb8TT73NMZ7CKR+jUBNI5g6XmY9aHwHzODbUdY3XKCFYj2EOjzb7+FZ8Av2xJhY54+MY8S18czkX+0tOzrjHeKQY83jlRJlTPj+INy5/6jWF4wv0T7yUnKE+B/4U9kV58Vp4LvF1fJV6XPACnzuSTGdzwFxjDLlXtHkeSZ7AmBkri43xKo5lW2Gs8E7XCEe4hpzb6B5xJTwkpsSxnW6xe3JZbeJ2xhbyWziqL6DJeDjGvN7ZS/fQPpCzu6fcgP4v2Jbfxs96d31kY3z/KZ+3eWOfa0H2h9rlW/y//ePyt+/4HwD+01fw1v49G/irsVucHsS9D7+xP0DmxdaY9cd/UHyKQk1BmRPpHKCLBQvYLLDaIch0BcsKoXbXExwX+knBrYjg5M9E2xa3OPFbcqbJpdL3jtp8LBVIOsGFpe+3wdmJwH6GUb2IgPuAz1rv7O+4tZiolvKcsX6D2Mm9foM2Lzwix4OtFQeDDboIU38OOF7I5AWD+Y0xtnyc2BY5UPHbyyxifujHATbqr+dIWvxovylPc55xyjExeeQXLKJXfYWPjBvLLTGcPq/kJKzJdo/D89PT5UtY8Om4IrZ8z8tI9VkeApQCOV4+nivus57KvzjeHooNb/GD+mqc7L7gzGaGXJFFtPjw/HSJb7zog4v0cQ+4M25PT5fx77Lxfwc6qh9pivwQv+pYBB0uL8I94EOFsWxIiPXuWOBZ19x1DNn+Bb+d3RU/ruSgi41sAj1dPltwih/I2Dbx+wvFEjE8ssG4NnyteRhkJFzD/fjQdYjTwVpK6xnbmm30GAwsfC1a25dlVRjE8TnWJEeCUORhvE9vXyqOnl84t5yzz/u/rZcBS+L3qobem9c0XkCxzTHSWcjOvnpccDOF81I2TQ50jL9m0/98nWesD3Js58ecR6w2TZs3NRXjW9ajhM2J+F5l48ijyGmsGSdxxX/Lgnjl7RyQYx46v0N/XEdoqEZ+EDfNNpKhHTynknzBhOoq+5vi9KuvfxmX63I9ctjl/bBbc14wNt9Kfku+ii84PtTVuMbZYWV5b2AaNlBn5fbz02VXszQfj3i1tflMjO6sCYLnOFZ1T3AWv+VTlvB8v8P1Og4OnDc5M7HCHJL1jsVqM5583ee542eKsWwoI2+jvJgfwx7g9HJNMfNO+ABrH2dTzJkdXjO2Pj7elsFTdz/8u0ZlPSa5EWc/j2xtJk6BHfF6yA9tiUejj2A1uWkc8DWsGhvtk0+k2rN09A9rN99DHoo8agu20z2oU9JXUirrZvs5Lh7XFC/iFtsj/lf+nsUq4m51rFoHepwldxGXqqaU9k2uor6XPB8b+9u33d/kG/sRT7u2HyKKHxtks//3n/Y+vTLGGL/V5vw97Sj/pc4/0Ma+ke2lwGy5jXFzoDnQHGgONAeaA82BPQfig2PjFfEaD76wkXDrA054YP/qcD5h/3t46L4e1wfF91Ze9LjL9TGLOdrXjeG3yYFRU2XTtWP8bcZ4F9dvY33GP2C5Tfs3mPdsg/vsd/Jnv19+cHPUOTm2ic6f8blS5/hWf9BrPDn3fX7Ru/0RAuIg/dd63yb/7tnAX401LF/Op29qY/81AGsdL0fGxraxbQ40B5oDzYHmwLfPgW/jwfFBcaK3+PwmPm1WwxtzN+fEiY3xm2XDw9mLyThh/7vf2H/J+L5GDFqH22B5Ma43zo3ze+EA1d385nVz/0Fz/nuJ88KOdz+nLux2/Bzz7iPWUGd0dZ9vrnavNufvaXf8fCHO9Mb+CwH7GsFrHR9jgu04d5ybA82B5kBz4FviAP5p91u/UfUecEU86M/dH/BASg/nLOzyOX1y5SvJp29hY18+ZSHfMRjHB8T3PfC2bfhK8qifdb+5jaeXzj2ak+DzOi+tr+W/g1pC8y1NUF/vmoFqXf9FXOfTffl0zwb+auxrxKQ39nux04ud5kBzoDnQHGgONAeaA82B5kBzoDnQHGgONAeaA82B5kBzoDnwITmw2py/p7039juZPmQyvQbxW8d9v2Q2fo1fc6A50BxoDjQHmgPNgeZAc6A50BxoDjQHmgPNgebAt8CBezbwV2NfA5d+Y79/POgfD5oDzYHmQHOgOdAcaA40B5oDzYHmQHOgOdAcaA40B5oDzYHmwIfkwGpz/p723tjvZPqQyfQaxG8d/Ytyc6A50BxoDjQHmgPNgeZAc6A50BxoDjQHmgPNgeZAc6A5cM8G/mrsa/Cq39jvHw/6x4PmQHOgOdAcaA40B5oDzYHmQHOgOdAcaA40B5oDzYHmQHOgOfAhObDanL+nvTf2O5k+ZDK9BvFbR/8a2xxoDjQHmgPNgeZAc6A50BxoDjQHmgPNgeZAc6A50BxoDtyzgb8a+xq8+qbe2P/f//d/F/nfa4DXOjrxmwPNgeZAc6A50BxoDjQHmgPNgeZAc6A50BxoDjQHmgPNgebA18uB1eb8Pe2vwYfe2O+/Cui/CmgONAeaA82B5kBzoDnQHGgONAeaA82B5kBzoDnQHGgONAeaAx+SA/ds4K/G9sb+lckkb+uP42uA1zq+3l/iOnYdu+ZAc6A50BxoDjQHmgPNgeZAc6A50BxoDjQHmgPNgeZAc2C1OX9P+2vwqt/Yv/LHg9cISuvogtIcaA40B5oDzYHmQHOgOdAcaA40B5oDzYHmQHOgOdAc+FY48MPlL7//ePnrP/f+/M8vP13+9PsV//vlh83LzX+//PW3ny5//vnvmz7fX67WKfZtdLPMf13+5yvZd71nA3819jVy90Nt7H/643J5fvpvIvNot/++XD4dke7XL9b9crl8+TUn5dUyf366PIPULPO/l8/Y4Y9PyQ8jzKeLtxAEXxb+kf7ny+efsy8m9yu5F7C8PD9d/hNiehSf/zwh2DVvFJcrsDvS+90Jbqle8emEv9+FPlUeJLlT/rC56u98KTBO8oINiePBd2btgq9kW8iJSXNn69Uyv78cxiD4caxvGlbl7JSVsPhu5nAawz47nWpPhVWNkVQEr3fqLGNZ6BX+nThSPiVfcj0hTmG/q+LH9nufvr84noZ6HfNccBlHh/GRjxoDlpDHhjgUGHtbilp8pAPuk364Nr+83B02nL9hLsHYlJgUMQh2ZGwyD1LtKHXJuIDtdNbrudYPkS3HMzqk7/cXrrcea/TpTD5Qn4InImfEzvvI+n1Mq5ogdg5M1jaKHudLmY8TcOJGjdPMisX6AmKz8Vft2XKh4N+2v2BxcCQOn8Bq6nKxu3LsOT/39iZuYA4e5vBe9iPs+5pkuFiWXHohzpW63ntsPl0+Fc9DN8X7DfKG7HR674ntrhbWz4034fSeeULzxW4OKvgMtaqa3xxGu/mIJp3zNdvJFUwdFwpbpd9XdPzPr5/S83Dpu/OJucxr6+Y1rbGunEdpHjnJSb+Gm+srPNy5Tjqe05Dr99RAlHPfucdkU1MoZ/198vfKeB3nxBX+/Ptf123Mz03yv/x7o2PI3Gyir+0/t7Ffj79nLPtCm/u//ePyN1dfNn6+Yb/V5vw97TWuj/X/w2zsS1GICwUutlYEqN+uaM6FhG0e5aJ3tcy5kFGZaTExJ1ItTHwdfdkThu2sx8hEfeci6A0TUH2PWH43N/Ygpkfxife/m5us92IX5SauneCW+ilYn/BXNqo9v849WKzyJtpO18rPokhFOxPHv78QPhCn5Kv4rMece3HM1TKjnRQTzIuQR7G/2gYYJBlw77tFLo8xz8+X5/hD3BK30bfa6FvIH3Yu+DbWj8oV9WcjR/ugX3bOvL9cLjt+TBmRR9fET7iKtkeeyg9c2KfkTMR96+MxJ7wds94CHmy7zUOMmV2nGlTwjmSATI4vyrCYDJ+9TbIZDbGfOqzuBT9LTEJORo4Vdkf8r78OOpNdfB/5l7BKYzxWgv+ON2b3jO9i0/xUPkycqh+lNXZFvkfepBirnxOThY3mi/ACa2DAZlvfRt/Mdyd/zq/nsA261R9pP+KC9LvySPHYYBDsuKZueSyutCvo3XFD72GNKMY/2p6vXd5bxvLrwu7BuXdlzj0Mq4fp3ayZ4rz4reYh+bleg1Qxu35ulpq5wftWfB/GBbHxbY+31jIap/PGBucPwuvrOXpHbXwBDt7KgypfX75trh9hb2C5riWs6Ak2vKDLMh6zxnxQDtPG/L/ojf0///bTZbeJ/7eff7zuh4Hthv89m/NnxnKfq/7CQN72f2cb/vds4K/Gvny+fH/5ABv79gD7/Bw3vqpiW7VZIpcFfUxmWnSq8VWbyfSTJrcPPbqhQsUqLI6cTpO1Is2yEH4nG6pjY/D8g+tKz1u3lxOWmxirWGBbvWgp5V6FHeqQePm2Y27JODuWdjl/56SoizIeW+pyi1+27TJYUeZN4ErFUZB3yHHZaAx2bvnk/DRMcMyxn35c1d+1FQ8qZQzUd8ZRc1nbTa+TP++Pti+/en6QX0m/8ZXkaB0S+XYfcZFzr3vaOgKeNrb3ckSeP07uTQ7hxqrvJ7bOzWbggLfP+qXxVA/5xw1bvBX4HfGMOAWb20W8ou4q/r6tsAO5W+r0Y7w8xsG35fj4+xE7L198QrwrPu1lDh0od8Yf4jn0oA7Re9cRsazilXJG7Aw1rBorbUc6pN92TjibDzOWXHjD23WM77ouR+5iPCYHCI/xq8DJOX/rO8vf1TfiTKonyMfCRsDzOm48UhbYuMUA+k27j/Mkj7nOz2o8+15zg/s/PPdujlNl//tse5tYvk8s9hx9cO5dmXN7267A82F685yMNn6IXCzn3l0s9pghfvn8nrELmx7GhYX8V66ft9Wykde4Vtrj/BF4fbWP9/DonrELft3GgzfiMNUQ5F/9sgn5RMva6vl1vsiWno/fwqe58U2b7/YpnmveZKe+2837nV9nNudX468dO/pvPjVEf8nwfj/Ns9qcv6c9z1srrG9v/+Y39inZaWOhmIwWBXMU7fpBtZAxCifJmRvvV8usg3c4cVyzYKoKoxR8kbOw+zVI+OI60Dc8FwzmZlMdc45PORFeg92h3hPcAnu3mDldtz1sbfOmssPplLfBw49RYZzn+MJ/HCN4S1u8lnY9npCpfUecF/2HHlkQFDpLbky55KOMdbog75NMW0jHWuQxE5znoofkhAXQyieyhf21DXfhSmzfYLPyabQDbsnuOY7a5U9Mn58un8dn0XQjeBGPqFO5J/YDtrHvdmO58lvquxg5j2rjYqOabBL+F3apzRJD6VvbXuKnOli+WciyyjEFHlhLbMxJ7OWTUVP589MTfQaOf1wp/K70E2/N+nEWa7HjiXvIPMavzk/2z34EmnFUM0IepRyt46R/JYHxFZ9P5MOIhcSgsntblyudaW4Dvxf95a9aBIovT+MzgQGP6RPZuqtvpCP+2BCxK3gSOQH5Rnxd3p+yyGbxoNA/7dIeUX64HzGQGNW5Iy9LzE8ABpxlLB3FgIAhxVnuXb5cPo9PA4Y+qHucb7mB8Yq+Cj/HcYkrx8zZHDjBfj25T0ZSHjssax6hL9fqsPlCavXz5fMTfowy69zpQFsUV5mbJCYuFp6/jMMn/wk413/GSmQt4nuNjWTznbGT2j3M0roYZMa6bFgxBuqScMzFft6Ve8S7MA5/AAx5Y3WpniuZ/8Y/tTXa4PQLZ9Tyi891H1tZI1rvzC3DZDeH8j3HXan9KjzK3mBFWE6ZOt7jJLw0+2yuGW1L/AIHrrKZxpodpOP56fLJfepU7q/9O5cLC7yj/Wl9sdbLnIM4KJfE5jiX5RqqPNT4gjz5azasD8FeHE+xC/ctHpGrwzZrI+yVG2CD+jRvhvyQmNnnbBc4IwedjD0vj+Ycy/vKPvPPeO3bBneq2ubxiGvOvc0xl+Ta8VRiuozXXof6E+sg4RzXqwMbiOnos9Qb1ieS+0OEi5tw2+M57HJ+UlhE94IbZIvkTPR7CJB7Uo9FXrZVcZk48PWwcY5xusSHcWS9Ore58djvpc7nhr77pr5t7JOHZS+oAAAbrklEQVQf//zH5c/j7XXYtL/6bf3Dt9/Fjvqb/ftv78+N/d/GXxBsNuwB2/EjxErmfT9QvFScTO49G/irsTV/Tecj7n/zG/sGUlFwFgVAirSNNdDLeyRnX1TKcUB+pwvllX240KYJv+w7i+hRwV5MHs6uUr5h81778gQ+J44bYi4Tgp/0YLI7g90JvSVHDrmQ8Xf+qm1sL83BaWGbZVgsi7xJPNhxbCE7+eXtYzthsk8648Mxj/A5ca1MiCnqc7HjPqYnXoO/hD08JKNMPNcYzbFD31wU+kV1jgVxRhaQ5SZ+HqOxXcSAFj7J9o0c9GVxXnHb8bRcXJ6JH9q1iJ+zaROvhMeIRyGT+klcUX+MvS1OfZzmwjjGeMqdTIbvkZ/REfvwteR7lgm2Kj6Ijfgd5Lh5ZN7TNutrHBoYsCyxxXInL+IHN5kXgl3UIQ8scl/6i/TpKf5bOoRrrCXo6wN0EIaCWe2X5p08GCluEAuw1ec+9CFdbLPDEsae0hXrDvhgciV2hrfKTjUi2uh5ruOUb9IfcBv3kl3h/swTe0Dj+2yz2Avxpv5gf7yWzRWNB8obNopMk1HVM2xzsQv+UD/cPJ3yFfNo3/RX5oQ1joJnwY2JOdqY5Ew9Na4zR3SukbwLmKBfhd2kH2R4G87rUKwidpOTuFHg55ljHd4m8RM3fqaMwBfB7f74Xm+jbOKIDcJZxulYHttssRwYeNwsDwx74ZscOU+iDXYttXs9dzp+Yt7MuK51i70ie9oUc+nqXPc+OfsEowM+lzYf2iVYSUw4hijL2zJrlHJSNt+sDvr+jA+2cbwr/LCN9bAdMQ+izXJtNogO8yPKiH7O+4AxyxBchHvjGMdWc4nwRMbnMYiJm4tOc9D89XloNkotjzkWr9P4bY32XOU65ttIPmDJdUOwAPuURxmfEmeZ0xOvkS8cK+cj5jjJ8Pau6po9i4f+hQyKp2z6TjvZBvB7xpZr1YHNxfqNdazypOIh6zA/cr7qPJQwmhzGOEpdk7Y0xuOEPEhYSCz1uB7LNvocdfGdMjCn8Bw5ilio74A1y5V1PuYY80rHEAfr+1l3GKs+P7adNrB///Hyl1/u/aTO+CFg/9kexWHpy9ycP/jHc2s580eBX364yA8Oq017HU8/VlRv5YcfNZb2PjYWatcJfavN+Xvar9F/a9/e2MdfCmegt8mfJtZZ1GTiWBSVrUwh2JxcqHTpxIqkFl2jR124EhFSgTd5zqZNvyRT7P0ajjFeN8SHcAp4X43dGb3RVpmshVtn8I4ylFPAl9lmi2vjRI51tbCz/ozN4CMsknZ2qj3h7YDCpmqBgPbluIQF2dUy/QJGdaXYcT9dYiz+sTiyXxZaO0xmnOUBeIzT2JAPE1s8J3nZ3owZ1gyxWI4xZl6el7XngWK18NPly8J2eWDQBd6J+HmMvf3ZponFIibZRuO5l4V6FrikWMnCfWIP9Z1x9vnAbRKfMzpiH7ZRsRyYE49FZvQtYjPHu7wOMlNeyAPMfMCZ8XNzVRFTj63IQM5D7Zr8wlgd1gHZmC0wpzwjm+7VMeMrOor4o59ov7Ujr6qHN4xZjLfEd++H6Qo4T1x9Pk19C96Ufacc1uP9cbp3/Rb6ZHyNnWDDOrV+kh5vxxjv73ssSr+CTZUN2OZkBC5Qv1CDbGwRV3m4DWMEj3ysZYx+pkfwsuPuntvg0th5Pdkvj/vQ73BROdOGgBP7daQj8J5k4AbLkA0yTuiIeJY2Oznez4wD4g62gP9ujJMt8anHia2Pjx3rkzWJ6OE5JNcYvu9x0DHgp2xUrjbQ3BjB4dfxF0NFzjq5smHrbRu43Jfr6BNj4ubUYIOzX9fvst7CY5iHyVdv+5BlcWU7ki+iv5qL57wnMTRZwimUv8Zv6e+hzSE3Jf/Ds5TPr8Bz4cDPZrPLZ/GfjmGsuwfjncwDXKXvKQ6ezBmSebl8+YP/qkjiI37Z9bQZYlvF0DiHXBV/fZvHmuOfOCU+E+Z+POuaeYB01vPA62F7mrcgTmFeNV/Y/tJfwMPXk9pnkuFsAP0VR45sdnkJdjodPrfS/Ol8qO1WLFw8pG8+utge4Cp9+S9nQswSJhUHvH6Rx3/VEfvHaz92+FnGedpB90L957ZcLwmzElvW6e3MdijmCYPH9KXNcHgbv9K37rN/096+aV9toqP992/s62Z+8RcGlU/VW/trP9HWtz2/ZwN/NbbC59FtvbEfFhkD4F2RoQBQ4ZCZ7PnymSb9WRwXReVQZigk1D9MFC74B4Vb+i4LWbTz5OQhcr+K44yTW7hEv3HykE0ZiAVPIGHiizLOYBfHrPROm5ldgVtgV4n/HOv8XdhGvCi4n+UeLILEJtITH6j3RfmQ4/FtPNG1OR77xYsMh5HKWyxAMHZ0jnyYi9yUqydxm7rJbuLfGJfl02J/6EY9aJf4kOJQ2EHjqlhF/6dvalfxkCx6D46p/i14mfoluRC/JCPaj/ybviw5vxs75Mh4qfuCX4HvsNnZBjZPf5inHGc6x7hSnxPYOx0LOxx+KPMImwUewP/abhjn7DN97HtclPM4Q3fmwOSqtcNZUa+lfmUdXv7z0yf6ZAjVgUfoIBng08J3sa/ieWyr8RUci3hHG2bso1yxwXOU5ZZ9S18K/Y5reVNH9cZ+YQMq5ZqL85Fe4J/qwbaZA0AjO2XOncGg6oNtLnYBP+wnmFgb2iqxPtgQVz+l/xoj0yN95bgeQzYuuEV+zvhk2dkXh0u0+yYdodYGrBO+J3TIGDmij9LmN5S8nxkHfKbwfUWew+VqG18udpYbeAZ1zsWw9i3lM/xVB/mtooNciqXetM8DOZ3C3ypHHpHrwSeKjdiE6zSzQ2Iqfru15hxfb96K3HCc+bXDyvEH8BlcFP17Xq7xk/Hm1/TVYVHbHH8Iquz0bYHLV+VCGAs4SL6alRa7Ha48R9qoFLetDhvnXm7QHzj8yxzZxjh+59+ISeAq2ebbKqxRi50LPn48c6CwY8Frj61JH2fMK5ald07N9cOmnX3e5sx7fz/y+thmrOecC1lH6BPmJR8Hqx2Yr2pXGKvtI74xB/U5Yoer/IgnqIe66zi94tVOd/B9l8Niwji62HtM8j2OYVmbFvoIt9295LfZ4DC/o5+85W6b8PXncPBTPKzbNvV1U72yY/l2PPrywI19skFs2/ygQHbBp3ve+bf1Jd6rzfl72kX2Sx4/9sb+omCWxbVKImnDYvEomQs5RoZichV79LjuQxMRFlU4L4ulysQC8Y7PKSayeAA7F7hWMWeMZAFhMo6wiwsDwvMKvRZjmTx54o163SLzSn/jgtvpdLFecyiOIfsWk3PsS9cLTKzved06BnPR+SHx28lc3BsyacG0uF/5UbWV9ky7RAeN8wstwZV4pfiyLZC2/jT0izktHHUcqh4MyJ6xib3wfecT3BMfNE4LfFI/kMFjzQ7xwTs+r9T/ga9g5XFVW4aOJW94AUlSVaZ/MChthjiSnbrgzjys7/vF8ZEO8THG2flY/mi9wsb7qHIgbrXdMA766viINfXhmKntMI5jvIlb4gfk0/JHnNHH7HyEDopPScRiDirjwPbUIvIcVMYbcEO8h22KLeJV9F/zLNhQjEWd47yUhfr13GIRZbgHV8o/y//Ul+RVsrCNz0s8pj2l3cHfqg+2udy4aizaKrXCb7qRHiCKr+FjzBojtNHjtx5D/Rb1EeXhOcvOvjhcNP77nEW5eK72I754DvJ13Ak/VO4cTzZr7ZeYoG94XvNe9UPdQT0Ol6ttfIHYEY7y47X4fHT0OEiNJaoqfrGPyOR2pvWs99OGkauEz7ae+xxB/t2X6yt7GXO2N9RG5V0dF/bFY3vGP+NLxsrxZ6HfOCiYe65mGbX9YscpmwOXs44Yt6AzjBfdlS9l3ZscGnFSHixqhOOrcO0aDs6+uR4b3s5+Nuqi364/HB+w0TiL/Iqrvs3jz/cUlyRvyPXj2f7aDuaD5zXFKa19xd5wpFhzRvFGbq3Hv5BQ2efbMlf8fYmJHM/YHGXG6yHLtQXO+TgIDmf85b6CNf6lfC1Tnm0QV9nYH3WLdeaNc7FpHD1ep3RD3g4ckGOEC5lj63qHVeBhfW+B1RgLuiWmetzdC3p1zAPbz7ylnvvIxvniRwD5pr4eNxvs5MujN/aZK4ffy6fN/B8vf/33+HcEYJP/gfg+Omb3bOCvxj7axkrex97YDwWLAfJFLIJWFU9feKrxVZsVTj9+tuNEUBajTWHTRNnrdb6hPh1vNrq+7/0+4eUXGGZ/hUluo5jI4u7I31PYZR3lhBkWQSU3oj1bf5kncbFZ8dgwwrgXPFv4u7O1vIdySo5XmIlthV3yJoxgeLXMsBibOJvttU6/0Jz2lbrF9uo4fJ3/6J8+BIOs5y+XL8/AacIOroETvPCSh82FzeVmd403+T/++Uz69xv/e6l5UvlkbYahtFW62FZdZJYYVuNOyBROAE7oxzIfKhsC9tVYbMNz0wlxIXm2yOU+cD/yevrg5fr+JSfTht/Ee4HNiBkuyMkuxAPPBVeHDcvf1R7vw4wjyZ38xXPR4Y7B7wobsknyAXVMzB+hw9kU3iKO9+JDX3F/YF1io30rv6vcqNomBgUupc4KH2qLnJU8HMfKPryP5xsbxV/Ql2vJkSyUz3ZpjRH5cDyDQbbBy3UyAs55LM47NW40ZpGnVlMEh1rG6FfplvG7e2fqSR6PuLNtDhfAnGwIOLFd3pcSB+AG2xnnRZBxQofgIcfSZifH+5lxQNzBFvDf+eVkH8d02FnpFPvviV2q/2Czytc2j0O5wUK+xfiIj+MIMhwO3H5d3jLW142RjSGZL8Ae9RPtrePJ2KzuTbvw+aKqsaU+1A22YQ7oOLhfcsTjU/F8y6szNge7Kh2+LWDmOCC+hz7qb273suf4Q7sBN6ef29d84vuHOUP6Rw7E/vFa/LXjNh6YO4JJyDePh49/zuehl23ya7iMM/Id/zqB9CHPxa7dEThT+gv3S/uCz1nGyn7G+YzNUWa8Hni4NscjqTFx/VRhXa0la/tJ326NALg5HigfjWeeC2jXWd1zzNP4jJrU0j2flnk17Et+oU3BbvDT+3G0pg5ydhy98d4tb+zz9/l5s36Mf39v7J/HTfzf+nAjtjHWj7hebc7f0/4Iu45kfPCNffnl0grsYXEMkwYvXrFw3SAzFVYunlbouIjZddZRBjpOJruEuabvTs5b34vxKeyJE3eMebxfYotyT2IX5Ua96aGUeOG5lWw54W96wJpjDheg5GM1kU9+4mR7ZOtJjqNNCR/EXDa+cNGYsOC8uUbmYQySnwUWYhviE2xPcdSN9uKhd/p16u2MocfFt4rfnIhdv9G2WizN+oNvPR364yd7imX4wSLmA1/jn2ReG79s/xGHJA6VfXQvxduwsIedYOcJHrKvlttRf7wvsVEuJx0xzpOXgHnE+xAb0mE2ig02D0Ud8xo+tXBUe6JNwl3j+pTpcsnjvZJh8Yl2+vGyCe0fHnyfYx2e7+wHYufvx3gLD/FIOp3fKIN9Uj7MfIx2bmOc4jvke7/l2uLBNuxtMzkWA7Q9nrNO7ZtyLjwkb+8HWYRLaKPxvs563I4x4P4Q3ylTcsPhE3CuYu/aon8ie8mFiGfNjcEtpyfW8KjX9c95GDHIsgPuh/PiSR1uHgqxmnVxvbl0rANzcJyzn/gj55ShtdX7mXEIuEecU3yvt7F6DjE7juVZX+NSjK/yZ8lD1qM1Kfo5a8t4WZNzPcRu8JHGzOexkDd8T8aanRIvl3PC7Ymt1haNpzzzRRv42uodxjbGXdZaUAdELx0DHnhv8lSxkvWfwxZtw/PpO2Il2ConJ+dgfZziObEpa5bYSn28f8aVzCuZL9QvZ+PMJedjbIuYZR3JD7G1+DGZ+0qsJV6DgeLTAa63cFBlc5wIL/U56Av4Vr658aG/5iTFPWNFYzXfQn4N3Eiez6mI2ZCh8SSsY4wgFxOv2V/hGOXq7EM5ufWnsi/KO/aZMIC8GDZEH2UNyH5GHcYbqSNRZrz2cZHxwrmBV9ZBMiBfCauBd+Sg1Arwif2hiZH/AuQAV+qvnMy1QnVTvNlW9n3ivdNNYwRjsAlkIZ/Yb3zuAz7RmMy3JVajP/kOOf//t3f2OlIcQQB+Dj+CbVlOyIgsImN0JETOSByYFImc+ESEI8sQER2WLBEhJIQ24jJegIuJeYGxprtruqv6Z2aYndvdmy847W1vd3VX1VfVPTX7E9aT+SRp1/ra+ff3PH83fi671UcK4+2v8jnMO/abNpTv4v/vt+77H/0PAH93Au/aX1LAr41t2mlPTG6+sD8Ee/ikUnpB4ByQJVVJHDIgTdYxSIdk5bqZJFNKPK5NZJaSXNgIhi5TZZp+NXBKetb6HnG7tvtgLO+F5EdOdb/URtbOqYy0X/R1vvEmrxlb1ecNYxQHZbbSxKDlpWvVhzU5wEmPdGNN5eX/55uq7xM2eBFoDrPFzVXpNoHx5ODh5izEzXCgCeuQg1fUw/jTyHT2Sw4pcZ5Bsfy7XUf1MBfyhoG4Ns1JftiU14Oth7V7nVo+dHq5/jX/ednCj7ebl5vbMOa81pw1vfr2op2HA3aw9dfL7uOV5aLtPz2nWX+4gIieTP4bbNnboW2jnLHgj5QbM1duJ6NH4QAvvvCrLMR+c46SDmGdg9pJ/jKyhi79P6ltbL9UZ8e1nuPr5WXX/yScYsjEi7VNrre3Veyn5/BL1J8cyX0ksSOP2v5Rtry+jzlEVuliLHmtEQ8pz06n1Bcqj/j15nrIRZp4NPG5Gt9ao7bV5+xdV/V4HtbvuCkwbNfgnvv5UmasPxWT/RjDVCwc5LLkIjqVn43P4nGiDcTMV/+qHKd8Z2xRyoW2Tev/uft46T4uFb+2oWhHYWyEjSyGZVzLrr5PHqtxrNWhZHdll0reHZ/j0v0+hphexYDY+tL/MKXvk8dAaw57npM1u71JJlU21MzldsjjZYp/m2ssnIUyptUabV7QsVlacx/Lep2lvUHLGfqHvDU8D3aTr/Qb4tXuL+k5UnyZ/HCqt0mY09jAzVXKlzZXzIp17VthWjDoH9O8ou1Yj8PetuLfOH5kD2rZyuUDO36E+1bOSvOLtZ/iys5pisATfKT9VraZ2MrbXTM37DmT84n36ZA3WnadyWA7ZoKtDKNet+grGzPT974+F5t9K3wqIDIWXx/arH9tfPSvqzWXfSR+EF8N8s2abMyM6mv9o/gb19mtJxuT57aBB8d+tJPEetQnz+elOVRbgSO57hD5We1JYrA41qyv94/zY4yNll11zCU2DH5Waw/+i/qPz+1YCH7TdpVzZ9S63wv8WkMMFPW1eSbGi3A3PJqcM7RnesSzi/TJ7VJgvbi+XJbI3OdjX9hvvtv9IN+xX9c93ogo3GyQYv/7R22dJA4O8Fgrzi9p3ycPNVkbKuzX4asZh3ZsBgMwAAMwAAMwAANrMeAvFOOF41rznK5cd8FZKE7MZVJfsJ+ePUbXf8CL7rm+SPvvy7+pTP4/Pb7xGT47Pgb6/TkWjI9vfTCzrk9uyPksu0F1fdzEAvfU78kP/f75RX317TQ5sYjuv8Zn5pz9d/WbeSNf076fX+Zt3oRICvXSvz7v9fkq6vpTt6SAXxubyl/r/xtV2F/LSMg9TFBhd+wOAzAAAzAAAzeZgRty4ZhcqHw7r+GdaWkRP7zzbR83PkYL43vRYT1WR9d/9IX9df377dyt5zPWhG1h4LQZ4MbjaftvUfwd/Z46xTd+393HGWqRLY/8fIVumqVacX5J+3XYmMI+gabuCF4HdMyhkwf2wB4wAAMwAAPbZMAX9t2Hs9VH/rfKQ2KP8In1xRek4eaAE5feNDix8+/pF/Z7plfw74n5cZt5bqv5DL1Pn3cKo6fvw/lx6Pbb/tBwwmeG3m/cmJrv+y3ybnVeUsCvjbVzrPGcwj4HYgr7MAADMAADMAADMAADMAADMAADMAADMAADMAADMLBJBmrF+SXtaxTyrUwK+wTsJgPWBgLPuaMLAzAAAzAAAzAAAzAAAzAAAzAAAzAAAzAAA9tjYEkBvzb2OjiisE9hn8I+DMAADMAADMAADMAADMAADMAADMAADMAADMAADGySgVpxfkk7hX2CaZPBdB3gM8f27r7ic3wOAzAAAzAAAzAAAzAAAzAAAzAAAzAAAzBgGVhSwK+NtXOs8fxGvWP/7N7djj9sAAMwAAMwAAMwAAMwAAMwAAMwAAMwAAMwAAMwAAMwMIWBWnF+SfsahXwrk8I+NwO4GQIDMAADMAADMAADMAADMAADMAADMAADMAADMAADm2RgSQG/NtYW4dd4fqMK+z/v/u7kb8rdGPpw1w4GYAAGYAAGYAAGYAAGYAAGYAAGYAAGYAAGYAAGtstArTi/pH2NQr6VSWGfO3GbvBNHst5ussb3+B4GYAAGYAAGYAAGYAAGYAAGYAAGYAAGYEAYWFLAr421Rfg1nlPYp7BPYR8GYAAGYAAGYAAGYAAGYAAGYAAGYAAGYAAGYAAGNslArTi/pH2NQr6VSWGfgN1kwModOR65OwsDMAADMAADMAADMAADMAADMAADMAADMLAuAw+6W+//6G7/2bbznVePuu/ez/h79aBR17vf3X7zqPvhr/uNPne72XPK+hpze5kPuzsnUnddUsCvjbVF+DWeb6qw//pi1129eJzB3Ld/2cnfRfd6DLonL7uroX9J5uPuw1uRt+u+vH3ZPR+Tmbz+/MW74pi569T9d92nZ43k4XR61314ovsoGTP1WDch6nWquYx/SvZXeu1ynzsfNH2czF+xnVpT8O/YvGfPLhIWR3wmzEzQ98z0KcVBab19W7/mUn+lyxQ2zBoyHo3uPiZz38R1mjgL/lJrnS3T+rUwv9FDzTfVz8Z3mS3unXefen0uzk2+8jqrOYf1FNZ6r2wjyXd63jBn0ZeFeUWH0mPR7iEnZjolNi/JarUNuif5dhfzmGN07nxOZpQReevX6W0U7dayb5DRlCe6B9sPOSf35ayc1NusMK+K2ULeG88TRt+SbY3vo62CrsZn2evCvtjCzDHXp9l+WrCL9rFfp7ZVIRcbPVRMGmbdGoweZ5XYLMvp+SgxmXDj5CfPnf1aHAV5Y/4yulhbWTu53JLpWuC8mGek35RHr2vOz5SxjT4T+RA7KL5mjhUZSx57+ytmUi6rfmjoP+LvJWs99rHKlyU7HMC/x2uz8+5165qiZL9a26HsquZdkk/Mvih7V3jce46q2fGQ7W4fyfebJr9JrlI5rKSH2afkDBsfS/vjjDynWJgxrrTWI2l7/ux8Vu3B+6qPA7GlPU+Uz9lNHx+JLb51jXPPm/08bh9xsS92rPNUPD+l+WPhOWl0T1P+WZID6zrOtb22ST2nON3MGafUNnf+vfd/+nBeYT4UyW89bdi0l9kootd1mFbYL49fMtbr4or7b37vflXcNfQ8YL9acX5J+xqFfCtzTmH/fzQt+VQgHJrtAAAAAElFTkSuQmCC;" vertex="1" parent="1">
          <mxGeometry x="920" y="160" width="680" height="330.37" as="geometry" />
        </mxCell>
      </root>
    </mxGraphModel>
  </diagram>
</mxfile>
